<svg width="256" height="256" viewBox="0 0 256 256" fill="none" xmlns="http://www.w3.org/2000/svg">
<g clip-path="url(#clip0_711_479)">
<path d="M256 0H0V256H256V0Z" fill="#42DF81"/>
<path d="M128 56C121.635 56 115.53 58.5286 111.029 63.0294C106.529 67.5303 104 73.6348 104 80C104 86.3652 106.529 92.4697 111.029 96.9706C115.53 101.471 121.635 104 128 104C134.365 104 140.47 101.471 144.971 96.9706C149.471 92.4697 152 86.3652 152 80C152 73.6348 149.471 67.5303 144.971 63.0294C140.47 58.5286 134.365 56 128 56ZM76 64C70.6957 64 65.6086 66.1071 61.8579 69.8579C58.1071 73.6086 56 78.6957 56 84C56 89.3043 58.1071 94.3914 61.8579 98.1421C65.6086 101.893 70.6957 104 76 104C81.3043 104 86.3914 101.893 90.1421 98.1421C93.8929 94.3914 96 89.3043 96 84C96 78.6957 93.8929 73.6086 90.1421 69.8579C86.3914 66.1071 81.3043 64 76 64ZM180 64C174.696 64 169.609 66.1071 165.858 69.8579C162.107 73.6086 160 78.6957 160 84C160 89.3043 162.107 94.3914 165.858 98.1421C169.609 101.893 174.696 104 180 104C185.304 104 190.391 101.893 194.142 98.1421C197.893 94.3914 200 89.3043 200 84C200 78.6957 197.893 73.6086 194.142 69.8579C190.391 66.1071 185.304 64 180 64ZM128 200C108.152 200 92 183.848 92 164V126C92 118.28 98.28 112 106 112H150C157.72 112 164 118.28 164 126V164C164 183.848 147.848 200 128 200ZM84 164V126C84 120.688 85.896 115.808 89.044 112H62C54.28 112 48 118.28 48 126V152C48 169.64 62.36 184 80 184C82.84 184 85.6 183.64 88.24 182.92C88.24 182.92 88.284 182.9 88.32 182.888C85.58 177.156 84 170.764 84 164ZM172 164V126C172 120.688 170.104 115.808 166.956 112H194C201.72 112 208 118.28 208 126V152C208 169.64 193.64 184 176 184C173.16 184 170.4 183.64 167.76 182.92C167.76 182.92 167.716 182.9 167.68 182.888C170.42 177.156 172 170.764 172 164Z" fill="white"/>
</g>
<defs>
<clipPath id="clip0_711_479">
<rect width="256" height="256" rx="128" fill="white"/>
</clipPath>
</defs>
</svg>
