<svg width="24" height="24" viewBox="0 0 24 24" fill="none" xmlns="http://www.w3.org/2000/svg">
<path fill-rule="evenodd" clip-rule="evenodd" d="M21.107 4.05303C21.553 3.86603 21.946 4.40803 21.633 4.77603C21.124 5.37503 20.495 5.91803 19.986 6.22203C20.562 6.15303 21.121 6.03003 21.657 5.85503C21.905 5.77403 22.105 6.06803 21.938 6.26903C21.463 6.84103 20.916 7.35303 20.312 7.78903C20.316 7.86003 20.319 7.99703 20.322 8.14303C20.322 8.15753 20.3242 8.17178 20.3265 8.18603C20.3288 8.20028 20.331 8.21453 20.331 8.22903C20.331 8.23853 20.3298 8.24803 20.3285 8.25753C20.3272 8.26703 20.326 8.27653 20.326 8.28603C20.329 8.48103 20.331 8.67403 20.331 8.76703C20.331 14.516 15.783 20.615 7.781 20.615C6.036 20.615 4.463 20.209 2.888 19.49C2.333 19.237 2.465 18.408 3.071 18.337C4.787 18.138 6.507 17.68 7.553 16.86C6.01 16.833 4.405 16.188 3.558 15.024C3.308 14.681 3.593 14.204 4.015 14.252C4.276 14.282 4.518 14.304 4.635 14.304C5.032 14.304 5.846 14.28 6.25 14.042C4.523 13.695 2.61 12.569 2.134 10.899C2.042 10.575 2.356 10.285 2.67 10.407C3.069 10.562 3.562 10.708 3.917 10.708C4.305 10.708 4.678 10.645 5.016 10.558C3.179 9.64003 2 8.15803 2 6.64903C2 6.46803 2.005 6.28403 2.016 6.10103C2.052 5.43603 2.856 5.11803 3.329 5.58803C5.193 7.44003 7.613 8.76803 10.639 8.76803C10.6307 8.67318 10.6339 8.51935 10.6366 8.38689C10.6379 8.32804 10.639 8.27341 10.639 8.23003C10.639 5.55403 12.809 3.38403 15.485 3.38403C16.813 3.38403 18.012 3.91903 18.888 4.78303C18.9011 4.7793 18.9133 4.77534 18.9255 4.77137C18.9395 4.76684 18.9535 4.7623 18.969 4.75803C19.547 4.64403 20.362 4.36503 21.107 4.05303ZM15 7.00002C15 6.44802 15.448 6.00002 16 6.00002C16.552 6.00002 17 6.44802 17 7.00002C17 7.55202 16.552 8.00002 16 8.00002C15.448 8.00002 15 7.55202 15 7.00002Z" fill="white"/>
</svg>
