<svg width="256" height="256" viewBox="0 0 256 256" fill="none" xmlns="http://www.w3.org/2000/svg">
<g clip-path="url(#clip0_1055_633)">
<path d="M256 0H0V256H256V0Z" fill="#42DF81"/>
<path d="M182.522 55.0535C181.455 55.1484 180.391 55.3677 179.357 55.7191L112.025 78.6506V160.711L179.364 183.643C183.497 185.048 188.083 184.371 191.638 181.835C195.185 179.299 197.309 175.18 197.309 170.815V135.957C202.986 133.656 207 128.113 207 121.617C207 115.121 202.986 109.578 197.309 107.277V68.5462C197.309 64.1821 195.189 60.0631 191.638 57.5267C188.972 55.6215 185.723 54.7691 182.522 55.0535ZM100.395 81.3885L69.6856 83.7482C58.6413 84.5962 50 93.9186 50 104.978V134.384C50 145.149 58.197 154.272 68.8149 155.53L72.487 188.559C73.2739 195.649 79.2587 201 86.4032 201C94.1214 201 100.395 194.726 100.395 187.016V81.3885Z" fill="white"/>
</g>
<defs>
<clipPath id="clip0_1055_633">
<rect width="256" height="256" rx="128" fill="white"/>
</clipPath>
</defs>
</svg>
