<svg width="72" height="72" viewBox="0 0 72 72" fill="none" xmlns="http://www.w3.org/2000/svg">
<path d="M36 72C55.8822 72 72 55.8823 72 36C72 16.1178 55.8822 0 36 0C16.1177 0 0 16.1178 0 36C0 55.8823 16.1177 72 36 72Z" fill="#42DF81"/>
<path d="M23.5447 13.5282C21.0601 13.5089 18.6943 14.6027 16.5916 16.7805C13.8023 19.6985 11.528 24.5051 10.1548 30.384C8.91036 35.8768 8.60998 41.5408 9.42531 45.8749C10.541 52.0971 12.8583 55.5301 16.1196 55.7447C18.3081 55.9163 23.8798 50.6463 27.1913 50.2596C30.2866 49.8983 32.1099 53.3218 35.9883 53.4248C39.8663 53.5278 41.6913 49.8871 44.7853 50.2596C48.0535 50.6536 53.5818 55.7876 55.5987 55.7876H55.8987C59.16 55.573 61.4781 52.14 62.5938 45.9178C63.3662 41.5408 63.1083 35.9193 61.8639 30.4265C60.4907 24.5476 58.2163 19.6985 55.3841 16.7805C52.9811 14.2916 50.2351 13.2183 47.36 13.6046C45.8581 13.8191 43.97 14.849 41.996 15.9647C39.8933 17.1663 37.4902 18.497 35.9883 18.497C34.4864 18.497 32.0833 17.1663 29.9806 15.9647C28.0067 14.849 26.1185 13.8191 24.6166 13.6046C24.257 13.5565 23.8996 13.5312 23.5447 13.5282Z" fill="black"/>
<path d="M48.6521 39.2167C44.3275 39.2167 40.831 35.7202 40.831 31.3956C40.831 27.0709 44.3275 23.5744 48.6521 23.5744C52.9767 23.5744 56.4732 27.0709 56.4732 31.3956C56.4732 35.7202 52.9767 39.2167 48.6521 39.2167ZM48.6521 36.4563C51.4281 36.4563 53.7128 34.1716 53.7128 31.3956C53.7128 28.6195 51.4281 26.3348 48.6521 26.3348C45.8761 26.3348 43.5914 28.6195 43.5914 31.3956C43.5914 34.1716 45.8761 36.4563 48.6521 36.4563Z" fill="#42DF81"/>
<path d="M17.6832 36.6007C17.1302 36.0476 17.1302 35.2018 17.6832 34.6488L20.9363 31.3956L17.6832 28.1425C17.1302 27.5894 17.1302 26.7436 17.6832 26.1906C18.2362 25.6375 19.082 25.6375 19.6351 26.1906L22.8882 29.4437L26.1414 26.1906C26.6944 25.6375 27.5403 25.6375 28.0933 26.1906C28.6463 26.7436 28.6463 27.5894 28.0933 28.1425L24.8401 31.3956L28.0933 34.6488C28.6463 35.2018 28.6463 36.0476 28.0933 36.6007C27.5403 37.1537 26.6944 37.1537 26.1414 36.6007L22.8882 33.3475L19.6351 36.6007C19.082 37.1537 18.2362 37.1537 17.6832 36.6007Z" fill="#42DF81"/>
<path fill-rule="evenodd" clip-rule="evenodd" d="M39.5129 42.3302C38.4224 46.0044 33.537 45.8674 32.487 42.3302C32.2708 41.6022 31.505 41.1872 30.778 41.4038C30.051 41.6191 29.6361 42.385 29.8515 43.1118C31.6895 49.3028 40.239 49.5429 42.1483 43.1118C42.3637 42.385 41.9488 41.6191 41.2218 41.4038C40.4948 41.1872 39.729 41.6022 39.5129 42.3302Z" fill="#42DF81"/>
</svg>
