<svg width="256" height="256" viewBox="0 0 256 256" fill="none" xmlns="http://www.w3.org/2000/svg">
<g clip-path="url(#clip0_711_485)">
<path d="M256 0H0V256H256V0Z" fill="#42DF81"/>
<path d="M69.0909 56C61.8713 56 56 61.8713 56 69.0909V108.364C56 115.583 61.8713 121.455 69.0909 121.455H108.364C115.583 121.455 121.455 115.583 121.455 108.364V69.0909C121.455 61.8713 115.583 56 108.364 56H69.0909ZM147.636 56C140.417 56 134.545 61.8713 134.545 69.0909V108.364C134.545 115.583 140.417 121.455 147.636 121.455H186.909C194.129 121.455 200 115.583 200 108.364V69.0909C200 61.8713 194.129 56 186.909 56H147.636ZM69.0909 134.545C61.8713 134.545 56 140.417 56 147.636V186.909C56 194.129 61.8713 200 69.0909 200H108.364C115.583 200 121.455 194.129 121.455 186.909V147.636C121.455 140.417 115.583 134.545 108.364 134.545H69.0909ZM147.636 134.545C140.417 134.545 134.545 140.417 134.545 147.636V186.909C134.545 194.129 140.417 200 147.636 200H186.909C194.129 200 200 194.129 200 186.909V147.636C200 140.417 194.129 134.545 186.909 134.545H147.636Z" fill="white"/>
</g>
<defs>
<clipPath id="clip0_711_485">
<rect width="256" height="256" rx="128" fill="white"/>
</clipPath>
</defs>
</svg>
