<svg width="256" height="256" viewBox="0 0 256 256" fill="none" xmlns="http://www.w3.org/2000/svg">
<g clip-path="url(#clip0_711_489)">
<path d="M256 0H0V256H256V0Z" fill="#42DF81"/>
<path d="M113.6 56C81.7904 56 56 81.7904 56 113.6C56 145.41 81.7904 171.2 113.6 171.2C145.41 171.2 171.2 145.41 171.2 113.6C171.2 81.7904 145.41 56 113.6 56ZM184.813 103.517C185.273 106.822 185.6 110.173 185.6 113.6C185.6 153.366 153.366 185.6 113.6 185.6C110.173 185.6 106.822 185.273 103.517 184.813C113.77 194.209 127.395 200 142.4 200C174.21 200 200 174.21 200 142.4C200 127.395 194.209 113.77 184.813 103.517Z" fill="white"/>
</g>
<defs>
<clipPath id="clip0_711_489">
<rect width="256" height="256" rx="128" fill="white"/>
</clipPath>
</defs>
</svg>
