<svg width="48" height="49" viewBox="0 0 48 49" fill="none" xmlns="http://www.w3.org/2000/svg">
<path d="M9.38505 0.997803C9.25647 0.997803 9.12857 1.01883 9 1.06225L1.0279 5.23115L9 9.31186C9.25714 9.39869 9.60034 9.39903 9.77176 9.22536L17.7422 5.14465L9.77176 1.06225C9.64319 1.01883 9.51362 0.997803 9.38505 0.997803ZM38.5279 0.997803C38.3993 0.997803 38.2714 1.01883 38.1429 1.06225L30.1708 5.14465L38.1429 9.22536C38.4 9.39903 38.7432 9.39903 38.9146 9.22536L46.885 5.14465L38.9146 1.06225C38.786 1.01883 38.6565 0.997803 38.5279 0.997803ZM0 6.62022V16.2589C0 16.6062 0.171094 16.9539 0.513951 17.0408L6.85714 20.2531V16.6066C6.85714 15.6514 7.37109 14.7837 8.22824 14.2626L8.57143 14.0879V10.7891C8.48571 10.7891 8.39933 10.7009 8.31362 10.7009L0 6.62022ZM18.8571 6.62022L10.5435 10.7891C10.4578 10.876 10.3714 10.8753 10.2857 10.9621V13.3061L18.8571 8.70467V6.62022ZM29.1429 6.62022V8.70467L37.7143 13.3061V10.9621C37.6286 10.9621 37.5422 10.8756 37.4565 10.8756L29.1429 6.62022ZM48 6.62022L39.6864 10.7891C39.6007 10.7891 39.5143 10.8756 39.4286 10.8756V14.1744L39.7718 14.3491C40.6289 14.7833 41.1429 15.651 41.1429 16.6931V20.3413L47.486 17.1273C47.7432 16.9536 48 16.6927 48 16.3454V6.62022ZM24.0435 8.05338C23.915 8.05338 23.7854 8.09714 23.6568 8.18398L9.59933 15.6517L23.6568 23.1194C23.914 23.2931 24.1714 23.2931 24.4286 23.1194L38.486 15.6517L24.4286 8.18398C24.3 8.09714 24.1721 8.05338 24.0435 8.05338ZM8.57143 17.0408V27.2883C9.25714 27.0278 9.94353 27.1143 10.5435 27.3748L11.1429 27.6343V26.8541C11.1429 25.8989 11.6568 25.0295 12.514 24.5085L15.8571 22.6852L16.6289 24.249L13.2857 26.0723C13.0286 26.2459 12.8571 26.5068 12.8571 26.8541V28.5027L19.115 31.7167C19.9721 32.1509 20.5714 33.0186 20.5714 34.0607V40.5735L23.1429 41.9626V24.7697C23.0571 24.7697 22.8854 24.6818 22.7997 24.595L8.57143 17.0408ZM39.4286 17.0408L25.2003 24.595C25.1146 24.6818 24.9429 24.6828 24.8571 24.7697V41.9626L27.4286 40.5735V34.0607C27.4286 33.1054 27.9422 32.1509 28.885 31.7167L35.1429 28.5027V26.8541C35.1429 26.5068 34.9714 26.2459 34.7143 26.0723L31.3711 24.249L32.1429 22.6852L35.486 24.5085C36.3432 24.9427 36.8571 25.8121 36.8571 26.8541V27.6343L37.4565 27.3748C38.0565 27.0275 38.8286 27.0278 39.4286 27.2883V17.0408ZM9.42857 28.8504C9.25714 28.8504 9.17109 28.85 9.08538 28.9369L1.11496 33.0193L9.51395 37.2747L17.9146 33.0193L12.8571 30.5006V33.0193H11.1429V29.6323L9.77176 28.9369C9.68605 28.85 9.51429 28.8504 9.42857 28.8504ZM38.5714 28.8504C38.4 28.8504 38.3139 28.85 38.2282 28.9369L36.8571 29.6323V33.0193H35.1429V30.5006L30.1708 33.0193L38.5714 37.2747L46.9721 33.0193L38.9146 28.9369C38.8289 28.85 38.6571 28.8504 38.5714 28.8504ZM0 34.4084V44.047C0 44.3944 0.171094 44.6552 0.513951 44.8289L8.57143 48.9096V38.7503L0 34.4084ZM18.8571 34.4084L10.2857 38.7503V48.9978L18.3432 44.9154C18.6003 44.7417 18.8571 44.4809 18.8571 44.1335V34.4084ZM29.1429 34.4084V44.047C29.1429 44.3944 29.314 44.6552 29.6568 44.8289L37.7143 48.9096V38.7503L29.1429 34.4084ZM48 34.4084L39.4286 38.7503V48.9978L47.486 44.9154C47.7432 44.7417 48 44.4809 48 44.1335V34.4084Z" fill="#42DF81"/>
</svg>
