<svg width="48" height="49" viewBox="0 0 48 49" fill="none" xmlns="http://www.w3.org/2000/svg">
<path d="M35.9695 0.997998C35.5666 1.00313 35.1714 1.10962 34.8204 1.30764C34.4694 1.50566 34.174 1.78884 33.9612 2.13108C33.7484 2.47332 33.6252 2.86362 33.603 3.26599C33.5807 3.66836 33.6601 4.06986 33.8338 4.43348L31.4335 6.83382C31.2835 6.98386 31.1993 7.18731 31.1993 7.39944V8.99941H32.7993V7.73088L34.9652 5.5649C35.2916 5.72079 35.6489 5.80094 36.0105 5.79938C36.3722 5.79781 36.7288 5.71456 37.0538 5.55584C37.3787 5.39712 37.6636 5.16705 37.8872 4.88279C38.1108 4.59853 38.2672 4.26743 38.3449 3.91422C38.4226 3.56102 38.4194 3.19483 38.3357 2.843C38.252 2.49117 38.09 2.16279 37.8616 1.88239C37.6332 1.602 37.3444 1.37682 37.0168 1.22368C36.6891 1.07054 36.3311 0.993389 35.9695 0.997998ZM24.0037 0.99917C23.4373 0.998184 22.8887 1.19762 22.4551 1.56218C22.0215 1.92673 21.7308 2.43292 21.6345 2.99116C21.5382 3.54941 21.6425 4.12372 21.9289 4.61247C22.2153 5.10123 22.6654 5.47292 23.1995 5.66178V8.19942H24.7994V5.66178C25.3328 5.47317 25.7824 5.10219 26.0689 4.61432C26.3553 4.12646 26.4602 3.55308 26.3651 2.9954C26.2699 2.43771 25.9808 1.93157 25.5487 1.56633C25.1167 1.20108 24.5695 1.00021 24.0037 0.99917ZM12.0383 1.00034C11.7213 0.994714 11.4063 1.05198 11.1115 1.16882C10.8167 1.28566 10.548 1.45977 10.3209 1.68108C10.0938 1.90239 9.91282 2.16651 9.78841 2.45819C9.664 2.74986 9.59863 3.06329 9.59607 3.38038C9.59352 3.69747 9.65383 4.01192 9.77352 4.30556C9.89322 4.5992 10.0699 4.8662 10.2934 5.09114C10.5169 5.31608 10.7828 5.4945 11.0757 5.61608C11.3685 5.73766 11.6826 5.79999 11.9997 5.79947C12.3576 5.79983 12.7109 5.71967 13.0336 5.5649L15.1996 7.73088V8.99941H16.7996V7.39944C16.7996 7.18731 16.7154 6.98386 16.5654 6.83382L14.1651 4.43348C14.3382 4.07066 14.4175 3.67015 14.3955 3.26872C14.3736 2.86729 14.2511 2.47781 14.0394 2.13604C13.8277 1.79427 13.5335 1.51117 13.1839 1.31273C12.8342 1.11429 12.4403 1.00687 12.0383 1.00034ZM11.9997 2.59953C12.1579 2.59953 12.3126 2.64645 12.4441 2.73435C12.5757 2.82226 12.6782 2.9472 12.7388 3.09337C12.7993 3.23955 12.8151 3.4004 12.7843 3.55558C12.7534 3.71077 12.6772 3.85331 12.5653 3.96519C12.4535 4.07707 12.3109 4.15326 12.1557 4.18413C12.0006 4.215 11.8397 4.19915 11.6935 4.1386C11.5473 4.07806 11.4224 3.97552 11.3345 3.84396C11.2466 3.71241 11.1997 3.55774 11.1997 3.39951C11.1999 3.18742 11.2843 2.98408 11.4343 2.83411C11.5842 2.68413 11.7876 2.59977 11.9997 2.59953ZM23.9994 2.59953C24.1577 2.59953 24.3123 2.64645 24.4439 2.73435C24.5754 2.82226 24.678 2.9472 24.7385 3.09337C24.7991 3.23955 24.8149 3.4004 24.7841 3.55558C24.7532 3.71077 24.677 3.85331 24.5651 3.96519C24.4532 4.07707 24.3107 4.15326 24.1555 4.18413C24.0003 4.215 23.8395 4.19915 23.6933 4.1386C23.5471 4.07806 23.4222 3.97552 23.3343 3.84396C23.2464 3.71241 23.1995 3.55774 23.1995 3.39951C23.1997 3.18742 23.2841 2.98408 23.434 2.83411C23.584 2.68413 23.7873 2.59977 23.9994 2.59953ZM35.9992 2.59953C36.1574 2.59953 36.3121 2.64645 36.4437 2.73435C36.5752 2.82226 36.6778 2.9472 36.7383 3.09337C36.7989 3.23955 36.8147 3.4004 36.7838 3.55558C36.753 3.71077 36.6768 3.85331 36.5649 3.96519C36.453 4.07707 36.3105 4.15326 36.1553 4.18413C36.0001 4.215 35.8392 4.19915 35.6931 4.1386C35.5469 4.07806 35.422 3.97552 35.334 3.84396C35.2461 3.71241 35.1992 3.55774 35.1992 3.39951C35.1995 3.18742 35.2838 2.98408 35.4338 2.83411C35.5838 2.68413 35.7871 2.59977 35.9992 2.59953ZM45.5336 9.00039C45.0487 9.01369 44.5793 9.17361 44.1871 9.45905C43.7949 9.7445 43.4985 10.1421 43.3368 10.5994H39.9991C39.8941 10.5994 39.79 10.6201 39.6929 10.6603C39.5958 10.7005 39.5076 10.7594 39.4333 10.8337L37.8334 12.4337L38.965 13.5649L40.3306 12.1993H43.3368C43.4844 12.6168 43.7446 12.9853 44.0886 13.2641C44.4326 13.5428 44.847 13.721 45.286 13.7788C45.725 13.8367 46.1715 13.7719 46.576 13.5918C46.9804 13.4116 47.3272 13.1231 47.5779 12.758C47.8285 12.393 47.9733 11.9658 47.9962 11.5236C48.0191 11.0814 47.9193 10.6415 47.7077 10.2525C47.4961 9.86358 47.181 9.54074 46.7973 9.31975C46.4136 9.09876 45.9762 8.98823 45.5336 9.00039ZM2.47368 9.00078C2.15576 8.99131 1.83914 9.04513 1.54221 9.15911C1.24528 9.27309 0.973971 9.44495 0.744052 9.66471C0.514134 9.88448 0.330193 10.1478 0.202924 10.4392C0.0756539 10.7307 0.00759441 11.0446 0.00270166 11.3626C-0.00219109 11.6806 0.0561806 11.9964 0.174423 12.2917C0.292666 12.5869 0.46842 12.8558 0.691469 13.0825C0.914519 13.3092 1.18041 13.4893 1.47369 13.6124C1.76698 13.7355 2.0818 13.799 2.39985 13.7993C2.89594 13.7987 3.37968 13.6446 3.78471 13.3581C4.18974 13.0716 4.49622 12.6669 4.66211 12.1993H7.6683L9.0339 13.5649L10.1655 12.4337L8.56555 10.8337C8.49125 10.7594 8.40304 10.7005 8.30596 10.6603C8.20888 10.6201 8.10482 10.5994 7.99974 10.5994H4.66211C4.50088 10.1434 4.20567 9.74685 3.81515 9.46159C3.42464 9.17633 2.95705 9.0157 2.47368 9.00078ZM21.5995 9.79939C13.2183 9.79939 6.39977 16.618 6.39977 24.9991C6.39977 33.3802 13.2183 40.1988 21.5995 40.1988H26.3994C34.7806 40.1988 41.5991 33.3802 41.5991 24.9991C41.5991 16.618 34.7806 9.79939 26.3994 9.79939H21.5995ZM2.39985 10.5994C2.55807 10.5994 2.71274 10.6463 2.8443 10.7342C2.97585 10.8221 3.07839 10.947 3.13894 11.0932C3.19949 11.2394 3.21533 11.4003 3.18446 11.5554C3.15359 11.7106 3.0774 11.8532 2.96552 11.965C2.85364 12.0769 2.7111 12.1531 2.55592 12.184C2.40074 12.2148 2.23989 12.199 2.09371 12.1385C1.94753 12.0779 1.82259 11.9754 1.73469 11.8438C1.64678 11.7123 1.59986 11.5576 1.59986 11.3994C1.60011 11.1873 1.68447 10.9839 1.83444 10.834C1.98442 10.684 2.18775 10.5996 2.39985 10.5994ZM45.599 10.5994C45.7573 10.5994 45.9119 10.6463 46.0435 10.7342C46.175 10.8221 46.2776 10.947 46.3381 11.0932C46.3987 11.2394 46.4145 11.4003 46.3836 11.5554C46.3528 11.7106 46.2766 11.8532 46.1647 11.965C46.0528 12.0769 45.9103 12.1531 45.7551 12.184C45.5999 12.2148 45.4391 12.199 45.2929 12.1385C45.1467 12.0779 45.0218 11.9754 44.9339 11.8438C44.846 11.7123 44.799 11.5576 44.799 11.3994C44.7993 11.1873 44.8837 10.9839 45.0336 10.834C45.1836 10.684 45.3869 10.5996 45.599 10.5994ZM28.7872 11.6095C31.1352 12.0287 33.331 13.06 35.1529 14.5993H32.6721C31.5463 13.4003 30.2345 12.3908 28.7872 11.6095ZM21.5995 13.7993C24.0986 13.7905 26.5275 14.6261 28.4921 16.1708L27.5066 17.4315C25.8228 16.1078 23.7413 15.3917 21.5995 15.3993C19.7762 15.3994 17.9906 15.9186 16.4517 16.8964C14.9127 17.8742 13.684 19.27 12.9093 20.9205C12.1346 22.571 11.846 24.408 12.0771 26.2166C12.3083 28.0252 13.0497 29.7306 14.2147 31.1332L12.9846 32.1562C11.6253 30.5199 10.7601 28.5303 10.4902 26.4202C10.2203 24.3102 10.557 22.1669 11.4607 20.2411C12.3645 18.3154 13.7979 16.6868 15.5935 15.546C17.389 14.4052 19.4722 13.7994 21.5995 13.7993ZM33.9848 16.1993H36.7601C37.583 17.1661 38.2668 18.2432 38.7917 19.3992H35.7299C35.2788 18.2664 34.6929 17.192 33.9848 16.1993ZM21.4384 17.8039C22.5501 17.7794 23.6524 18.0127 24.659 18.4855C25.6655 18.9582 26.5489 19.6577 27.2399 20.5289C27.9309 21.4001 28.4108 22.4196 28.642 23.5073C28.8732 24.595 28.8494 25.7215 28.5724 26.7985L27.023 26.3997C27.2357 25.5721 27.2563 24.7068 27.0834 23.8701C26.9104 23.0333 26.5484 22.2471 26.0251 21.5716C25.5018 20.8962 24.831 20.3493 24.064 19.9727C23.2969 19.5962 22.454 19.4001 21.5995 19.3992C20.2355 19.3985 18.9183 19.8963 17.8957 20.799L16.8369 19.5994C18.1111 18.4772 19.7408 17.8413 21.4384 17.8039ZM2.39985 19.3992C2.18768 19.3992 1.9842 19.4835 1.83418 19.6335C1.68415 19.7836 1.59987 19.987 1.59986 20.1992V26.7368C1.06616 26.9255 0.616351 27.2968 0.329933 27.7851C0.0435158 28.2733 -0.0610676 28.8472 0.0346669 29.4051C0.130401 29.963 0.42029 30.4691 0.853098 30.834C1.28591 31.1989 1.83377 31.399 2.39985 31.399C2.96593 31.399 3.51379 31.1989 3.9466 30.834C4.37941 30.4691 4.6693 29.963 4.76503 29.4051C4.86076 28.8472 4.75618 28.2733 4.46976 27.7851C4.18335 27.2968 3.73354 26.9255 3.19983 26.7368V20.9992H5.59979V19.3992H2.39985ZM45.599 19.3992C45.033 19.3992 44.4851 19.5993 44.0523 19.9642C43.6195 20.3291 43.3296 20.8352 43.2339 21.3931C43.1381 21.951 43.2427 22.5249 43.5291 23.0131C43.8155 23.5014 44.2653 23.8727 44.799 24.0614V29.799H42.3991V31.399H45.599C45.8112 31.399 46.0147 31.3147 46.1647 31.1647C46.3147 31.0146 46.399 30.8112 46.399 30.599V24.0614C46.9327 23.8727 47.3825 23.5014 47.6689 23.0131C47.9553 22.5249 48.0599 21.951 47.9642 21.3931C47.8685 20.8352 47.5786 20.3291 47.1458 19.9642C46.713 19.5993 46.1651 19.3992 45.599 19.3992ZM31.9407 20.6914C32.6484 22.3937 32.9252 24.2442 32.7466 26.0791C32.5679 27.914 31.9394 29.6764 30.9165 31.2102C29.8937 32.744 28.5083 34.0017 26.8831 34.8719C25.2578 35.7422 23.443 36.1979 21.5995 36.1989C20.1208 36.2016 18.6564 35.9097 17.2918 35.3403L17.9074 33.8636C19.6635 34.5935 21.5968 34.7856 23.4622 34.4157C25.3277 34.0458 27.0413 33.1305 28.3861 31.7857C29.7309 30.441 30.6462 28.7273 31.0161 26.8619C31.386 24.9964 31.1938 23.0631 30.464 21.307L31.9407 20.6914ZM36.2631 20.9992H39.3982C39.7185 22.0387 39.9122 23.1131 39.9751 24.1991H36.776C36.7201 23.1172 36.5481 22.0444 36.2631 20.9992ZM45.5658 21C45.6736 20.9955 45.7811 21.0128 45.882 21.051C45.9829 21.0891 46.075 21.1473 46.1528 21.2219C46.2306 21.2966 46.2926 21.3862 46.3349 21.4854C46.3772 21.5846 46.399 21.6913 46.399 21.7992C46.3988 22.0113 46.3144 22.2146 46.1644 22.3646C46.0145 22.5145 45.8111 22.5989 45.599 22.5992C45.3901 22.5986 45.1897 22.5163 45.0406 22.37C44.8915 22.2236 44.8056 22.0247 44.8013 21.8158C44.797 21.6069 44.8745 21.4046 45.0174 21.2521C45.1603 21.0997 45.3571 21.0092 45.5658 21ZM21.5995 21.7992C22.4479 21.8001 23.2612 22.1376 23.8611 22.7375C24.461 23.3374 24.7985 24.1507 24.7994 24.9991C24.7994 25.632 24.6118 26.2507 24.2601 26.7769C23.9085 27.3031 23.4088 27.7133 22.824 27.9555C22.2393 28.1977 21.5959 28.261 20.9752 28.1376C20.3545 28.0141 19.7843 27.7093 19.3368 27.2618C18.8893 26.8143 18.5845 26.2441 18.461 25.6234C18.3376 25.0027 18.4009 24.3593 18.6431 23.7745C18.8853 23.1898 19.2955 22.6901 19.8217 22.3385C20.3479 21.9868 20.9666 21.7992 21.5995 21.7992ZM14.9232 22.299L16.4064 22.8993C15.9337 24.0689 15.8697 25.3638 16.2247 26.5743C16.5797 27.7848 17.333 28.8401 18.3625 29.5691C19.392 30.2981 20.6375 30.6582 21.8972 30.591C23.1569 30.5239 24.3571 30.0335 25.3033 29.1992L26.3621 30.3988C25.3229 31.3154 24.0413 31.9126 22.6711 32.1188C21.3009 32.325 19.9003 32.1315 18.6374 31.5614C17.3745 30.9913 16.3029 30.0689 15.5512 28.9049C14.7995 27.7409 14.3996 26.3847 14.3996 24.9991C14.3981 24.0737 14.5759 23.1567 14.9232 22.299ZM21.5995 23.3991C21.1751 23.3991 20.7682 23.5677 20.4681 23.8678C20.1681 24.1678 19.9995 24.5748 19.9995 24.9991C19.9995 25.4234 20.1681 25.8304 20.4681 26.1305C20.7682 26.4305 21.1751 26.5991 21.5995 26.5991C22.0238 26.5991 22.4308 26.4305 22.7308 26.1305C23.0309 25.8304 23.1995 25.4234 23.1995 24.9991C23.1995 24.5748 23.0309 24.1678 22.7308 23.8678C22.4308 23.5677 22.0238 23.3991 21.5995 23.3991ZM36.7761 25.7991H39.9751C39.9122 26.8851 39.7185 27.9595 39.3982 28.999H36.2631C36.5482 27.9538 36.7202 26.881 36.7761 25.7991ZM2.39985 28.199C2.55807 28.199 2.71274 28.246 2.8443 28.3339C2.97585 28.4218 3.07839 28.5467 3.13894 28.6929C3.19949 28.8391 3.21533 28.9999 3.18446 29.1551C3.15359 29.3103 3.0774 29.4528 2.96552 29.5647C2.85364 29.6766 2.7111 29.7528 2.55592 29.7836C2.40074 29.8145 2.23989 29.7987 2.09371 29.7381C1.94753 29.6776 1.82259 29.575 1.73469 29.4435C1.64678 29.3119 1.59986 29.1573 1.59986 28.999C1.60011 28.7869 1.68447 28.5836 1.83444 28.4336C1.98442 28.2837 2.18775 28.1993 2.39985 28.199ZM35.7299 30.599H38.7917C38.2668 31.755 37.583 32.8321 36.7601 33.7989H33.9848C34.6929 32.8062 35.2788 31.7318 35.7299 30.599ZM32.6721 35.3989H35.1529C33.331 36.9382 31.1352 37.9695 28.7872 38.3887C30.2345 37.6075 31.5463 36.5979 32.6721 35.3989ZM45.599 36.1989C45.1029 36.1995 44.6192 36.3537 44.2142 36.6401C43.8091 36.9266 43.5027 37.3313 43.3368 37.7989H40.3306L38.965 36.4333L37.8334 37.5645L39.4333 39.1645C39.5076 39.2388 39.5958 39.2977 39.6929 39.3379C39.79 39.3781 39.8941 39.3988 39.9991 39.3988H43.3368C43.4835 39.8136 43.7414 40.1801 44.0823 40.4582C44.4232 40.7363 44.834 40.9154 45.2698 40.9758C45.7056 41.0362 46.1496 40.9756 46.5533 40.8007C46.957 40.6258 47.3048 40.3433 47.5588 39.984C47.8128 39.6248 47.9631 39.2026 47.9934 38.7637C48.0236 38.3248 47.9326 37.886 47.7304 37.4953C47.5281 37.1046 47.2223 36.777 46.8464 36.5484C46.4705 36.3198 46.039 36.1989 45.599 36.1989ZM2.47387 36.2001C2.03093 36.1863 1.59284 36.2955 1.20813 36.5154C0.823428 36.7354 0.50714 37.0576 0.29432 37.4463C0.0814994 37.835 -0.019542 38.2751 0.00239306 38.7177C0.0243281 39.1603 0.168383 39.5882 0.418593 39.9539C0.668804 40.3197 1.0154 40.609 1.41997 40.7899C1.82453 40.9707 2.27128 41.036 2.71069 40.9785C3.15009 40.9211 3.56501 40.7431 3.90945 40.4642C4.25388 40.1854 4.5144 39.8166 4.66211 39.3988H7.99974C8.10482 39.3988 8.20888 39.3781 8.30596 39.3379C8.40304 39.2977 8.49125 39.2388 8.56555 39.1645L10.1655 37.5645L9.0339 36.4333L7.6683 37.7989H4.66211C4.50091 37.3429 4.20573 36.9463 3.81526 36.661C3.42478 36.3757 2.95723 36.2151 2.47387 36.2001ZM2.36665 37.7996C2.4744 37.7952 2.58194 37.8125 2.68281 37.8507C2.78368 37.8888 2.8758 37.947 2.95363 38.0216C3.03145 38.0963 3.09338 38.1859 3.13569 38.2851C3.178 38.3843 3.19982 38.491 3.19983 38.5989C3.19959 38.8109 3.11523 39.0143 2.96526 39.1643C2.81528 39.3142 2.61194 39.3986 2.39985 39.3988C2.19092 39.3983 1.99049 39.316 1.84141 39.1696C1.69234 39.0233 1.60645 38.8243 1.60211 38.6155C1.59778 38.4066 1.67533 38.2043 1.8182 38.0518C1.96107 37.8994 2.15792 37.8089 2.36665 37.7996ZM45.5658 37.7996C45.6736 37.7952 45.7811 37.8125 45.882 37.8507C45.9829 37.8888 46.075 37.947 46.1528 38.0216C46.2306 38.0963 46.2926 38.1859 46.3349 38.2851C46.3772 38.3843 46.399 38.491 46.399 38.5989C46.3988 38.8109 46.3144 39.0143 46.1644 39.1643C46.0145 39.3142 45.8111 39.3986 45.599 39.3988C45.3901 39.3983 45.1897 39.316 45.0406 39.1696C44.8915 39.0233 44.8056 38.8243 44.8013 38.6155C44.797 38.4066 44.8745 38.2043 45.0174 38.0518C45.1603 37.8994 45.3571 37.8089 45.5658 37.7996ZM30.9114 41.1842L29.8872 42.4134L33.7885 45.6645C33.5878 46.1395 33.5454 46.6664 33.6676 47.1673C33.7898 47.6683 34.07 48.1165 34.4668 48.4457C34.8636 48.7749 35.3559 48.9676 35.8708 48.9952C36.3856 49.0228 36.8957 48.8838 37.3254 48.5989C37.7551 48.314 38.0817 47.8982 38.2567 47.4132C38.4317 46.9282 38.4458 46.3998 38.297 45.9061C38.1482 45.4125 37.8444 44.9798 37.4306 44.6723C37.0167 44.3648 36.5148 44.1987 35.9992 44.1987C35.6048 44.1984 35.2165 44.2958 34.869 44.4823L30.9114 41.1842ZM16.2338 41.2332L13.0336 44.4333C12.5226 44.1892 11.9417 44.1336 11.3936 44.2763C10.8455 44.4191 10.3656 44.751 10.0386 45.2134C9.71155 45.6758 9.55854 46.239 9.60659 46.8033C9.65463 47.3676 9.90063 47.8968 10.3011 48.2973C10.7016 48.6977 11.2308 48.9437 11.7951 48.9918C12.3594 49.0398 12.9225 48.8868 13.385 48.5598C13.8474 48.2328 14.1793 47.7528 14.322 47.2048C14.4648 46.6567 14.4092 46.0758 14.1651 45.5647L17.3654 42.3644L16.2338 41.2332ZM23.1995 41.7988V44.3364C22.6657 44.5252 22.2158 44.8965 21.9294 45.3848C21.6429 45.8731 21.5383 46.447 21.6341 47.005C21.7298 47.563 22.0197 48.0691 22.4525 48.434C22.8854 48.799 23.4333 48.9991 23.9994 48.9991C24.5656 48.9991 25.1135 48.799 25.5463 48.434C25.9792 48.0691 26.2691 47.563 26.3648 47.005C26.4606 46.447 26.356 45.8731 26.0695 45.3848C25.783 44.8965 25.3332 44.5252 24.7994 44.3364V41.7988H23.1995ZM11.9665 45.7995C12.0742 45.795 12.1818 45.8124 12.2826 45.8505C12.3835 45.8887 12.4756 45.9468 12.5534 46.0215C12.6313 46.0961 12.6932 46.1857 12.7355 46.2849C12.7778 46.3841 12.7996 46.4909 12.7997 46.5987C12.7994 46.8108 12.715 47.0141 12.5651 47.1641C12.4151 47.3141 12.2118 47.3984 11.9997 47.3987C11.7907 47.3981 11.5903 47.3159 11.4412 47.1695C11.2922 47.0231 11.2063 46.8242 11.2019 46.6153C11.1976 46.4064 11.2752 46.2041 11.418 46.0517C11.5609 45.8992 11.7577 45.8087 11.9665 45.7995ZM23.9662 45.7995C24.074 45.795 24.1815 45.8124 24.2824 45.8505C24.3833 45.8887 24.4754 45.9468 24.5532 46.0215C24.631 46.0961 24.693 46.1857 24.7353 46.2849C24.7776 46.3841 24.7994 46.4909 24.7994 46.5987C24.7992 46.8108 24.7148 47.0141 24.5648 47.1641C24.4149 47.3141 24.2115 47.3984 23.9994 47.3987C23.7905 47.3981 23.5901 47.3159 23.441 47.1695C23.2919 47.0231 23.206 46.8242 23.2017 46.6153C23.1974 46.4064 23.2749 46.2041 23.4178 46.0517C23.5607 45.8992 23.7575 45.8087 23.9662 45.7995ZM35.966 45.7995C36.0738 45.795 36.1813 45.8124 36.2822 45.8505C36.383 45.8887 36.4752 45.9468 36.553 46.0215C36.6308 46.0961 36.6927 46.1857 36.7351 46.2849C36.7774 46.3841 36.7992 46.4909 36.7992 46.5987C36.799 46.8108 36.7146 47.0141 36.5646 47.1641C36.4146 47.3141 36.2113 47.3984 35.9992 47.3987C35.7903 47.3981 35.5899 47.3159 35.4408 47.1695C35.2917 47.0231 35.2058 46.8242 35.2015 46.6153C35.1971 46.4064 35.2747 46.2041 35.4176 46.0517C35.5604 45.8992 35.7573 45.8087 35.966 45.7995Z" fill="#42DF81"/>
</svg>
