<svg width="48" height="48" viewBox="0 0 48 48" fill="none" xmlns="http://www.w3.org/2000/svg">
<path d="M36.3356 0.000967297C35.2686 0.0215158 34.4228 0.369159 33.8841 1.02592L31.3315 4.13786C30.5805 5.05341 30.5474 6.45609 31.2178 8.05516C30.4673 8.00764 29.7153 8.12231 29.0134 8.39132L20.2842 11.7403C19.281 12.1276 18.4211 12.8121 17.8206 13.7015C17.22 14.5909 16.9077 15.6424 16.9256 16.7142L16.9327 17.0872L14.9089 18.5994C14.1608 19.1565 13.6581 19.9804 13.5062 20.8986L12.1803 28.8248C12.1367 29.0851 12.0566 29.3381 11.9423 29.5762L3.26486 47.6531L3.99282 48L12.6701 29.9228C12.817 29.6167 12.92 29.2915 12.976 28.9569L14.3019 21.0304C14.4201 20.3164 14.8111 19.6757 15.3929 19.2425L16.9402 18.0863V26.928C16.9402 27.0131 16.9673 27.096 17.0177 27.1648C17.068 27.2336 17.139 27.2847 17.2204 27.3107C17.3017 27.3367 17.3893 27.3362 17.4704 27.3095C17.5515 27.2827 17.622 27.2309 17.6717 27.1617L20.7961 22.8036C20.9699 22.5613 21.2275 22.3914 21.5193 22.3267C21.8112 22.262 22.1167 22.3071 22.3773 22.4531C22.6378 22.5992 22.835 22.8361 22.931 23.1182C23.027 23.4003 23.015 23.7078 22.8972 23.9816L21.8559 26.4022C21.3268 27.6312 20.4835 28.7004 19.4101 29.5032L18.8412 29.9282C18.1634 30.4354 17.6847 31.1626 17.4877 31.984L13.7242 47.7333L14.5089 47.9197L18.2726 32.1705C18.3602 31.8083 18.519 31.467 18.74 31.1665C19.1275 31.3602 19.5548 31.4615 19.9883 31.4622C20.3409 31.4615 20.6903 31.3959 21.019 31.2687C21.4703 31.0973 21.87 30.8136 22.18 30.4448C22.4901 30.0759 22.7003 29.634 22.7905 29.1613L23.2144 26.977C23.4317 25.8379 23.938 24.7732 24.6852 23.8842C25.4324 22.9952 26.3955 22.3116 27.4829 21.8984L30.5119 20.7361C31.5966 20.316 32.7712 20.1795 33.9238 20.3396C35.0764 20.4997 36.1687 20.9511 37.0967 21.6507L38.8815 22.9877C39.4436 23.4088 40.1422 23.6077 40.8426 23.5459C41.5431 23.4842 42.1959 23.1663 42.675 22.6534C43.1541 22.1405 43.4256 21.4691 43.4372 20.7685C43.4488 20.068 43.1997 19.388 42.7378 18.8596L39.81 15.5091C40.4824 15.719 41.1816 15.8312 41.8862 15.8423C42.9946 15.8423 43.8911 15.5005 44.45 14.8191L47.0024 11.707C47.7858 10.7517 47.7969 9.29235 47.0333 7.59793C46.3104 5.99359 44.9672 4.34048 43.2511 2.94316C41.5349 1.54585 39.6415 0.56368 37.9196 0.177385C37.3513 0.0498918 36.8206 -0.00837295 36.3356 0.000967297ZM18.8017 0.00312591C18.4808 -0.00354676 18.1362 0.0103929 17.7694 0.0455133C15.9484 0.219675 13.744 0.885708 11.5626 1.92096C9.38121 2.95612 7.4732 4.24167 6.18991 5.54057C4.81094 6.93631 4.29875 8.22216 4.74777 9.16136L6.4822 12.7898C6.86061 13.5814 7.86102 13.9998 9.33773 13.9998C9.61308 13.9998 9.90478 13.9852 10.2128 13.9558C12.0338 13.7816 14.2379 13.1157 16.4194 12.0806C18.6008 11.0454 20.509 9.75988 21.7923 8.46098C23.1713 7.06524 23.6834 5.77939 23.2344 4.8402L21.4998 1.21176C21.135 0.44858 20.192 0.0320412 18.8017 0.00312591ZM17.2216 2.43118L17.4655 3.19729C16.4789 3.51196 15.5151 3.89349 14.5808 4.3392C13.3702 4.90872 12.2143 5.58697 11.1273 6.36556L10.6518 5.7162C11.7783 4.90678 12.9774 4.20289 14.234 3.61351C15.2016 3.15194 16.1998 2.75691 17.2216 2.43118ZM21.4287 2.93198L22.5061 5.18577C22.8447 5.89424 22.113 7.16883 20.5321 8.53398L19.1566 5.65655C19.4824 5.384 19.785 5.10875 20.0577 4.83274C20.7172 4.16524 21.176 3.52334 21.4287 2.93198ZM33.2942 3.01538C33.3464 3.75048 33.536 4.4694 33.8531 5.13514C33.9471 5.3437 34.0516 5.55277 34.1665 5.76252L32.1705 8.19606C31.4187 6.68841 31.3376 5.40085 31.9562 4.64651L33.2942 3.01538ZM39.8271 4.43634C40.5837 4.75981 41.29 5.18941 41.9246 5.71208C43.1979 6.749 44.1083 8.03672 44.3598 9.15685L43.5727 9.33228C43.3625 8.39613 42.5354 7.24745 41.4142 6.33455C40.8402 5.86102 40.2013 5.47161 39.5167 5.17812L39.8271 4.43634ZM18.5088 6.1701L19.8889 9.05735C18.8096 9.8748 17.6528 10.5853 16.435 11.1787L15.0474 8.27593C16.2638 7.68165 17.4225 6.97671 18.5088 6.1701ZM34.6075 6.49507C35.3666 7.6291 36.2818 8.65128 37.3263 9.53166L35.9998 11.1489L34.8529 9.83622C34.3393 9.24923 33.7 8.78463 32.9822 8.47668L34.6075 6.49507ZM14.319 8.6217L15.7066 11.5243C14.4767 12.0924 13.1941 12.5395 11.8769 12.8593L10.4968 9.97221C11.8099 9.64021 13.0894 9.18812 14.319 8.6217ZM37.9509 10.0403C39.0248 10.8847 40.2125 11.5747 41.479 12.09L39.4639 14.5469C39.2107 14.4538 38.9526 14.3471 38.6899 14.2272L36.5373 11.7639L37.9509 10.0403ZM9.68812 10.1496L11.0637 13.0271C9.00357 13.3897 7.54918 13.1525 7.21056 12.4442L6.13417 10.1922C6.61325 10.3191 7.10763 10.3795 7.6033 10.3716C7.87865 10.3716 8.17038 10.3568 8.47839 10.3274C8.86537 10.2904 9.27042 10.2299 9.68812 10.1496ZM30.3256 11.3331L30.6155 12.0831L29.1098 12.6609L28.8198 11.9108L30.3256 11.3331ZM42.2874 12.3746C42.5162 12.4445 42.7427 12.505 42.9669 12.5557C43.4532 12.669 43.9506 12.7285 44.45 12.7331C44.6886 12.7336 44.9269 12.7157 45.1628 12.6797L43.8252 14.3104C43.2015 15.0709 41.8927 15.2341 40.2906 14.8093L42.2874 12.3746ZM33.4539 12.717L33.7438 13.467L32.2381 14.0447L31.9481 13.2947L33.4539 12.717ZM28.9366 14.45L29.2266 15.2L27.721 15.7775L27.4311 15.0275L28.9366 14.45ZM21.8128 15.0299L22.5374 16.9051L24.4195 16.1831L24.7095 16.933L22.8273 17.6551L23.5521 19.5304L22.7992 19.8192L22.0745 17.944L20.1924 18.6661L19.9025 17.9159L21.7846 17.194L21.0598 15.3187L21.8128 15.0299ZM32.0651 15.8336L32.3549 16.5839L30.8491 17.1614L30.5594 16.4114L32.0651 15.8336ZM8.45673 16.0789C6.84433 16.1061 4.73123 17.1814 2.88098 19.0627C0.189749 21.7992 -0.779348 25.0547 0.674636 26.4743L2.97946 28.7245C3.41401 29.1488 4.01321 29.3631 4.73063 29.3631C5.28201 29.3525 5.82784 29.2512 6.3461 29.0634C7.69266 28.6011 9.12245 27.6466 10.372 26.3761C13.0632 23.6397 14.0323 20.3842 12.5783 18.9646L10.2735 16.7144C9.81917 16.2708 9.18963 16.0666 8.45673 16.0789ZM10.9477 18.498L12.0136 19.5388C12.7045 20.2133 12.5728 21.7923 11.5344 23.5723L9.82067 21.8992C10.5602 20.6863 10.9547 19.4919 10.9477 18.498ZM9.36865 22.5831L11.0907 24.2644C10.703 24.8158 10.2698 25.3339 9.79566 25.8135C9.324 26.2955 8.81283 26.7375 8.26745 27.1348L6.54424 25.4524C7.08577 25.0505 7.5949 24.607 8.06694 24.1259C8.54042 23.6461 8.97564 23.1303 9.36865 22.5831ZM45.5833 24.1145C45.5491 24.1142 45.515 24.1183 45.4819 24.1267L44.822 24.2909C43.0813 24.7244 41.4146 25.4124 39.8762 26.3324L38.1114 27.3872C38.0243 27.4392 37.9601 27.5222 37.9317 27.6194C37.9033 27.7166 37.9127 27.8209 37.9582 27.9115L39.5717 31.1267C39.5981 31.1793 39.6358 31.2255 39.6822 31.2621C39.7285 31.2986 39.7823 31.3245 39.8399 31.3381C39.8974 31.3516 39.9572 31.3523 40.015 31.3403C40.0728 31.3282 40.1273 31.3037 40.1746 31.2684C42.2525 29.72 44.6503 28.6519 47.194 28.1415L47.2724 28.1258C47.3332 28.1137 47.3904 28.0877 47.4395 28.05C47.4887 28.0123 47.5284 27.9638 47.5556 27.9083C47.5829 27.8528 47.5969 27.7917 47.5966 27.73C47.5964 27.6682 47.5818 27.6073 47.5541 27.552L45.9406 24.3368C45.9074 24.2705 45.8565 24.2147 45.7934 24.1754C45.7304 24.1362 45.6576 24.1151 45.5833 24.1145ZM29.0735 24.1147C28.405 24.113 27.7576 24.3484 27.2473 24.7787C26.737 25.2091 26.3972 25.8064 26.2885 26.4637L25.6935 30.0069C25.4574 30.6553 25.4687 31.3676 25.7254 32.0082L26.3086 33.4607C26.504 33.9472 26.559 34.4784 26.4675 34.9943L24.207 47.7567L25.0016 47.8964L27.2619 35.134C27.3796 34.4707 27.3088 33.7877 27.0576 33.1622L26.4744 31.7097C26.3103 31.2993 26.2862 30.8464 26.406 30.4211C26.5257 29.9957 26.7826 29.6213 27.137 29.3558L28.2347 28.5355C28.5842 28.2755 29.0085 28.1346 29.4448 28.1336H31.4343C31.3595 28.6779 31.1331 29.1903 30.7809 29.6129C30.4286 30.0354 29.9646 30.3512 29.4414 30.5244L29.3174 30.5656C29.2671 30.5823 29.2206 30.6087 29.1805 30.6433C29.1405 30.6778 29.1077 30.7199 29.084 30.7672C29.0603 30.8144 29.0462 30.8658 29.0424 30.9184C29.0386 30.9711 29.0453 31.024 29.0621 31.0741L29.8688 33.4855L30.6342 33.2311L29.952 31.192C30.6383 30.9082 31.2247 30.428 31.6371 29.812C32.0494 29.1961 32.2691 28.4721 32.2684 27.7318C32.2684 27.6252 32.2259 27.5229 32.1503 27.4476C32.0746 27.3722 31.972 27.3299 31.865 27.3299H29.4448C28.8341 27.3311 28.2401 27.5284 27.7507 27.8925L26.7397 28.6478L27.0842 26.5963C27.1618 26.1268 27.4046 25.7002 27.7691 25.3928C28.1336 25.0854 28.596 24.9172 29.0735 24.9185H32.9259C33.4223 24.918 33.9015 25.1002 34.2714 25.4301C34.6413 25.76 34.876 26.2144 34.9303 26.706L35.3266 30.2591C35.3744 30.6785 35.3263 31.1033 35.1861 31.5016C35.0458 31.8999 34.817 32.2615 34.5167 32.5592L33.3316 33.74C32.9935 34.0751 32.7254 34.4737 32.5429 34.9127C32.3604 35.3517 32.2671 35.8224 32.2684 36.2975V47.8265H33.0752V36.2975C33.0742 35.928 33.1468 35.5618 33.2887 35.2204C33.4307 34.8789 33.6392 34.5689 33.9022 34.3083L35.0873 33.1275C35.4734 32.7447 35.7675 32.2799 35.9478 31.7678C36.1281 31.2557 36.1899 30.7096 36.1284 30.1704L35.7321 26.6173C35.656 25.929 35.3275 25.2929 34.8096 24.831C34.2917 24.3692 33.6209 24.1141 32.9259 24.1147H29.0735ZM5.86729 25.9169L7.58183 27.5911C5.81664 28.6615 4.23481 28.8248 3.54415 28.1503L2.48017 27.1116C3.01306 27.0947 3.53992 26.9939 4.04127 26.8132C4.68275 26.5859 5.29553 26.2852 5.86729 25.9169ZM6.85583 31.3488V32.1526H8.46933V31.3488H6.85583ZM46.3865 31.3488V32.1526H48V31.3488H46.3865ZM2.03169 32.153C1.93899 32.1492 1.84782 32.1774 1.77355 32.2329C1.69929 32.2883 1.64646 32.3675 1.62398 32.4572L1.1174 34.4763C0.749491 35.9256 0.673762 37.4332 0.894597 38.9119C1.11543 40.3906 1.62845 41.8109 2.40394 43.0907L2.47623 43.2106C2.52163 43.286 2.59057 43.3444 2.67249 43.377C2.7544 43.4096 2.84478 43.4145 2.92979 43.3911C3.01479 43.3676 3.08973 43.317 3.14313 43.2471C3.19654 43.1771 3.22546 43.0917 3.22547 43.0038V42.7279C3.22166 41.3385 3.49447 39.9623 4.0281 38.6787C4.56173 37.3951 5.34558 36.2297 6.33428 35.25C6.37763 35.2069 6.41053 35.1544 6.4305 35.0967C6.45046 35.0389 6.45696 34.9774 6.4495 34.9168C6.44201 34.8562 6.42074 34.7981 6.38733 34.7469C6.35392 34.6957 6.30924 34.6527 6.25668 34.6213L2.22294 32.2099C2.16498 32.1753 2.09922 32.1557 2.03169 32.153ZM43.8152 32.9564C43.7087 32.9568 43.6067 32.9991 43.5314 33.0741L40.3044 36.2893C40.2592 36.3343 40.2254 36.3894 40.2057 36.45C40.1861 36.5107 40.1812 36.575 40.1915 36.6379C40.2017 36.7008 40.2268 36.7603 40.2647 36.8116C40.3026 36.8629 40.3522 36.9045 40.4094 36.933L40.7737 37.1147C42.5752 38.011 44.0821 39.4013 45.1173 41.1221L45.891 42.4068C45.9334 42.4774 45.9965 42.5332 46.0719 42.5669C46.1472 42.6006 46.2311 42.6104 46.3122 42.595C46.3933 42.5797 46.4677 42.5399 46.5254 42.4811C46.5831 42.4223 46.6213 42.3473 46.6349 42.2661C46.8971 40.6929 46.8241 39.0822 46.4206 37.5389C46.0171 35.9956 45.2922 34.5541 44.293 33.3083L44.1317 33.1073C44.0938 33.06 44.0456 33.0219 43.9908 32.9958C43.936 32.9696 43.8759 32.9562 43.8152 32.9564ZM2.27454 33.1783L5.40857 35.0516C3.764 36.8337 2.73852 39.0956 2.48371 41.5031C1.52696 39.3551 1.32139 36.9494 1.89992 34.6711L2.27454 33.1783ZM43.7819 33.9613C45.3279 35.9626 46.1032 38.4494 45.9674 40.9711L45.8092 40.7086C44.7217 38.9007 43.1497 37.4308 41.2699 36.4641L43.7819 33.9613ZM22.1862 36.1716C22.1229 36.1712 22.0603 36.1857 22.0036 36.2139L18.7766 37.8215C18.6975 37.861 18.6336 37.9253 18.5947 38.0045C18.5558 38.0837 18.5442 38.1735 18.5616 38.2599L18.8678 39.7865C19.1813 41.3512 19.0801 42.9703 18.5744 44.4842C18.5405 44.5853 18.5484 44.6957 18.5962 44.7911C18.644 44.8864 18.7279 44.9589 18.8294 44.9927L21.2497 45.7964C21.3473 45.8289 21.4537 45.823 21.547 45.7798C21.6404 45.7366 21.7136 45.6595 21.7517 45.5643L22.367 44.0321C23.0476 42.3373 23.2481 40.489 22.9469 38.6885L22.5819 36.5073C22.5662 36.4139 22.518 36.3289 22.4456 36.2675C22.3732 36.2061 22.2813 36.1721 22.1862 36.1716ZM35.8988 36.1716V36.9753H37.5123V36.1716H35.8988ZM38.3365 39.3871C38.2807 39.3847 38.2249 39.3939 38.1728 39.4141C38.1207 39.4343 38.0734 39.4651 38.0338 39.5045L35.6136 41.9158C35.5684 41.9609 35.5345 42.0159 35.5149 42.0765C35.4953 42.1371 35.4903 42.2015 35.5006 42.2644C35.5108 42.3273 35.5359 42.3868 35.5738 42.4381C35.6116 42.4894 35.6612 42.531 35.7184 42.5595L36.0591 42.7292C36.8613 43.1255 37.5361 43.7378 38.0068 44.4967C38.4775 45.2555 38.7254 46.1306 38.7224 47.0227C38.7224 47.0838 38.7364 47.1441 38.7633 47.199C38.7902 47.2539 38.8293 47.3019 38.8776 47.3395C38.9259 47.3771 38.9822 47.4032 39.0421 47.4159C39.1021 47.4286 39.1642 47.4275 39.2237 47.4127L42.4506 46.6089C42.5512 46.5838 42.6382 46.5211 42.6936 46.4339C42.749 46.3466 42.7686 46.2415 42.7483 46.1403L42.3329 44.0703C42.0621 42.7179 41.2998 41.5127 40.1921 40.6858L38.5611 39.467C38.496 39.4184 38.4178 39.3906 38.3365 39.3871ZM44.773 45.817V46.6208H46.3865V45.817H44.773Z" fill="#42DF81"/>
</svg>
