<svg width="249" height="84" viewBox="0 0 249 84" fill="none" xmlns="http://www.w3.org/2000/svg">
<path fill-rule="evenodd" clip-rule="evenodd" d="M42.9234 0.0386422C44.3929 0.0386422 45.7077 0.0772848 46.8678 0.154569L50 81.3044C48.6852 81.5363 47.2544 81.6909 45.7077 81.7682C44.2382 81.8454 42.7688 81.8841 41.2993 81.8841H37.123C35.8082 81.8841 34.6868 81.9227 33.7587 82H33.6427C33.256 79.4496 32.9853 76.8219 32.8306 74.1169C32.7533 71.3346 32.6759 68.591 32.5986 65.886C32.5986 63.181 32.5599 60.476 32.4826 57.771C32.4219 55.6478 32.2897 51.5753 32.0861 48.7257C29.815 48.248 27.586 47.9156 25.3425 47.9156C23.3726 47.9156 21.4139 48.1719 19.4282 48.5577C19.0284 48.7826 18.6553 48.9478 18.3295 49.0264C18.0974 51.7314 17.9814 55.491 17.9814 58.1187L18.2135 66.0019C18.2908 68.6296 18.2908 71.2187 18.2135 73.7691C18.2135 76.2422 18.0201 78.7154 17.6334 81.1885C16.7053 81.7295 15.4679 82 13.9211 82C12.3743 82 10.8275 81.9227 9.28074 81.7682C7.73395 81.6136 6.2645 81.4976 4.87239 81.4204C3.55762 81.3431 2.5522 81.4976 1.85615 81.8841C1.70147 79.7201 1.50812 76.7832 1.2761 73.0735C1.12142 69.2865 0.966745 65.0745 0.812066 60.4373C0.657387 55.7229 0.502708 50.738 0.348029 45.4826L0.116008 29.7163C0.0386687 24.3836 0 19.2828 0 14.4138C0.0773394 9.46748 0.154677 5.02356 0.232016 1.082V0.966065H0.580045C1.74014 1.19792 2.9389 1.27521 4.17633 1.19793C5.49111 1.12064 6.76721 1.04335 8.00464 0.966065C9.31941 0.88878 10.5955 0.850137 11.8329 0.850137C13.0704 0.850137 14.2305 1.00471 15.3132 1.31385C16.0093 6.64656 16.3573 11.8247 16.3573 16.8483C16.3573 20.8485 16.6515 27.5973 17.24 32.6784C20.0751 33.1258 22.8295 33.429 25.3425 33.429C27.0845 33.429 28.9425 33.2833 30.863 33.0449C31.092 27.1966 31.2065 19.99 31.2065 16.7323C31.2838 12.0952 31.2065 6.99434 30.9745 1.42978C31.9025 1.12063 33.024 0.850137 34.3387 0.618283C35.7309 0.386424 37.1616 0.231854 38.6311 0.154569C40.1005 0 41.5313 -0.0386424 42.9234 0.0386422ZM125.299 0.627748C127.185 0.706215 129.896 0.706215 133.432 0.627748H136.261V1.09855C136.261 7.8468 136.143 14.6343 135.907 21.461C135.75 28.2877 135.593 35.1537 135.436 42.0589C135.357 48.8856 135.357 55.7123 135.436 62.539C135.514 69.3657 135.75 76.114 136.143 82.7837C135.514 83.4115 134.178 83.7646 132.135 83.8431C130.171 84 128.01 84.0392 125.652 83.9608C123.373 83.8823 121.173 83.7646 119.051 83.6077C116.93 83.5292 115.476 83.6077 114.69 83.8431C115.24 76.7809 115.476 69.6796 115.397 62.539C115.319 55.3984 115.162 48.3363 114.926 41.3526C114.769 34.2905 114.651 27.3461 114.572 20.5194C114.572 13.6142 114.926 6.86595 115.633 0.274638V0.0392365C116.026 -0.0392351 116.773 0 117.873 0.156937C119.051 0.235404 119.916 0.274638 120.466 0.274638C121.88 0.353105 123.491 0.470809 125.299 0.627748ZM92.3598 67.2471C97.389 67.4825 102.575 67.5217 107.919 67.3648V67.6002C108.076 70.1112 108.115 72.7398 108.037 75.4862C107.958 78.1541 107.605 80.6651 106.976 83.0191C98.9607 82.9407 90.7882 83.0584 82.4585 83.3723C74.2075 83.6077 66.2707 83.4115 58.6483 82.7837C58.6483 75.957 58.5697 69.2088 58.4126 62.539C58.2554 55.7908 58.1375 49.0817 58.0589 42.412C57.9804 35.7422 57.9804 29.0724 58.0589 22.4026C58.1375 15.7328 58.3733 9.02382 58.7662 2.27558C61.8309 2.11864 65.1313 2.00093 68.6675 1.92247C72.2822 1.76553 75.897 1.64783 79.5117 1.56936C83.1265 1.49089 86.6234 1.41242 90.0024 1.33396C93.3814 1.25549 96.3675 1.21626 98.9607 1.21626C101.554 1.21626 103.636 1.25549 105.208 1.33396C106.78 1.41242 107.565 1.49089 107.565 1.56936C107.958 4.31574 108.037 7.10136 107.801 9.9262C107.644 12.7511 107.565 15.5367 107.565 18.283V18.4007C105.051 18.95 102.497 19.3031 99.9037 19.4601C97.389 19.5385 94.8351 19.5778 92.2419 19.5778C89.6487 19.4993 87.0556 19.4601 84.4624 19.4601C81.8692 19.4601 79.276 19.5778 76.6828 19.8132H76.3292L76.2113 19.9309C76.2899 22.2064 76.172 24.5605 75.8577 26.993C75.6219 29.347 75.7791 31.5834 76.3292 33.702L76.447 33.8197C78.8045 33.9766 81.2012 34.0551 83.6373 34.0551C86.0733 34.0551 88.5093 34.0944 90.9453 34.1728V34.2905C91.3383 36.9584 91.4561 39.6263 91.299 42.2943C91.1418 44.9622 91.1025 47.7478 91.1811 50.6511C90.0024 50.965 88.6665 51.1611 87.1734 51.2396H82.8121C81.4763 51.2396 80.2582 51.2788 79.1581 51.3573C78.058 51.4358 77.3114 51.632 76.9185 51.9458C76.5256 54.2214 76.3685 56.7716 76.447 59.5965C76.6042 62.4213 76.7614 64.7753 76.9185 66.6586L77.0364 66.7763C82.2228 66.7763 87.3306 66.9332 92.3598 67.2471ZM195.287 27.5815C196.387 21.6964 195.916 16.8314 193.873 12.9865C191.83 9.14152 188.922 6.23821 185.15 4.27651C183.264 3.41336 181.182 2.70715 178.903 2.15787C176.703 1.60859 174.424 1.29472 172.066 1.21626C169.788 1.05932 167.509 1.13779 165.23 1.45166C162.951 1.68706 160.869 2.19711 158.983 2.98178C155.211 4.55114 151.989 6.94442 149.317 10.1616C146.724 13.3788 144.956 16.9491 144.013 20.8725C143.07 24.7959 143.109 28.837 144.131 32.9958C145.231 37.1546 147.588 40.9603 151.203 44.4129C152.303 45.3545 153.521 46.1784 154.857 46.8846C156.193 47.5908 157.647 48.1009 159.218 48.4148C160.869 48.7286 162.637 49.0817 164.523 49.4741C166.409 49.788 168.137 50.298 169.709 51.0042C171.359 51.7104 172.774 52.652 173.952 53.8291C175.131 54.9276 175.838 56.4185 176.074 58.3017C176.546 61.0481 175.996 63.0883 174.424 64.4222C172.931 65.7562 171.123 66.4624 169.002 66.5409C166.959 66.5409 164.994 65.9131 163.108 64.6576C161.301 63.4022 160.318 61.5189 160.161 59.0079C157.49 59.0864 154.503 59.0472 151.203 58.8902C147.903 58.6548 144.877 58.7333 142.127 59.1256V59.4788V59.8319C141.891 63.5983 142.559 66.9724 144.131 69.9542C145.702 72.8575 147.824 75.3293 150.496 77.3694C153.168 79.4096 156.193 81.0182 159.572 82.1952C163.03 83.2938 166.487 83.8823 169.945 83.9608C172.381 84.0392 174.738 83.8431 177.017 83.3723C179.375 82.823 181.536 81.9991 183.5 80.9005C185.543 79.802 187.351 78.3895 188.922 76.6632C190.494 74.937 191.751 72.8576 192.694 70.425C193.637 68.3849 194.305 66.2662 194.698 64.0691C195.169 61.7936 195.327 59.5572 195.169 57.3601C195.091 55.163 194.698 53.0444 193.991 51.0042C193.283 48.8856 192.223 46.9239 190.808 45.1191C188.529 41.745 185.582 38.9594 181.968 36.7623C178.432 34.5652 174.581 33.2312 170.416 32.7604C168.766 32.525 167.234 32.0934 165.819 31.4657C164.405 30.8379 163.383 29.5824 162.755 27.6992C162.676 27.1499 162.597 26.6399 162.519 26.1691C162.519 25.6198 162.597 25.0705 162.755 24.5213C163.069 22.3242 164.09 20.8333 165.819 20.0486C167.627 19.2639 169.473 19.0677 171.359 19.4601C173.245 19.8524 174.856 20.7548 176.192 22.1672C177.528 23.5796 177.96 25.3452 177.489 27.4638C180.239 28.2485 183.186 28.6016 186.329 28.5231C189.472 28.3662 192.419 28.0523 195.169 27.5815H195.287ZM223.854 0.392339C232.419 0.313872 240.749 0.70621 248.843 1.56936C249 4.1588 249.039 7.14059 248.961 10.5147C248.961 13.8888 248.764 16.9883 248.371 19.8132C246.878 19.4993 245.032 19.3816 242.831 19.4601C240.631 19.5385 237.684 19.6562 233.991 19.8132H233.755H233.637C233.637 19.8916 233.598 19.9701 233.519 20.0486V20.1663C233.441 20.5586 233.362 21.1864 233.284 22.0495V25.9337V32.8781C233.362 35.7029 233.441 39.3909 233.519 43.9421C233.598 48.4148 233.677 53.8291 233.755 60.185C233.834 66.4624 233.952 73.8776 234.109 82.4306V82.5483V82.666C232.694 82.9014 231.123 83.0584 229.394 83.1369H224.325H219.375C217.725 83.1369 216.192 83.2546 214.778 83.49C214.699 83.1761 214.699 81.7637 214.778 79.2527C214.856 76.7417 214.896 73.0145 214.896 68.071C214.974 63.049 214.935 56.6539 214.778 48.8856C214.699 41.1172 214.424 31.7403 213.953 20.7548L213.835 20.6371C212.892 20.1663 211.713 19.8916 210.299 19.8132C208.884 19.6562 207.47 19.5778 206.055 19.5778C204.641 19.4993 203.344 19.4601 202.165 19.4601C200.987 19.4601 200.161 19.3816 199.69 19.2247C199.533 18.9108 199.376 18.1261 199.219 16.8706C199.14 15.6151 199.061 14.1242 198.983 12.3979V6.63055C198.983 4.59038 199.061 2.62868 199.219 0.745446C199.219 0.666979 199.179 0.627748 199.101 0.627748V0.51004C207.116 0.431573 215.367 0.392339 223.854 0.392339Z" fill="white"/>
</svg>
