<svg width="24" height="24" viewBox="0 0 24 24" fill="none" xmlns="http://www.w3.org/2000/svg">
<g clip-path="url(#clip0_2004_727)">
<path d="M23.4281 10.605L13.395 0.571917C12.6619 -0.161208 11.3719 -0.179958 10.5563 0.573793L0.571891 10.605C-0.191234 11.3682 -0.196858 12.6094 0.571891 13.4438L10.5563 23.4282C10.9256 23.7957 11.4244 24 11.9588 24C12.4856 24 12.9919 23.8013 13.395 23.4282L23.3794 13.4438C24.1744 12.6469 24.1969 11.3738 23.4281 10.605ZM11.2313 6.91129C11.2313 6.81567 11.28 6.72004 11.4244 6.72004H12.5288C12.6244 6.72004 12.72 6.76879 12.72 6.91129V13.8713C12.72 13.9669 12.6713 14.0644 12.5288 14.0644H11.4244C11.3288 14.0644 11.2313 14.0157 11.2313 13.8713V6.91129ZM12.7688 17.1357C12.7688 17.2313 12.72 17.3269 12.5756 17.3269H11.4244C11.3288 17.3269 11.2331 17.28 11.2331 17.1357V15.84C11.2331 15.7444 11.28 15.6488 11.4244 15.6488H12.5756V15.6957C12.6731 15.6957 12.7688 15.7444 12.7688 15.8869V17.1357Z" fill="#FF8A00"/>
</g>
<defs>
<clipPath id="clip0_2004_727">
<rect width="24" height="24" fill="white"/>
</clipPath>
</defs>
</svg>
