<svg width="24" height="24" viewBox="0 0 24 24" fill="none" xmlns="http://www.w3.org/2000/svg">
<path d="M20.096 5.55679C18.1568 3.99839 15.0904 3.73439 14.9608 3.72319C14.756 3.70559 14.5616 3.82159 14.4776 4.00879C14.4744 4.01519 14.3032 4.51199 14.1376 4.99119C16.3912 5.38559 17.9224 6.26079 18.004 6.30879C18.3864 6.53119 18.5144 7.02159 18.2912 7.40319C18.1432 7.65759 17.8752 7.79999 17.6 7.79999C17.4632 7.79999 17.3256 7.76559 17.1992 7.69199C17.1768 7.67839 14.9304 6.39999 12.0016 6.39999C9.072 6.39999 6.8248 7.67919 6.8024 7.69199C6.4208 7.91359 5.9312 7.78319 5.7096 7.40079C5.488 7.01999 5.6168 6.53119 5.9976 6.30879C6.0792 6.26079 7.616 5.38239 9.876 4.98879C9.7016 4.50399 9.5256 4.01519 9.5224 4.00879C9.4384 3.82079 9.244 3.70239 9.0392 3.72319C8.9096 3.73359 5.8432 3.99759 3.8784 5.57759C2.8512 6.52639 0.800003 12.0736 0.800003 16.8696C0.800003 16.9544 0.821603 17.0368 0.864003 17.1104C2.2808 19.5984 6.1432 20.2496 7.0232 20.2776C7.0288 20.2784 7.0336 20.2784 7.0384 20.2784C7.1936 20.2784 7.34 20.204 7.432 20.0784L8.384 18.7888C6.296 18.2856 5.192 17.4944 5.1256 17.4456C4.7704 17.184 4.6936 16.6832 4.9552 16.3272C5.216 15.9728 5.7152 15.8944 6.0704 16.1544C6.1 16.1736 8.1376 17.6 12 17.6C15.8776 17.6 17.9096 16.168 17.9296 16.1536C18.2848 15.896 18.7856 15.9736 19.0456 16.3304C19.3048 16.6856 19.2296 17.1832 18.876 17.444C18.8096 17.4928 17.7112 18.2824 15.628 18.7856L16.568 20.0776C16.66 20.204 16.8064 20.2776 16.9616 20.2776C16.9672 20.2776 16.972 20.2776 16.9768 20.2768C17.8576 20.2488 21.72 19.5976 23.136 17.1096C23.1784 17.036 23.2 16.9536 23.2 16.8688C23.2 12.0736 21.1488 6.52639 20.096 5.55679ZM8.8 15.2C7.916 15.2 7.2 14.3048 7.2 13.2C7.2 12.0952 7.916 11.2 8.8 11.2C9.684 11.2 10.4 12.0952 10.4 13.2C10.4 14.3048 9.684 15.2 8.8 15.2ZM15.2 15.2C14.316 15.2 13.6 14.3048 13.6 13.2C13.6 12.0952 14.316 11.2 15.2 11.2C16.084 11.2 16.8 12.0952 16.8 13.2C16.8 14.3048 16.084 15.2 15.2 15.2Z" fill="white"/>
</svg>
