<svg width="24" height="24" viewBox="0 0 24 24" fill="none" xmlns="http://www.w3.org/2000/svg">
<path fill-rule="evenodd" clip-rule="evenodd" d="M6.011 14.307L2.92601 13.098C1.70601 12.62 1.687 10.9 2.895 10.393L20.349 3.09297C21.229 2.72497 22.162 3.48797 21.976 4.42297L18.997 19.384C18.722 20.765 17.041 21.312 16.006 20.357L13.155 17.727C12.886 17.479 12.476 17.467 12.194 17.699L9.966 19.528C9.287 20.086 8.26 19.787 7.986 18.952L6.699 15.034C6.589 14.702 6.33701 14.435 6.011 14.307ZM16.4311 8.80264L11.658 15.4754C11.658 15.4754 10.416 18.1772 9.79936 17.9907C9.56924 17.899 9.37327 17.7067 9.28723 17.4278L8.40842 14.5746C8.37565 14.4675 8.31692 14.3751 8.25 14.2913L15.9886 8.31836C16.287 8.08751 16.655 8.4895 16.4311 8.80264Z" fill="white"/>
</svg>
