<svg width="24" height="24" viewBox="0 0 24 24" fill="none" xmlns="http://www.w3.org/2000/svg">
<path d="M19 3H4.6C3.716 3 3 3.716 3 4.6V19C3 19.884 3.716 20.6 4.6 20.6H19C19.884 20.6 20.6 19.884 20.6 19V4.6C20.6 3.716 19.884 3 19 3ZM8.5632 17.4H6.2032V9.8064H8.5632V17.4ZM7.3592 8.7208C6.5984 8.7208 5.9832 8.104 5.9832 7.3448C5.9832 6.5856 6.5992 5.9696 7.3592 5.9696C8.1176 5.9696 8.7344 6.5864 8.7344 7.3448C8.7344 8.104 8.1176 8.7208 7.3592 8.7208ZM17.4032 17.4H15.0448V13.7072C15.0448 12.8264 15.0288 11.6936 13.8184 11.6936C12.5904 11.6936 12.4016 12.6528 12.4016 13.6432V17.4H10.0432V9.8064H12.3072V10.844H12.3392C12.6544 10.2472 13.424 9.6176 14.572 9.6176C16.9616 9.6176 17.4032 11.1904 17.4032 13.2352V17.4Z" fill="white"/>
</svg>
