<svg width="24" height="24" viewBox="0 0 24 24" fill="none" xmlns="http://www.w3.org/2000/svg">
<path d="M12 3.19995C8.6512 3.19995 4.30469 4.03901 4.30469 4.03901L4.29375 4.05151C2.76853 4.29544 1.6 5.60605 1.6 7.19995V12V12.0015V16.8V16.8015C1.60149 17.5627 1.87429 18.2985 2.36944 18.8767C2.86458 19.4549 3.54962 19.8376 4.30156 19.9562L4.30469 19.9609C4.30469 19.9609 8.6512 20.8015 12 20.8015C15.3488 20.8015 19.6953 19.9609 19.6953 19.9609L19.6969 19.9593C20.4496 19.841 21.1355 19.458 21.631 18.8791C22.1265 18.3002 22.3992 17.5635 22.4 16.8015V16.8V12.0015V12V7.19995C22.3989 6.43845 22.1262 5.70231 21.6311 5.1238C21.1359 4.54528 20.4506 4.16231 19.6984 4.0437L19.6953 4.03901C19.6953 4.03901 15.3488 3.19995 12 3.19995ZM9.6 8.3187L16 12L9.6 15.6812V8.3187Z" fill="white"/>
</svg>
