<svg width="16" height="16" viewBox="0 0 16 16" fill="none" xmlns="http://www.w3.org/2000/svg">
<path d="M16 0L15.9667 0.0332683C15.9347 4.02005 12.9831 7.99537 10.9902 9.98826C10.9902 11.9922 9.98826 14.998 7.98434 16V10.9902L5.98043 11.9922L4.00783 9.98826L5.00978 7.98434H0C1.00196 5.98043 4.00783 4.97847 6.01174 4.97847C8.00564 2.98558 11.9809 0.03402 15.9667 0.00195733H15.9687C15.9797 0.000955372 15.989 0 16 0ZM11.9922 2.97456C11.7264 2.97456 11.4716 3.08012 11.2837 3.26803C11.0958 3.45593 10.9902 3.71078 10.9902 3.97652C10.9902 4.24225 11.0958 4.4971 11.2837 4.68501C11.4716 4.87291 11.7264 4.97847 11.9922 4.97847C12.2579 4.97847 12.5128 4.87291 12.7007 4.68501C12.8886 4.4971 12.9941 4.24225 12.9941 3.97652C12.9941 3.71078 12.8886 3.45593 12.7007 3.26803C12.5128 3.08012 12.2579 2.97456 11.9922 2.97456ZM3.56751 10.5812L3.7593 10.773C3.7593 10.773 3.17221 11.4911 3.17221 12.7887V12.8004L3.182 12.8023C4.47953 12.8023 5.19765 12.2153 5.19765 12.2153L5.38748 12.4051C5.38748 12.4051 4.76997 13.9941 1.97652 13.9961H1.9726L1.97847 13.9922C1.98048 11.1977 3.56751 10.5812 3.56751 10.5812Z" fill="white"/>
</svg>
