<svg width="372" height="406" viewBox="0 0 372 406" fill="none" xmlns="http://www.w3.org/2000/svg">
<path d="M146.748 11.0535C170.879 -2.8772 200.609 -2.8772 224.74 11.0535L332.492 73.2582C356.623 87.1889 371.488 112.934 371.488 140.795V265.205C371.488 293.066 356.623 318.811 332.492 332.742L224.74 394.946C200.609 408.877 170.879 408.877 146.748 394.946L38.9961 332.742C14.8652 318.811 0 293.066 0 265.205V140.795C0 112.934 14.8652 87.1889 38.9961 73.2582L146.748 11.0535Z" fill="#AB56FF"/>
<path d="M127.916 97.5491C116.455 97.4601 105.541 102.498 95.8415 112.527C82.9744 125.966 72.4827 148.102 66.1481 175.178C60.4074 200.474 59.0217 226.559 62.7829 246.519C67.9297 275.176 78.6193 290.986 93.664 291.974C103.76 292.765 129.462 268.494 144.739 266.713C159.017 265.049 167.428 280.816 185.32 281.29C203.209 281.765 211.628 264.998 225.901 266.713C240.977 268.527 266.48 292.172 275.784 292.172H277.167C292.212 291.183 302.905 275.373 308.052 246.717C311.616 226.559 310.426 200.67 304.685 175.373C298.35 148.298 287.859 125.966 274.794 112.527C263.708 101.065 251.041 96.1222 237.778 97.9008C230.849 98.889 222.139 103.632 213.033 108.77C203.334 114.304 192.248 120.432 185.32 120.432C178.391 120.432 167.306 114.304 157.606 108.77C148.5 103.632 139.79 98.889 132.861 97.9008C131.202 97.6795 129.553 97.5629 127.916 97.5491Z" fill="white"/>
</svg>
