<svg width="32" height="35" viewBox="0 0 32 35" fill="none" xmlns="http://www.w3.org/2000/svg">
<path d="M12.6409 0.901039C14.7195 -0.300346 17.2805 -0.300346 19.3591 0.901039L28.6409 6.26559C30.7195 7.46697 32 9.68723 32 12.09V22.8191C32 25.2219 30.7195 27.4421 28.6409 28.6435L19.3591 34.0081C17.2805 35.2094 14.7195 35.2094 12.6409 34.0081L3.35913 28.6435C1.28049 27.4421 0 25.2219 0 22.8191V12.09C0 9.68723 1.28049 7.46697 3.35913 6.26559L12.6409 0.901039Z" fill="white" fill-opacity="0.2"/>
<path d="M16 7.4C15.1513 7.4 14.3374 7.73714 13.7373 8.33726C13.1372 8.93738 12.8 9.75131 12.8 10.6C12.801 11.3086 13.0373 11.9969 13.4716 12.5568C13.906 13.1167 14.5139 13.5166 15.2 13.6938V17.1422C14.5239 17.3845 13.988 17.921 13.7469 18.6H15.2H16.8H18.2531C18.012 17.921 17.4761 17.3845 16.8 17.1422V13.6953C17.4864 13.5181 18.0945 13.118 18.5289 12.5577C18.9633 11.9975 19.1993 11.3089 19.2 10.6C19.2 9.75131 18.8629 8.93738 18.2628 8.33726C17.6626 7.73714 16.8487 7.4 16 7.4ZM10.4 17C9.51601 17 8.80001 17.716 8.80001 18.6H12C12 17.716 11.284 17 10.4 17ZM8.80001 20.2C7.91601 20.2 7.20001 20.916 7.20001 21.8V24.2C7.20001 25.084 7.91601 25.8 8.80001 25.8H23.2C24.084 25.8 24.8 25.084 24.8 24.2V21.8C24.8 20.916 24.084 20.2 23.2 20.2H8.80001Z" fill="white"/>
</svg>
