<svg width="32" height="35" viewBox="0 0 32 35" fill="none" xmlns="http://www.w3.org/2000/svg">
<path d="M12.6409 0.901039C14.7195 -0.300346 17.2805 -0.300346 19.3591 0.901039L28.6409 6.26559C30.7195 7.46697 32 9.68723 32 12.09V22.8191C32 25.2219 30.7195 27.4421 28.6409 28.6435L19.3591 34.0081C17.2805 35.2094 14.7195 35.2094 12.6409 34.0081L3.35913 28.6435C1.28049 27.4421 0 25.2219 0 22.8191V12.09C0 9.68723 1.28049 7.46697 3.35913 6.26559L12.6409 0.901039Z" fill="white" fill-opacity="0.2"/>
<path d="M13.8 7.2C13.411 7.2 13.038 7.35452 12.7629 7.62958C12.4879 7.90463 12.3333 8.27768 12.3333 8.66667C12.3337 8.93518 12.4077 9.19845 12.5474 9.42777C12.687 9.6571 12.887 9.84368 13.1254 9.96719C13.199 10.3372 13.3441 10.6803 13.5436 10.987C12.0685 11.117 10.6229 11.3499 9.22241 11.6988C9.12893 11.7222 9.04095 11.7637 8.96351 11.821C8.88607 11.8783 8.82068 11.9503 8.77107 12.0329C8.72146 12.1155 8.68861 12.2071 8.67438 12.3023C8.66016 12.3976 8.66484 12.4948 8.68816 12.5883C8.71149 12.6818 8.75299 12.7697 8.81032 12.8472C8.86764 12.9246 8.93965 12.99 9.02224 13.0396C9.10484 13.0892 9.19639 13.1221 9.29168 13.1363C9.38698 13.1505 9.48414 13.1459 9.57762 13.1225C11.6347 12.61 13.7847 12.3333 16 12.3333C18.2153 12.3333 20.3653 12.61 22.4224 13.1225C22.5159 13.1459 22.6131 13.1506 22.7084 13.1364C22.8037 13.1222 22.8953 13.0893 22.9779 13.0397C23.0605 12.9901 23.1325 12.9247 23.1899 12.8473C23.2472 12.7698 23.2887 12.6818 23.3121 12.5883C23.3354 12.4948 23.3401 12.3977 23.3258 12.3023C23.3116 12.207 23.2787 12.1155 23.2291 12.0329C23.1795 11.9503 23.1141 11.8783 23.0366 11.8209C22.9591 11.7636 22.8711 11.7221 22.7776 11.6988C21.3772 11.3499 19.9316 11.117 18.4564 10.987C18.6557 10.6807 18.801 10.3381 18.8746 9.96862C19.1133 9.845 19.3133 9.6582 19.453 9.42859C19.5927 9.19899 19.6666 8.93542 19.6667 8.66667C19.6667 8.27768 19.5122 7.90463 19.2371 7.62958C18.962 7.35452 18.589 7.2 18.2 7.2C17.811 7.2 17.438 7.35452 17.1629 7.62958C16.8879 7.90463 16.7333 8.27768 16.7333 8.66667C16.7334 8.90687 16.7925 9.14338 16.9054 9.35542C17.0183 9.56745 17.1815 9.7485 17.3807 9.88268C17.1834 10.458 16.6482 10.8667 16 10.8667C15.3514 10.8667 14.8163 10.4572 14.6193 9.88125C14.8183 9.74721 14.9814 9.56638 15.0943 9.35461C15.2072 9.14285 15.2664 8.90663 15.2667 8.66667C15.2667 8.27768 15.1122 7.90463 14.8371 7.62958C14.562 7.35452 14.189 7.2 13.8 7.2ZM16 13.8201C13.6889 13.8201 11.3773 14.1525 9.11785 14.8169C8.27012 16.4317 7.20001 18.8992 7.20001 21.0889L7.20144 21.0918C7.20089 21.1056 7.20041 21.1195 7.20001 21.1333C7.20001 22.1058 7.58632 23.0384 8.27395 23.7261C8.96159 24.4137 9.89422 24.8 10.8667 24.8C10.9245 24.7995 10.9823 24.7975 11.04 24.7943H21.0202C21.0579 24.7968 21.0956 24.7987 21.1333 24.8C22.1058 24.8 23.0384 24.4137 23.7261 23.7261C24.4137 23.0384 24.8 22.1058 24.8 21.1333C24.7996 21.119 24.7991 21.1047 24.7986 21.0904L24.8 21.0889C24.8 21.0687 24.7973 21.0476 24.7971 21.0273C24.7948 20.9575 24.7905 20.8878 24.7843 20.8182C24.7028 18.6976 23.6954 16.3661 22.8822 14.8169C20.6228 14.1525 18.3111 13.8201 16 13.8201Z" fill="white"/>
</svg>
