<svg width="32" height="36" viewBox="0 0 32 36" fill="none" xmlns="http://www.w3.org/2000/svg">
<path d="M12.6409 1.81013C14.7195 0.608742 17.2805 0.608742 19.3591 1.81013L28.6409 7.17468C30.7195 8.37606 32 10.5963 32 12.9991V23.7282C32 26.131 30.7195 28.3512 28.6409 29.5526L19.3591 34.9171C17.2805 36.1185 14.7195 36.1185 12.6409 34.9171L3.35913 29.5526C1.28049 28.3512 0 26.131 0 23.7282V12.9991C0 10.5963 1.28049 8.37606 3.35913 7.17468L12.6409 1.81013Z" fill="white" fill-opacity="0.2"/>
<path d="M14.1978 9.2C10.0586 9.2 6.69092 12.5703 6.69092 16.7128C6.69092 20.8552 10.0586 24.2249 14.1978 24.2249C18.3369 24.2249 21.7046 20.8552 21.7046 16.7128C21.7046 12.5703 18.3369 9.2 14.1978 9.2ZM21.9289 12.7864C22.5298 13.9665 22.8709 15.2997 22.8709 16.7128C22.8709 21.4986 18.9801 25.3921 14.1978 25.3921C13.548 25.3921 12.9158 25.318 12.3063 25.1818C13.6831 26.3698 15.473 27.0909 17.4295 27.0909C21.7622 27.0909 25.2875 23.5635 25.2875 19.2273C25.2875 16.5654 23.9572 14.2097 21.9289 12.7864ZM14.3059 13.6505C14.9326 13.6505 15.3016 14.0284 15.3016 14.6229V18.9169C15.3016 19.4378 14.9529 19.774 14.4328 19.7737C13.9123 19.7737 13.5639 19.4378 13.5639 18.9169V15.2418H13.531L12.9039 15.6766C12.756 15.7795 12.6626 15.8123 12.4983 15.8123C12.1752 15.8123 11.9249 15.5701 11.9249 15.2257C11.9249 14.9838 12.0229 14.7868 12.2526 14.631L13.3269 13.9133C13.6707 13.6835 13.9693 13.6505 14.3059 13.6505Z" fill="white"/>
</svg>
