<svg width="32" height="36" viewBox="0 0 32 36" fill="none" xmlns="http://www.w3.org/2000/svg">
<path d="M12.6409 1.71921C14.7195 0.51783 17.2805 0.51783 19.3591 1.71922L28.6409 7.08377C30.7195 8.28515 32 10.5054 32 12.9082V23.6373C32 26.04 30.7195 28.2603 28.6409 29.4617L19.3591 34.8262C17.2805 36.0276 14.7195 36.0276 12.6409 34.8262L3.35913 29.4617C1.28049 28.2603 0 26.04 0 23.6373V12.9082C0 10.5054 1.28049 8.28515 3.35913 7.08377L12.6409 1.71921Z" fill="white" fill-opacity="0.2"/>
<path d="M16.8163 7.4606C16.689 7.46545 16.5633 7.49439 16.447 7.54772L5.89584 12.4644C5.41099 12.6874 5.19743 13.2598 5.42046 13.7447C5.42046 13.7447 7.21508 17.6333 8.30114 19.9606C8.35932 19.437 8.51326 18.9317 8.75569 18.4663C9.81265 16.459 12.4027 11.6492 12.4318 11.6008C12.9458 10.6504 13.9258 10.0686 14.9924 10.0686C15.4676 10.0686 15.9427 10.1845 16.3693 10.4076L19.6553 12.1633C18.705 10.1269 17.7349 8.0231 17.7349 8.0231C17.6282 7.79037 17.4259 7.60659 17.1932 7.51931C17.072 7.47568 16.9436 7.45575 16.8163 7.4606ZM15.0814 12.0136C14.7069 11.9786 14.3274 12.1667 14.1383 12.5231C14.1383 12.5231 11.5305 17.3508 10.4735 19.3678C9.22258 21.7533 12.4122 26.1463 13.411 27.436C13.5855 27.6493 13.8286 27.7859 14.1099 27.8053C14.5171 27.8344 15.1864 27.8735 15.9621 27.8735C18.2409 27.8735 21.5177 27.5422 22.4583 25.7579C23.5056 23.741 26.1042 18.9324 26.1042 18.9227C26.2302 18.6997 26.2594 18.4381 26.1818 18.186C26.1042 17.9436 25.9392 17.7304 25.7064 17.614L15.447 12.1254C15.3306 12.0623 15.2063 12.0253 15.0814 12.0136ZM16.6724 17.2617C16.7972 17.2726 16.9215 17.3086 17.0379 17.3716C17.513 17.6237 17.6877 18.2146 17.4356 18.6898C17.1835 19.1552 16.602 19.3396 16.1269 19.0875C15.6517 18.8354 15.477 18.2445 15.7292 17.7693C15.9183 17.4202 16.2978 17.229 16.6724 17.2617ZM20.0909 19.0932C20.2162 19.1048 20.3414 19.14 20.4602 19.203C20.9354 19.4551 21.1101 20.0482 20.858 20.5136C20.6058 20.9888 20.0147 21.1616 19.5492 20.9095C19.0741 20.6573 18.8994 20.0759 19.1515 19.6008C19.3406 19.2444 19.715 19.0582 20.0909 19.0932ZM15.214 20.7939L18.6288 22.6273C18.1245 23.5679 16.9501 23.927 16.0095 23.4227C15.0592 22.9185 14.7098 21.7345 15.214 20.7939Z" fill="white"/>
</svg>
