<svg width="32" height="35" viewBox="0 0 32 35" fill="none" xmlns="http://www.w3.org/2000/svg">
<path d="M12.6409 0.901039C14.7195 -0.300346 17.2805 -0.300346 19.3591 0.901039L28.6409 6.26559C30.7195 7.46697 32 9.68723 32 12.09V22.8191C32 25.2219 30.7195 27.4421 28.6409 28.6435L19.3591 34.0081C17.2805 35.2094 14.7195 35.2094 12.6409 34.0081L3.35913 28.6435C1.28049 27.4421 0 25.2219 0 22.8191V12.09C0 9.68723 1.28049 7.46697 3.35913 6.26559L12.6409 0.901039Z" fill="white" fill-opacity="0.2"/>
<path d="M19.2384 8.24229C19.0671 8.30804 18.9281 8.43641 18.8518 8.59923C18.7754 8.76204 18.768 8.94599 18.8311 9.11072L18.9238 9.36346L7.78195 19.1937L8.92878 22.3194L12.4001 22.3867L12.3621 22.9936C12.2923 24.0937 13.1673 25.0318 14.2984 25.0719L14.2997 25.0714L16.077 25.1341C17.2088 25.1742 18.1983 24.2992 18.268 23.1998L18.3121 22.5034L23.7844 22.611L23.8771 22.8638C23.9063 22.9471 23.9524 23.0235 24.0127 23.0886C24.073 23.1537 24.1464 23.2061 24.2285 23.2429C24.3106 23.2797 24.3999 23.3001 24.491 23.303C24.5822 23.3058 24.6736 23.291 24.7597 23.2594C24.8458 23.2278 24.9251 23.18 24.9928 23.1189C25.0605 23.0577 25.1154 22.9845 25.1542 22.9033C25.193 22.8221 25.215 22.7346 25.219 22.646C25.2229 22.5573 25.2086 22.4692 25.177 22.3869L20.1309 8.63379C20.1014 8.54971 20.0547 8.47267 19.9935 8.40721C19.9323 8.34175 19.8579 8.28922 19.7747 8.25271C19.6915 8.2162 19.6011 8.19647 19.509 8.19468C19.4168 8.19289 19.3248 8.20908 19.2384 8.24229ZM5.70417 19.5917C5.53296 19.6574 5.39393 19.7858 5.31757 19.9486C5.24121 20.1114 5.23377 20.2954 5.29689 20.4601L6.21435 22.9607C6.24352 23.0439 6.28961 23.1204 6.34993 23.1854C6.41025 23.2505 6.4836 23.303 6.56572 23.3398C6.64784 23.3766 6.73709 23.397 6.82828 23.3998C6.91947 23.4027 7.01078 23.3878 7.09692 23.3562C7.18305 23.3246 7.26228 23.2769 7.33001 23.2158C7.39774 23.1546 7.45261 23.0813 7.49144 23.0002C7.53027 22.919 7.55228 22.8315 7.55619 22.7429C7.5601 22.6542 7.54583 22.5661 7.51422 22.4837L6.59676 19.9832C6.56726 19.8991 6.52053 19.8221 6.45934 19.7566C6.39814 19.6911 6.32373 19.6386 6.2405 19.6021C6.15727 19.5656 6.06691 19.5459 5.97479 19.5441C5.88266 19.5423 5.79064 19.5585 5.70417 19.5917ZM13.7773 22.4148L16.9342 22.477L16.8922 23.1518C16.8683 23.5295 16.5502 23.8102 16.1623 23.7965L14.3838 23.7342C13.9952 23.7204 13.714 23.4186 13.7379 23.0416L13.7773 22.4148Z" fill="white"/>
</svg>
