<svg width="32" height="36" viewBox="0 0 32 36" fill="none" xmlns="http://www.w3.org/2000/svg">
<path d="M12.6409 1.81013C14.7195 0.608742 17.2805 0.608742 19.3591 1.81013L28.6409 7.17468C30.7195 8.37606 32 10.5963 32 12.9991V23.7282C32 26.131 30.7195 28.3512 28.6409 29.5526L19.3591 34.9171C17.2805 36.1185 14.7195 36.1185 12.6409 34.9171L3.35913 29.5526C1.28049 28.3512 0 26.131 0 23.7282V12.9991C0 10.5963 1.28049 8.37606 3.35913 7.17468L12.6409 1.81013Z" fill="white" fill-opacity="0.2"/>
<path d="M8.7596 9.05454C7.61872 9.05454 6.69092 9.98235 6.69092 11.1232V13.1919C6.69092 14.3328 7.61872 15.2606 8.7596 15.2606H10.8283C11.9692 15.2606 12.897 14.3328 12.897 13.1919V11.1232C12.897 9.98235 11.9692 9.05454 10.8283 9.05454H8.7596ZM21.1717 9.05454C20.0308 9.05454 19.103 9.98235 19.103 11.1232V13.1919C19.103 14.3328 20.0308 15.2606 21.1717 15.2606H23.2404C24.3813 15.2606 25.3091 14.3328 25.3091 13.1919V11.1232C25.3091 9.98235 24.3813 9.05454 23.2404 9.05454H21.1717ZM16 11.1232C15.4291 11.1232 14.9657 11.5866 14.9657 12.1576C14.9657 12.7285 15.4291 13.1919 16 13.1919C16.571 13.1919 17.0344 12.7285 17.0344 12.1576C17.0344 11.5866 16.571 11.1232 16 11.1232ZM9.79395 17.3293C9.22299 17.3293 8.7596 17.7927 8.7596 18.3636C8.7596 18.9346 9.22299 19.398 9.79395 19.398C10.3649 19.398 10.8283 18.9346 10.8283 18.3636C10.8283 17.7927 10.3649 17.3293 9.79395 17.3293ZM22.2061 17.3293C21.6351 17.3293 21.1717 17.7927 21.1717 18.3636C21.1717 18.9346 21.6351 19.398 22.2061 19.398C22.777 19.398 23.2404 18.9346 23.2404 18.3636C23.2404 17.7927 22.777 17.3293 22.2061 17.3293ZM8.7596 21.4667C7.61872 21.4667 6.69092 22.3945 6.69092 23.5353V25.604C6.69092 26.7449 7.61872 27.6727 8.7596 27.6727H10.8283C11.9692 27.6727 12.897 26.7449 12.897 25.604V23.5353C12.897 22.3945 11.9692 21.4667 10.8283 21.4667H8.7596ZM21.1717 21.4667C20.0308 21.4667 19.103 22.3945 19.103 23.5353V25.604C19.103 26.7449 20.0308 27.6727 21.1717 27.6727H23.2404C24.3813 27.6727 25.3091 26.7449 25.3091 25.604V23.5353C25.3091 22.3945 24.3813 21.4667 23.2404 21.4667H21.1717ZM16 23.5353C15.4291 23.5353 14.9657 23.9987 14.9657 24.5697C14.9657 25.1406 15.4291 25.604 16 25.604C16.571 25.604 17.0344 25.1406 17.0344 24.5697C17.0344 23.9987 16.571 23.5353 16 23.5353Z" fill="white"/>
</svg>
