<svg width="32" height="35" viewBox="0 0 32 35" fill="none" xmlns="http://www.w3.org/2000/svg">
<path d="M12.6409 0.901039C14.7195 -0.300346 17.2805 -0.300346 19.3591 0.901039L28.6409 6.26559C30.7195 7.46697 32 9.68723 32 12.09V22.8191C32 25.2219 30.7195 27.4421 28.6409 28.6435L19.3591 34.0081C17.2805 35.2094 14.7195 35.2094 12.6409 34.0081L3.35913 28.6435C1.28049 27.4421 0 25.2219 0 22.8191V12.09C0 9.68723 1.28049 7.46697 3.35913 6.26559L12.6409 0.901039Z" fill="#AB56FF"/>
<path d="M25.3091 8.14545L25.2704 8.18416C25.2331 12.8233 21.7985 17.4491 19.4795 19.7681C19.4795 22.1 18.3136 25.5977 15.9818 26.7636V20.9341L13.65 22.1L11.3546 19.7681L12.5205 17.4363H6.69092C7.85683 15.1045 11.3546 13.9386 13.6864 13.9386C16.0066 11.6196 20.6324 8.18503 25.2704 8.14772H25.2727C25.2855 8.14656 25.2963 8.14545 25.3091 8.14545ZM20.6454 11.6068C20.3362 11.6068 20.0397 11.7296 19.821 11.9482C19.6024 12.1669 19.4795 12.4634 19.4795 12.7727C19.4795 13.0819 19.6024 13.3784 19.821 13.5971C20.0397 13.8157 20.3362 13.9386 20.6454 13.9386C20.9547 13.9386 21.2512 13.8157 21.4699 13.5971C21.6885 13.3784 21.8114 13.0819 21.8114 12.7727C21.8114 12.4634 21.6885 12.1669 21.4699 11.9482C21.2512 11.7296 20.9547 11.6068 20.6454 11.6068ZM10.8422 20.4581L11.0654 20.6813C11.0654 20.6813 10.3822 21.5169 10.3822 23.0268V23.0404L10.3936 23.0427C11.9035 23.0427 12.7391 22.3596 12.7391 22.3596L12.96 22.5805C12.96 22.5805 12.2414 24.4295 8.99086 24.4318H8.98631L8.99314 24.4272C8.99547 21.1755 10.8422 20.4581 10.8422 20.4581Z" fill="white"/>
</svg>
