<svg width="32" height="35" viewBox="0 0 32 35" fill="none" xmlns="http://www.w3.org/2000/svg">
<path d="M12.6409 0.901039C14.7195 -0.300346 17.2805 -0.300346 19.3591 0.901039L28.6409 6.26559C30.7195 7.46698 32 9.68723 32 12.09V22.8191C32 25.2219 30.7195 27.4421 28.6409 28.6435L19.3591 34.0081C17.2805 35.2094 14.7195 35.2094 12.6409 34.0081L3.35913 28.6435C1.28049 27.4421 0 25.2219 0 22.8191V12.09C0 9.68723 1.28049 7.46697 3.35913 6.26559L12.6409 0.901039Z" fill="white" fill-opacity="0.2"/>
<path d="M16 5C15.4696 5 14.9609 5.21071 14.5858 5.58579C14.2107 5.96086 14 6.46957 14 7C14.0003 7.3508 14.0928 7.69537 14.2683 7.9991C14.4439 8.30284 14.6962 8.55507 15 8.73047V11H12C9.79101 11 8.00001 12.791 8.00001 15V19H7.00001C6.86749 18.9981 6.73593 19.0226 6.61296 19.072C6.48999 19.1214 6.37807 19.1948 6.2837 19.2878C6.18933 19.3809 6.1144 19.4918 6.06325 19.614C6.0121 19.7363 5.98576 19.8675 5.98576 20C5.98576 20.1325 6.0121 20.2637 6.06325 20.386C6.1144 20.5082 6.18933 20.6191 6.2837 20.7122C6.37807 20.8052 6.48999 20.8786 6.61296 20.928C6.73593 20.9774 6.86749 21.0019 7.00001 21H8.00001V23C8.00001 24.105 8.89501 25 10 25H22C23.105 25 24 24.105 24 23V21H25C25.1325 21.0019 25.2641 20.9774 25.387 20.928C25.51 20.8786 25.6219 20.8052 25.7163 20.7122C25.8107 20.6191 25.8856 20.5082 25.9368 20.386C25.9879 20.2637 26.0142 20.1325 26.0142 20C26.0142 19.8675 25.9879 19.7363 25.9368 19.614C25.8856 19.4918 25.8107 19.3809 25.7163 19.2878C25.6219 19.1948 25.51 19.1214 25.387 19.072C25.2641 19.0226 25.1325 18.9981 25 19H24V15C24 12.791 22.209 11 20 11H17V8.72852C17.3035 8.55328 17.5557 8.30136 17.7312 7.998C17.9067 7.69463 17.9994 7.35047 18 7C18 6.46957 17.7893 5.96086 17.4142 5.58579C17.0391 5.21071 16.5304 5 16 5ZM12.5 15C13.328 15 14 15.672 14 16.5C14 17.328 13.328 18 12.5 18C11.672 18 11 17.328 11 16.5C11 15.672 11.672 15 12.5 15ZM19.5 15C20.328 15 21 15.672 21 16.5C21 17.328 20.328 18 19.5 18C18.672 18 18 17.328 18 16.5C18 15.672 18.672 15 19.5 15ZM14 21H18C18.552 21 19 21.448 19 22C19 22.552 18.552 23 18 23H14C13.448 23 13 22.552 13 22C13 21.448 13.448 21 14 21Z" fill="white"/>
</svg>
