<svg width="32" height="35" viewBox="0 0 32 35" fill="none" xmlns="http://www.w3.org/2000/svg">
<path d="M12.6409 0.901039C14.7195 -0.300346 17.2805 -0.300346 19.3591 0.901039L28.6409 6.26559C30.7195 7.46697 32 9.68723 32 12.09V22.8191C32 25.2219 30.7195 27.4421 28.6409 28.6435L19.3591 34.0081C17.2805 35.2094 14.7195 35.2094 12.6409 34.0081L3.35913 28.6435C1.28049 27.4421 0 25.2219 0 22.8191V12.09C0 9.68723 1.28049 7.46697 3.35913 6.26559L12.6409 0.901039Z" fill="white" fill-opacity="0.2"/>
<path d="M10.0256 8C9.7975 8 9.56935 8.09842 9.41235 8.29492L7.11352 11.1699C6.84552 11.5049 7.082 12 7.51 12H9.02563V21C9.02563 23.1973 10.8283 25 13.0256 25C15.223 25 17.0256 23.1973 17.0256 21V13C17.0256 11.8833 17.909 11 19.0256 11C20.1423 11 21.0256 11.8833 21.0256 13V22H19.5373C19.1093 22 18.8709 22.4951 19.1389 22.8301L21.4377 25.7051C21.7527 26.0981 22.3523 26.0981 22.6663 25.7051L24.9651 22.8301C25.2331 22.4951 24.9956 22 24.5666 22H23.0256V13C23.0256 10.8027 21.223 9 19.0256 9C16.8283 9 15.0256 10.8027 15.0256 13V21C15.0256 22.1167 14.1423 23 13.0256 23C11.909 23 11.0256 22.1167 11.0256 21V12H12.5413C12.9693 12 13.2067 11.5049 12.9397 11.1699L10.6389 8.29492C10.4814 8.09842 10.2538 8 10.0256 8Z" fill="white"/>
</svg>
