<svg width="321" height="58" viewBox="0 0 321 58" fill="none" xmlns="http://www.w3.org/2000/svg">
<path d="M21.0397 1.49704C24.4994 -0.499013 28.762 -0.499012 32.2217 1.49704L47.6704 10.41C51.1301 12.4061 53.2614 16.0949 53.2614 20.087V37.913C53.2614 41.9051 51.1301 45.5939 47.6704 47.59L32.2217 56.5029C28.762 58.499 24.4994 58.499 21.0397 56.5029L5.59099 47.59C2.13127 45.5939 0 41.9051 0 37.913V20.087C0 16.0949 2.13128 12.4061 5.591 10.41L21.0397 1.49704Z" fill="#AB56FF"/>
<path d="M18.3398 13.8905C16.6965 13.8778 15.1318 14.5996 13.7411 16.0367C11.8963 17.9622 10.3921 21.134 9.4839 25.0135C8.66083 28.6381 8.46216 32.3757 9.00141 35.2357C9.73933 39.3417 11.2719 41.607 13.4289 41.7486C14.8764 41.8619 18.5615 38.3843 20.7517 38.1291C22.7988 37.8907 24.0048 40.1498 26.5699 40.2178C29.1347 40.2858 30.3418 37.8833 32.3881 38.1291C34.5496 38.3891 38.206 41.7769 39.54 41.7769H39.7384C41.8954 41.6353 43.4285 39.37 44.1664 35.264C44.6773 32.3757 44.5067 28.6661 43.6837 25.0415C42.7755 21.1621 41.2712 17.9622 39.3981 16.0367C37.8087 14.3943 35.9926 13.6861 34.091 13.9409C33.0976 14.0825 31.8488 14.7621 30.5433 15.4984C29.1526 16.2913 27.5632 17.1694 26.5699 17.1694C25.5765 17.1694 23.9872 16.2913 22.5965 15.4984C21.2909 14.7621 20.0421 14.0825 19.0488 13.9409C18.8109 13.9092 18.5745 13.8925 18.3398 13.8905Z" fill="white"/>
<path d="M70.4213 31.343V8.77965H78.6043L81.9893 19.7493C82.1207 20.1216 82.2631 20.6033 82.4165 21.1944C82.5918 21.7856 82.7561 22.3878 82.9095 23.0008C83.0847 23.6139 83.2271 24.1503 83.3367 24.6102H83.5996C83.6872 24.216 83.7968 23.7453 83.9282 23.1979C84.0816 22.6286 84.235 22.0374 84.3883 21.4243C84.5636 20.8113 84.7279 20.242 84.8813 19.7165L88.2662 8.77965H96.285V31.343H90.9282V20.4719C90.9282 19.618 90.9391 18.764 90.9611 17.9101C90.983 17.0343 91.0049 16.246 91.0268 15.5454C91.0487 14.8447 91.0596 14.3521 91.0596 14.0674H90.7967C90.731 14.374 90.6105 14.8338 90.4352 15.4469C90.2819 16.038 90.1176 16.673 89.9423 17.3518C89.767 18.0086 89.6027 18.5779 89.4493 19.0596L85.5386 31.343H80.839L76.9283 19.0596C76.7749 18.5998 76.6106 18.0743 76.4353 17.4831C76.282 16.8701 76.1286 16.257 75.9752 15.6439C75.8219 15.0308 75.6904 14.5053 75.5809 14.0674H75.318C75.3399 14.571 75.3618 15.1951 75.3837 15.9395C75.4056 16.684 75.4165 17.4503 75.4165 18.2385C75.4385 19.0268 75.4494 19.7712 75.4494 20.4719V31.343H70.4213Z" fill="white"/>
<path d="M101.488 31.343V8.77965H120.911V13.0821H106.878V17.7459H119.235V21.9827H106.878V27.0406H121.108V31.343H101.488Z" fill="white"/>
<path d="M131.574 31.343V13.2792H123.687V8.77965H144.884V13.2792H136.964V31.343H131.574Z" fill="white"/>
<path d="M142.931 31.343L152.133 8.77965H158.574L167.842 31.343H161.992L160.382 27.1391H150.096L148.485 31.343H142.931ZM151.673 22.968H158.804L156.8 17.713C156.712 17.4941 156.603 17.2094 156.471 16.8591C156.34 16.4869 156.208 16.0928 156.077 15.6768C155.945 15.2388 155.814 14.8228 155.682 14.4287C155.551 14.0346 155.441 13.6952 155.354 13.4106H155.124C154.992 13.8485 154.828 14.3411 154.631 14.8885C154.456 15.414 154.28 15.9395 154.105 16.465C153.93 16.9686 153.776 17.3956 153.645 17.7459L151.673 22.968Z" fill="white"/>
<path d="M180.884 31.7372C177.072 31.7372 174.169 30.7847 172.175 28.8798C170.182 26.9749 169.185 24.0409 169.185 20.0778C169.185 17.4503 169.678 15.2826 170.664 13.5748C171.65 11.845 173.074 10.5532 174.936 9.69926C176.82 8.82344 179.077 8.38553 181.706 8.38553C183.305 8.38553 184.795 8.56069 186.175 8.91102C187.577 9.23946 188.804 9.754 189.856 10.4547C190.93 11.1334 191.751 11.9874 192.321 13.0164C192.912 14.0455 193.208 15.2607 193.208 16.6621H187.851C187.851 16.0271 187.687 15.4578 187.358 14.9542C187.052 14.4506 186.624 14.0346 186.077 13.7062C185.529 13.3558 184.894 13.104 184.171 12.9508C183.448 12.7756 182.692 12.688 181.903 12.688C180.742 12.688 179.712 12.8303 178.814 13.115C177.916 13.3996 177.16 13.8375 176.546 14.4287C175.955 14.998 175.506 15.7096 175.199 16.5635C174.892 17.4175 174.739 18.4137 174.739 19.5523V20.6033C174.739 22.1579 174.991 23.4497 175.495 24.4788C176.02 25.486 176.787 26.2304 177.795 26.7121C178.825 27.1938 180.074 27.4347 181.542 27.4347C182.834 27.4347 183.952 27.2705 184.894 26.942C185.858 26.6136 186.603 26.1319 187.128 25.4969C187.654 24.8401 187.917 24.0628 187.917 23.165V22.9351H180.95V18.9939H193.241V31.343H189.889L189.396 28.847C188.673 29.5038 187.884 30.0512 187.03 30.4891C186.197 30.9051 185.266 31.2117 184.236 31.4087C183.229 31.6277 182.111 31.7372 180.884 31.7372Z" fill="white"/>
<path d="M195.918 31.343L205.119 8.77965H211.561L220.828 31.343H214.979L213.368 27.1391H203.082L201.472 31.343H195.918ZM204.659 22.968H211.791L209.786 17.713C209.698 17.4941 209.589 17.2094 209.457 16.8591C209.326 16.4869 209.195 16.0928 209.063 15.6768C208.932 15.2388 208.8 14.8228 208.669 14.4287C208.537 14.0346 208.428 13.6952 208.34 13.4106H208.11C207.979 13.8485 207.814 14.3411 207.617 14.8885C207.442 15.414 207.266 15.9395 207.091 16.465C206.916 16.9686 206.763 17.3956 206.631 17.7459L204.659 22.968Z" fill="white"/>
<path d="M223.732 31.343V8.77965H237.731C239.375 8.77965 240.744 9.09714 241.839 9.73211C242.935 10.3452 243.756 11.1882 244.304 12.261C244.852 13.312 245.126 14.5163 245.126 15.8738C245.126 17.3189 244.786 18.6108 244.107 19.7493C243.45 20.8879 242.486 21.7747 241.215 22.4096L245.849 31.343H239.835L235.891 23.3293H229.121V31.343H223.732ZM229.121 19.1253H236.68C237.6 19.1253 238.323 18.8516 238.849 18.3042C239.375 17.7349 239.638 16.9686 239.638 16.0052C239.638 15.3702 239.517 14.8338 239.276 14.3959C239.035 13.958 238.695 13.6295 238.257 13.4106C237.819 13.1697 237.293 13.0493 236.68 13.0493H229.121V19.1253Z" fill="white"/>
<path d="M249.438 31.343V8.77965H259.462C261.938 8.77965 264.041 9.19567 265.772 10.0277C267.524 10.8378 268.861 12.0749 269.781 13.739C270.723 15.4031 271.194 17.516 271.194 20.0778C271.194 22.5958 270.723 24.6977 269.781 26.3837C268.861 28.0478 267.524 29.2958 265.772 30.1278C264.041 30.938 261.938 31.343 259.462 31.343H249.438ZM254.828 27.0406H259.33C260.338 27.0406 261.225 26.8982 261.992 26.6136C262.781 26.329 263.438 25.9239 263.964 25.3984C264.512 24.851 264.928 24.1722 265.213 23.3621C265.498 22.552 265.64 21.6214 265.64 20.5704V19.5523C265.64 18.5013 265.498 17.5707 265.213 16.7606C264.928 15.9505 264.512 15.2826 263.964 14.7571C263.438 14.2098 262.781 13.7937 261.992 13.5091C261.225 13.2245 260.338 13.0821 259.33 13.0821H254.828V27.0406Z" fill="white"/>
<path d="M275.403 31.343V8.77965H294.825V13.0821H280.792V17.7459H293.149V21.9827H280.792V27.0406H295.022V31.343H275.403Z" fill="white"/>
<path d="M299.376 31.343V8.77965H304.272L313.836 20.3077C314.011 20.4609 314.219 20.6908 314.46 20.9974C314.701 21.3039 314.942 21.6105 315.183 21.917C315.424 22.2235 315.61 22.4863 315.742 22.7052L315.939 22.6724C315.917 22.2564 315.906 21.8294 315.906 21.3915C315.906 20.9536 315.906 20.5704 315.906 20.242V8.77965H321V31.343H316.136L306.376 19.5851C306.047 19.2129 305.718 18.8078 305.39 18.3699C305.061 17.932 304.809 17.5926 304.634 17.3518L304.437 17.3846C304.437 17.6912 304.437 18.0524 304.437 18.4684C304.459 18.8845 304.47 19.2895 304.47 19.6836V31.343H299.376Z" fill="white"/>
<path d="M75.3501 41.3966C76.7304 41.3966 78.14 42.0863 78.8448 43.2896C78.9036 43.3924 78.8889 43.4657 78.8155 43.5244L77.8904 44.2288C77.7876 44.3315 77.6701 44.2728 77.6114 44.1995C77.0094 43.3777 76.3486 43.0108 75.3501 43.0108C73.8817 43.0108 72.9126 44.0381 72.9126 45.4908C72.9126 46.9436 73.8964 48.0149 75.3501 48.0149C76.3486 48.0149 77.0534 47.6627 77.6555 46.7822C77.7289 46.7088 77.8023 46.7088 77.8904 46.7822L78.8155 47.516C78.8889 47.5893 78.9036 47.6774 78.8448 47.7508C78.096 48.9834 76.8185 49.6291 75.3501 49.6291C73.0007 49.6291 71.2093 47.8535 71.2093 45.4908C71.2093 43.1282 73.0007 41.3966 75.3501 41.3966Z" fill="white"/>
<path d="M95.8674 41.514H97.1595C97.2917 41.514 97.3651 41.5874 97.3651 41.7195V44.5517H101.007V41.7195C101.007 41.5874 101.08 41.514 101.212 41.514H102.504C102.637 41.514 102.71 41.5874 102.71 41.7195V49.3063C102.71 49.4383 102.637 49.5117 102.504 49.5117H101.212C101.08 49.5117 101.007 49.4383 101.007 49.3063V46.1659H97.3651V49.3063C97.3651 49.4383 97.2917 49.5117 97.1595 49.5117H95.8674C95.7352 49.5117 95.6618 49.4383 95.6618 49.3063V41.7195C95.6618 41.5874 95.7352 41.514 95.8674 41.514Z" fill="white"/>
<path d="M126.472 49.3063L125.914 47.9268H121.92L121.362 49.3356C121.318 49.453 121.23 49.5117 121.112 49.5117H119.658C119.512 49.5117 119.468 49.4383 119.512 49.3063L122.977 41.6314C123.006 41.558 123.065 41.514 123.168 41.514H124.842C124.945 41.514 125.003 41.558 125.033 41.6314L128.337 49.2769C128.381 49.3943 128.307 49.5117 128.175 49.5117H126.78C126.633 49.5117 126.53 49.4383 126.472 49.3063ZM123.873 43.0989L122.536 46.386H125.326L124.034 43.0989H123.873Z" fill="white"/>
<path d="M145.332 41.514H146.624C146.757 41.514 146.83 41.5874 146.83 41.7195V49.3063C146.83 49.4383 146.757 49.5117 146.624 49.5117H145.332C145.2 49.5117 145.127 49.4383 145.127 49.3063V41.7195C145.127 41.5874 145.2 41.514 145.332 41.514Z" fill="white"/>
<path d="M171.072 49.5117H169.868C169.765 49.5117 169.692 49.4824 169.648 49.409L167.636 46.8703L165.61 44.0087L165.536 44.0234L165.639 46.4887V49.3063C165.639 49.4383 165.566 49.5117 165.434 49.5117H164.185C164.053 49.5117 163.98 49.4383 163.98 49.3063V41.7195C163.98 41.5874 164.053 41.514 164.185 41.514H165.316C165.434 41.514 165.522 41.5434 165.595 41.6167L167.798 44.4049L169.648 47.017L169.721 47.0023L169.618 44.5223V41.7195C169.618 41.5874 169.692 41.514 169.824 41.514H171.072C171.204 41.514 171.278 41.5874 171.278 41.7195V49.3063C171.278 49.4383 171.204 49.5117 171.072 49.5117Z" fill="white"/>
</svg>
