<svg width="256" height="40" viewBox="0 0 256 40" fill="none" xmlns="http://www.w3.org/2000/svg">
<path d="M13.9008 1.01946C16.1867 -0.339821 19.0029 -0.339821 21.2887 1.01946L31.4956 7.08908C33.7814 8.44837 35.1896 10.9604 35.1896 13.679V25.8182C35.1896 28.5368 33.7814 31.0489 31.4956 32.4082L21.2887 38.4778C19.0029 39.8371 16.1867 39.8371 13.9008 38.4778L3.69395 32.4082C1.40812 31.0489 0 28.5368 0 25.8182V13.679C0 10.9604 1.40812 8.44837 3.69395 7.08908L13.9008 1.01946Z" fill="#AB56FF"/>
<path d="M12.0817 10.054C10.9819 10.0455 9.93478 10.5288 9.00407 11.491C7.76944 12.7802 6.76275 14.9039 6.15494 17.5013C5.60411 19.9282 5.47115 22.4307 5.83204 24.3456C6.32589 27.0947 7.35157 28.6115 8.79513 28.7063C9.76383 28.7821 12.23 26.4537 13.6958 26.2829C15.0659 26.1232 15.8729 27.6358 17.5896 27.6813C19.3061 27.7268 20.1139 26.1183 21.4834 26.2829C22.93 26.4569 25.377 28.7253 26.2698 28.7253H26.4025C27.8461 28.6305 28.8722 27.1137 29.366 24.3645C29.7079 22.4307 29.5937 19.947 29.0429 17.5201C28.4351 14.9226 27.4284 12.7802 26.1748 11.491C25.1111 10.3913 23.8957 9.91712 22.6231 10.0878C21.9583 10.1826 21.1225 10.6376 20.2488 11.1305C19.3181 11.6614 18.2544 12.2493 17.5896 12.2493C16.9248 12.2493 15.8612 11.6614 14.9304 11.1305C14.0567 10.6376 13.221 10.1826 12.5562 10.0878C12.397 10.0665 12.2388 10.0553 12.0817 10.054Z" fill="white"/>
<path d="M48.8783 33.0341V7.36092H58.2739L63.0949 21.0413L67.9159 7.36092H77.1355V33.0341H69.9568V17.0557L63.7987 33.0341H61.4058L55.318 17.0557V33.0341H48.8783Z" fill="white"/>
<path d="M90.2453 33.465C84.4742 33.465 80.2514 30.018 80.2514 23.8779V23.5907C80.2514 17.5584 84.6501 13.7523 90.2101 13.7523C95.2422 13.7523 99.5705 16.6966 99.5705 23.4471V25.1347H86.6208C86.7967 27.6122 88.2043 29.0485 90.4564 29.0485C92.5326 29.0485 93.4123 28.079 93.6587 26.8223H99.5705C99.0075 31.0593 95.8052 33.465 90.2453 33.465ZM86.6911 21.5081H93.4475C93.342 19.246 92.2511 17.9893 90.2101 17.9893C88.3099 17.9893 87.0078 19.246 86.6911 21.5081Z" fill="white"/>
<path d="M109.587 33.465C105.435 33.465 103.113 31.4183 103.113 27.0018V18.6356H100.896V14.255H103.113V10.3412H109.412V14.255H113.036V18.6356H109.412V26.3914C109.412 27.7559 110.08 28.3663 111.277 28.3663C111.98 28.3663 112.508 28.2585 113.071 28.0431V32.9264C112.262 33.1418 111.065 33.465 109.587 33.465Z" fill="white"/>
<path d="M121.187 33.465C117.879 33.465 114.958 31.8133 114.958 27.8277C114.958 23.4112 118.618 21.6876 124.741 21.6876H126.5V21.2568C126.5 19.4614 126.078 18.2765 124.072 18.2765C122.348 18.2765 121.715 19.3178 121.574 20.5027H115.662C115.944 15.9785 119.427 13.7523 124.459 13.7523C129.527 13.7523 132.764 15.8708 132.764 20.8618V33.0341H126.641V30.8438C125.761 32.2083 124.143 33.465 121.187 33.465ZM123.369 29.1203C125.163 29.1203 126.5 28.079 126.5 26.4632V25.3142H124.847C122.313 25.3142 121.187 25.8169 121.187 27.3609C121.187 28.4381 121.891 29.1203 123.369 29.1203Z" fill="white"/>
<path d="M144.979 40C138.716 40 135.83 37.307 135.337 33.0341H141.601C141.883 34.3986 142.692 35.4758 144.979 35.4758C147.759 35.4758 148.885 33.86 148.885 31.526V28.6535C147.935 30.4488 145.929 32.1006 143.185 32.1006C138.892 32.1006 135.373 28.869 135.373 23.088V22.8007C135.373 17.2711 138.856 13.7523 143.185 13.7523C146.105 13.7523 147.83 15.009 148.885 16.9121V14.255H155.184V31.4542C155.184 37.0557 151.56 40 144.979 40ZM145.402 27.3609C147.654 27.3609 149.061 25.7092 149.061 23.0521V22.8007C149.061 20.2155 147.759 18.5638 145.437 18.5638C143.079 18.5638 141.812 20.2514 141.812 22.8367V23.1239C141.812 25.7092 143.15 27.3609 145.402 27.3609Z" fill="white"/>
<path d="M164.074 33.465C160.766 33.465 157.846 31.8133 157.846 27.8277C157.846 23.4112 161.505 21.6876 167.628 21.6876H169.388V21.2568C169.388 19.4614 168.965 18.2765 166.96 18.2765C165.235 18.2765 164.602 19.3178 164.461 20.5027H158.549C158.831 15.9785 162.315 13.7523 167.347 13.7523C172.414 13.7523 175.651 15.8708 175.651 20.8618V33.0341H169.528V30.8438C168.649 32.2083 167.03 33.465 164.074 33.465ZM166.256 29.1203C168.051 29.1203 169.388 28.079 169.388 26.4632V25.3142H167.734C165.2 25.3142 164.074 25.8169 164.074 27.3609C164.074 28.4381 164.778 29.1203 166.256 29.1203Z" fill="white"/>
<path d="M179.245 33.0341V14.255H185.544V17.9893C186.705 15.1886 188.641 13.9677 191.491 14.0036V20C187.656 19.8923 185.544 21.1131 185.544 24.1293V33.0341H179.245Z" fill="white"/>
<path d="M200.849 33.465C196.591 33.465 193.107 30.3411 193.107 23.842V23.5548C193.107 17.1634 196.556 13.7523 200.919 13.7523C203.805 13.7523 205.529 15.009 206.585 16.9121V5.99647H212.884V33.0341H206.585V29.9821C205.67 31.921 203.629 33.465 200.849 33.465ZM203.066 28.5458C205.353 28.5458 206.761 26.93 206.761 23.7343V23.4471C206.761 20.2873 205.459 18.5997 203.136 18.5997C200.778 18.5997 199.512 20.2155 199.512 23.483V23.7702C199.512 26.93 200.884 28.5458 203.066 28.5458Z" fill="white"/>
<path d="M225.608 33.465C219.837 33.465 215.614 30.018 215.614 23.8779V23.5907C215.614 17.5584 220.013 13.7523 225.573 13.7523C230.605 13.7523 234.934 16.6966 234.934 23.4471V25.1347H221.984C222.16 27.6122 223.567 29.0485 225.819 29.0485C227.896 29.0485 228.775 28.079 229.022 26.8223H234.934C234.37 31.0593 231.168 33.465 225.608 33.465ZM222.054 21.5081H228.811C228.705 19.246 227.614 17.9893 225.573 17.9893C223.673 17.9893 222.371 19.246 222.054 21.5081Z" fill="white"/>
<path d="M237.631 33.0341V14.255H243.93V17.2711C244.915 15.3322 246.921 13.7523 249.983 13.7523C253.537 13.7523 256 16.0144 256 20.8259V33.0341H249.701V22.1185C249.701 20 248.892 18.9587 247.062 18.9587C245.197 18.9587 243.93 20.1078 243.93 22.5135V33.0341H237.631Z" fill="white"/>
</svg>
