<svg width="32" height="32" viewBox="0 0 32 32" fill="none" xmlns="http://www.w3.org/2000/svg">
<path d="M13.8757 3.6969C15.4996 2.7677 17.5004 2.7677 19.1243 3.6969L26.3757 7.84604C27.9996 8.77524 29 10.4925 29 12.3509V20.6491C29 22.5075 27.9996 24.2248 26.3757 25.154L19.1243 29.3031C17.5004 30.2323 15.4996 30.2323 13.8757 29.3031L6.62432 25.154C5.00038 24.2248 4 22.5075 4 20.6491V12.3509C4 10.4925 5.00038 8.77524 6.62432 7.84604L13.8757 3.6969Z" fill="#AB56FF"/>
<path d="M12.5833 9.00011C11.8019 8.99417 11.058 9.33066 10.3968 10.0006C9.51968 10.8982 8.80449 12.3768 8.37267 14.1853C7.98134 15.875 7.88688 17.6174 8.14327 18.9506C8.49412 20.8647 9.22281 21.9208 10.2484 21.9868C10.9366 22.0396 12.6887 20.4184 13.73 20.2995C14.7033 20.1883 15.2767 21.2415 16.4963 21.2732C17.7158 21.3049 18.2897 20.1849 19.2626 20.2995C20.2903 20.4207 22.0288 22 22.663 22H22.7573C23.7829 21.934 24.5118 20.8779 24.8627 18.9638C25.1056 17.6174 25.0245 15.8881 24.6332 14.1984C24.2013 12.3899 23.4862 10.8982 22.5955 10.0006C21.8399 9.23495 20.9764 8.9048 20.0723 9.02361C19.6 9.08961 19.0062 9.40643 18.3855 9.74965C17.7243 10.1193 16.9686 10.5286 16.4963 10.5286C16.024 10.5286 15.2683 10.1193 14.6071 9.74965C13.9864 9.40643 13.3926 9.08961 12.9203 9.02361C12.8073 9.00883 12.6949 9.00104 12.5833 9.00011Z" fill="white"/>
</svg>
