<svg width="48" height="48" viewBox="0 0 48 48" fill="none" xmlns="http://www.w3.org/2000/svg">
<path d="M36.3361 0.000967297C35.2691 0.0215158 34.4233 0.369159 33.8846 1.02592L31.332 4.13786C30.581 5.05341 30.5479 6.45609 31.2183 8.05516C30.4678 8.00764 29.7158 8.12231 29.0139 8.39132L20.2847 11.7403C19.2815 12.1276 18.4216 12.8121 17.8211 13.7015C17.2205 14.5909 16.9081 15.6424 16.9261 16.7142L16.9332 17.0872L14.9094 18.5994C14.1613 19.1565 13.6586 19.9804 13.5067 20.8986L12.1807 28.8248C12.1372 29.0851 12.0571 29.3381 11.9428 29.5762L3.26535 47.6531L3.99331 48L12.6706 29.9228C12.8175 29.6167 12.9205 29.2915 12.9765 28.9569L14.3024 21.0304C14.4206 20.3164 14.8116 19.6757 15.3934 19.2425L16.9407 18.0863V26.928C16.9407 27.0131 16.9678 27.096 17.0182 27.1648C17.0685 27.2336 17.1395 27.2847 17.2209 27.3107C17.3022 27.3367 17.3898 27.3362 17.4709 27.3095C17.552 27.2827 17.6225 27.2309 17.6722 27.1617L20.7966 22.8036C20.9704 22.5613 21.228 22.3914 21.5198 22.3267C21.8117 22.262 22.1172 22.3071 22.3778 22.4531C22.6383 22.5992 22.8355 22.8361 22.9315 23.1182C23.0275 23.4003 23.0154 23.7078 22.8977 23.9816L21.8564 26.4022C21.3273 27.6312 20.484 28.7004 19.4106 29.5032L18.8417 29.9282C18.1639 30.4354 17.6852 31.1626 17.4882 31.984L13.7247 47.7333L14.5094 47.9197L18.2731 32.1705C18.3607 31.8083 18.5195 31.467 18.7405 31.1665C19.1279 31.3602 19.5553 31.4615 19.9888 31.4622C20.3414 31.4615 20.6908 31.3959 21.0195 31.2687C21.4708 31.0973 21.8705 30.8136 22.1805 30.4448C22.4906 30.0759 22.7008 29.634 22.791 29.1613L23.2148 26.977C23.4322 25.8379 23.9385 24.7732 24.6857 23.8842C25.4329 22.9952 26.396 22.3116 27.4834 21.8984L30.5124 20.7361C31.5971 20.316 32.7717 20.1795 33.9243 20.3396C35.0769 20.4997 36.1692 20.9511 37.0972 21.6507L38.882 22.9877C39.444 23.4088 40.1427 23.6077 40.8431 23.5459C41.5436 23.4842 42.1963 23.1663 42.6754 22.6534C43.1545 22.1405 43.4261 21.4691 43.4377 20.7685C43.4493 20.068 43.2002 19.388 42.7383 18.8596L39.8105 15.5091C40.4829 15.719 41.1821 15.8312 41.8867 15.8423C42.995 15.8423 43.8916 15.5005 44.4505 14.8191L47.0029 11.707C47.7863 10.7517 47.7974 9.29235 47.0338 7.59793C46.3109 5.99359 44.9677 4.34048 43.2516 2.94316C41.5354 1.54585 39.6419 0.56368 37.9201 0.177385C37.3518 0.0498918 36.8211 -0.00837295 36.3361 0.000967297ZM18.8021 0.00312591C18.4813 -0.00354676 18.1367 0.0103929 17.7699 0.0455133C15.9489 0.219675 13.7445 0.885708 11.5631 1.92096C9.38169 2.95612 7.47369 4.24167 6.1904 5.54057C4.81143 6.93631 4.29924 8.22216 4.74826 9.16136L6.48269 12.7898C6.8611 13.5814 7.86151 13.9998 9.33822 13.9998C9.61357 13.9998 9.90526 13.9852 10.2133 13.9558C12.0343 13.7816 14.2384 13.1157 16.4199 12.0806C18.6013 11.0454 20.5095 9.75988 21.7928 8.46098C23.1718 7.06524 23.6839 5.77939 23.2349 4.8402L21.5003 1.21176C21.1355 0.44858 20.1924 0.0320412 18.8021 0.00312591ZM17.2221 2.43118L17.466 3.19729C16.4794 3.51196 15.5156 3.89349 14.5813 4.3392C13.3707 4.90872 12.2148 5.58697 11.1278 6.36556L10.6523 5.7162C11.7788 4.90678 12.9779 4.20289 14.2344 3.61351C15.2021 3.15194 16.2003 2.75691 17.2221 2.43118ZM21.4292 2.93198L22.5066 5.18577C22.8452 5.89424 22.1135 7.16883 20.5326 8.53398L19.1571 5.65655C19.4829 5.384 19.7854 5.10875 20.0582 4.83274C20.7176 4.16524 21.1765 3.52334 21.4292 2.93198ZM33.2947 3.01538C33.3469 3.75048 33.5365 4.4694 33.8536 5.13514C33.9476 5.34369 34.0521 5.55277 34.167 5.76252L32.171 8.19606C31.4192 6.68841 31.3381 5.40085 31.9567 4.64651L33.2947 3.01538ZM39.8276 4.43634C40.5842 4.75981 41.2905 5.18941 41.9251 5.71208C43.1984 6.749 44.1088 8.03672 44.3603 9.15684L43.5732 9.33228C43.363 8.39613 42.5359 7.24745 41.4147 6.33455C40.8407 5.86102 40.2018 5.47161 39.5172 5.17812L39.8276 4.43634ZM18.5093 6.1701L19.8894 9.05735C18.8101 9.8748 17.6533 10.5853 16.4355 11.1787L15.0479 8.27593C16.2643 7.68165 17.423 6.97671 18.5093 6.1701ZM34.608 6.49507C35.3671 7.6291 36.2823 8.65128 37.3268 9.53166L36.0003 11.1489L34.8534 9.83622C34.3398 9.24923 33.7005 8.78463 32.9827 8.47668L34.608 6.49507ZM14.3195 8.6217L15.7071 11.5243C14.4772 12.0924 13.1946 12.5395 11.8774 12.8593L10.4973 9.97221C11.8104 9.64021 13.0899 9.18812 14.3195 8.6217ZM37.9514 10.0403C39.0253 10.8847 40.213 11.5747 41.4795 12.09L39.4644 14.5469C39.2112 14.4538 38.9531 14.3471 38.6904 14.2272L36.5378 11.7639L37.9514 10.0403ZM9.68861 10.1496L11.0642 13.0271C9.00406 13.3897 7.54967 13.1525 7.21105 12.4442L6.13466 10.1922C6.61374 10.3191 7.10812 10.3795 7.60379 10.3716C7.87914 10.3716 8.17087 10.3568 8.47888 10.3274C8.86586 10.2904 9.2709 10.2299 9.68861 10.1496ZM30.3261 11.3331L30.616 12.0831L29.1102 12.6609L28.8203 11.9108L30.3261 11.3331ZM42.2879 12.3746C42.5167 12.4445 42.7432 12.505 42.9674 12.5557C43.4537 12.669 43.9511 12.7285 44.4505 12.7331C44.6891 12.7336 44.9274 12.7157 45.1633 12.6797L43.8257 14.3104C43.2019 15.0709 41.8932 15.2341 40.2911 14.8093L42.2879 12.3746ZM33.4544 12.717L33.7443 13.467L32.2386 14.0447L31.9486 13.2947L33.4544 12.717ZM28.9371 14.45L29.227 15.2L27.7215 15.7775L27.4316 15.0275L28.9371 14.45ZM21.8133 15.0299L22.5379 16.9051L24.42 16.1831L24.71 16.933L22.8278 17.6551L23.5526 19.5304L22.7996 19.8192L22.075 17.944L20.1929 18.6661L19.903 17.9159L21.7851 17.194L21.0603 15.3187L21.8133 15.0299ZM32.0656 15.8336L32.3554 16.5839L30.8496 17.1614L30.5599 16.4114L32.0656 15.8336ZM8.45721 16.0789C6.84481 16.1061 4.73171 17.1814 2.88147 19.0627C0.190237 21.7992 -0.77886 25.0547 0.675124 26.4743L2.97995 28.7245C3.41449 29.1488 4.01369 29.3631 4.73112 29.3631C5.2825 29.3525 5.82833 29.2512 6.34659 29.0634C7.69315 28.6011 9.12294 27.6466 10.3725 26.3761C13.0637 23.6397 14.0328 20.3842 12.5788 18.9646L10.274 16.7144C9.81966 16.2708 9.19012 16.0666 8.45721 16.0789ZM10.9482 18.498L12.0141 19.5388C12.705 20.2133 12.5733 21.7923 11.5349 23.5723L9.82116 21.8992C10.5607 20.6863 10.9551 19.4919 10.9482 18.498ZM9.36914 22.5831L11.0912 24.2644C10.7035 24.8158 10.2703 25.3339 9.79615 25.8135C9.32449 26.2955 8.81331 26.7375 8.26793 27.1348L6.54473 25.4524C7.08626 25.0505 7.59538 24.607 8.06743 24.1259C8.54091 23.6461 8.97613 23.1303 9.36914 22.5831ZM45.5838 24.1145C45.5496 24.1142 45.5155 24.1183 45.4824 24.1267L44.8225 24.2909C43.0818 24.7244 41.4151 25.4124 39.8767 26.3324L38.1119 27.3872C38.0248 27.4392 37.9606 27.5222 37.9322 27.6194C37.9037 27.7166 37.9132 27.8209 37.9587 27.9115L39.5722 31.1267C39.5986 31.1793 39.6363 31.2255 39.6827 31.2621C39.729 31.2986 39.7828 31.3245 39.8403 31.3381C39.8979 31.3516 39.9576 31.3523 40.0155 31.3403C40.0733 31.3282 40.1278 31.3037 40.1751 31.2684C42.253 29.72 44.6508 28.6519 47.1945 28.1415L47.2729 28.1258C47.3337 28.1137 47.3909 28.0877 47.44 28.05C47.4891 28.0123 47.5289 27.9638 47.5561 27.9083C47.5834 27.8528 47.5974 27.7917 47.5971 27.73C47.5969 27.6682 47.5823 27.6073 47.5546 27.552L45.9411 24.3368C45.9079 24.2705 45.857 24.2147 45.7939 24.1754C45.7309 24.1362 45.6581 24.1151 45.5838 24.1145ZM29.074 24.1147C28.4054 24.113 27.7581 24.3484 27.2478 24.7787C26.7375 25.2091 26.3976 25.8064 26.289 26.4637L25.694 30.0069C25.4579 30.6553 25.4692 31.3676 25.7259 32.0082L26.3091 33.4607C26.5045 33.9472 26.5595 34.4784 26.468 34.9943L24.2075 47.7567L25.0021 47.8964L27.2624 35.134C27.3801 34.4707 27.3093 33.7877 27.0581 33.1622L26.4749 31.7097C26.3108 31.2993 26.2867 30.8464 26.4065 30.4211C26.5262 29.9957 26.7831 29.6213 27.1375 29.3558L28.2352 28.5355C28.5847 28.2755 29.009 28.1346 29.4453 28.1336H31.4348C31.3599 28.6779 31.1336 29.1903 30.7814 29.6129C30.4291 30.0354 29.9651 30.3512 29.4419 30.5244L29.3178 30.5656C29.2676 30.5823 29.2211 30.6087 29.181 30.6433C29.141 30.6778 29.1082 30.7199 29.0845 30.7672C29.0608 30.8144 29.0466 30.8658 29.0429 30.9184C29.0391 30.9711 29.0458 31.024 29.0626 31.0741L29.8693 33.4855L30.6347 33.2311L29.9524 31.192C30.6388 30.9082 31.2252 30.428 31.6375 29.812C32.0499 29.1961 32.2696 28.4721 32.2689 27.7318C32.2689 27.6252 32.2264 27.5229 32.1507 27.4476C32.0751 27.3722 31.9725 27.3299 31.8655 27.3299H29.4453C28.8346 27.3311 28.2405 27.5284 27.7512 27.8925L26.7402 28.6478L27.0847 26.5963C27.1623 26.1268 27.4051 25.7002 27.7696 25.3928C28.1341 25.0854 28.5965 24.9172 29.074 24.9185H32.9263C33.4228 24.918 33.9019 25.1002 34.2719 25.4301C34.6418 25.76 34.8764 26.2144 34.9308 26.706L35.3271 30.2591C35.3749 30.6785 35.3268 31.1033 35.1866 31.5016C35.0463 31.8999 34.8175 32.2615 34.5172 32.5592L33.3321 33.74C32.994 34.0751 32.7259 34.4737 32.5434 34.9127C32.3609 35.3517 32.2676 35.8224 32.2689 36.2975V47.8265H33.0756V36.2975C33.0747 35.928 33.1473 35.5618 33.2892 35.2204C33.4312 34.8789 33.6397 34.5689 33.9027 34.3083L35.0878 33.1275C35.4738 32.7447 35.768 32.2799 35.9483 31.7678C36.1286 31.2557 36.1903 30.7096 36.1289 30.1704L35.7326 26.6173C35.6565 25.929 35.328 25.2929 34.8101 24.831C34.2922 24.3692 33.6214 24.1141 32.9263 24.1147H29.074ZM5.86778 25.9169L7.58232 27.5911C5.81712 28.6615 4.2353 28.8248 3.54463 28.1503L2.48066 27.1116C3.01355 27.0947 3.54041 26.9939 4.04176 26.8132C4.68324 26.5859 5.29602 26.2852 5.86778 25.9169ZM6.85632 31.3488V32.1526H8.46982V31.3488H6.85632ZM46.387 31.3488V32.1526H48.0005V31.3488H46.387ZM2.03218 32.153C1.93948 32.1492 1.84831 32.1774 1.77404 32.2329C1.69977 32.2883 1.64695 32.3675 1.62447 32.4572L1.11789 34.4763C0.749979 35.9256 0.67425 37.4332 0.895086 38.9119C1.11592 40.3906 1.62894 41.8109 2.40443 43.0907L2.47672 43.2106C2.52212 43.286 2.59106 43.3444 2.67298 43.377C2.75489 43.4096 2.84527 43.4145 2.93027 43.3911C3.01528 43.3676 3.09022 43.317 3.14362 43.2471C3.19702 43.1771 3.22594 43.0917 3.22595 43.0038V42.7279C3.22215 41.3385 3.49496 39.9623 4.02859 38.6787C4.56221 37.3951 5.34607 36.2297 6.33477 35.25C6.37812 35.2069 6.41102 35.1544 6.43099 35.0967C6.45095 35.0389 6.45745 34.9774 6.44999 34.9168C6.44249 34.8562 6.42123 34.7981 6.38782 34.7469C6.35441 34.6957 6.30973 34.6527 6.25717 34.6213L2.22343 32.2099C2.16547 32.1753 2.09971 32.1557 2.03218 32.153ZM43.8157 32.9564C43.7092 32.9568 43.6071 32.9991 43.5319 33.0741L40.3049 36.2893C40.2597 36.3343 40.2259 36.3894 40.2062 36.45C40.1866 36.5107 40.1817 36.575 40.192 36.6379C40.2022 36.7008 40.2273 36.7603 40.2652 36.8116C40.3031 36.8629 40.3527 36.9045 40.4098 36.933L40.7742 37.1147C42.5756 38.011 44.0826 39.4013 45.1178 41.1221L45.8914 42.4068C45.9339 42.4774 45.997 42.5332 46.0724 42.5669C46.1477 42.6006 46.2316 42.6104 46.3127 42.595C46.3938 42.5797 46.4682 42.5399 46.5259 42.4811C46.5836 42.4223 46.6218 42.3473 46.6354 42.2661C46.8976 40.6929 46.8246 39.0822 46.4211 37.5389C46.0176 35.9956 45.2927 34.5541 44.2935 33.3082L44.1322 33.1073C44.0943 33.06 44.0461 33.0219 43.9913 32.9958C43.9365 32.9696 43.8764 32.9562 43.8157 32.9564ZM2.27503 33.1783L5.40906 35.0516C3.76449 36.8337 2.73901 39.0956 2.4842 41.5031C1.52744 39.3551 1.32187 36.9494 1.90041 34.6711L2.27503 33.1783ZM43.7824 33.9613C45.3284 35.9626 46.1037 38.4494 45.9679 40.9711L45.8097 40.7086C44.7222 38.9007 43.1502 37.4308 41.2704 36.4641L43.7824 33.9613ZM22.1867 36.1716C22.1234 36.1712 22.0608 36.1857 22.0041 36.2139L18.7771 37.8215C18.698 37.861 18.634 37.9253 18.5952 38.0045C18.5563 38.0837 18.5447 38.1735 18.5621 38.2599L18.8683 39.7865C19.1818 41.3512 19.0806 42.9703 18.5749 44.4842C18.541 44.5853 18.5489 44.6957 18.5967 44.7911C18.6445 44.8864 18.7284 44.9589 18.8299 44.9927L21.2502 45.7964C21.3478 45.8289 21.4542 45.823 21.5475 45.7798C21.6409 45.7366 21.7141 45.6595 21.7522 45.5643L22.3675 44.0321C23.048 42.3373 23.2486 40.489 22.9474 38.6885L22.5824 36.5073C22.5667 36.4139 22.5184 36.3289 22.446 36.2675C22.3736 36.2061 22.2818 36.1721 22.1867 36.1716ZM35.8993 36.1716V36.9753H37.5128V36.1716H35.8993ZM38.337 39.3871C38.2812 39.3847 38.2254 39.3939 38.1733 39.4141C38.1212 39.4343 38.0739 39.4651 38.0343 39.5045L35.6141 41.9158C35.5689 41.9609 35.535 42.0159 35.5154 42.0765C35.4957 42.1371 35.4908 42.2015 35.5011 42.2644C35.5113 42.3273 35.5364 42.3868 35.5742 42.4381C35.6121 42.4894 35.6617 42.531 35.7188 42.5595L36.0596 42.7292C36.8618 43.1255 37.5365 43.7378 38.0073 44.4966C38.478 45.2555 38.7259 46.1306 38.7229 47.0227C38.7229 47.0838 38.7369 47.1441 38.7638 47.199C38.7907 47.2539 38.8297 47.3019 38.8781 47.3395C38.9264 47.3771 38.9827 47.4032 39.0426 47.4159C39.1026 47.4286 39.1647 47.4275 39.2241 47.4127L42.4511 46.6089C42.5517 46.5838 42.6386 46.5211 42.694 46.4339C42.7495 46.3466 42.769 46.2415 42.7487 46.1403L42.3334 44.0703C42.0626 42.7179 41.3003 41.5127 40.1926 40.6858L38.5616 39.467C38.4965 39.4184 38.4182 39.3906 38.337 39.3871ZM44.7735 45.817V46.6208H46.387V45.817H44.7735Z" fill="#AB56FF"/>
</svg>
