<svg width="48" height="49" viewBox="0 0 48 49" fill="none" xmlns="http://www.w3.org/2000/svg">
<path d="M9.38553 0.997803C9.25696 0.997803 9.12906 1.01883 9.00049 1.06225L1.02839 5.23115L9.00049 9.31186C9.25763 9.39869 9.60082 9.39903 9.77225 9.22536L17.7427 5.14465L9.77225 1.06225C9.64368 1.01883 9.5141 0.997803 9.38553 0.997803ZM38.5284 0.997803C38.3998 0.997803 38.2719 1.01883 38.1433 1.06225L30.1712 5.14465L38.1433 9.22536C38.4005 9.39903 38.7437 9.39903 38.9151 9.22536L46.8855 5.14465L38.9151 1.06225C38.7865 1.01883 38.657 0.997803 38.5284 0.997803ZM0.000488281 6.62022V16.2589C0.000488281 16.6062 0.171582 16.9539 0.514439 17.0408L6.85763 20.2531V16.6066C6.85763 15.6514 7.37158 14.7837 8.22873 14.2626L8.57192 14.0879V10.7891C8.4862 10.7891 8.39982 10.7009 8.3141 10.7009L0.000488281 6.62022ZM18.8576 6.62022L10.544 10.7891C10.4583 10.876 10.3719 10.8753 10.2862 10.9621V13.3061L18.8576 8.70467V6.62022ZM29.1433 6.62022V8.70467L37.7148 13.3061V10.9621C37.6291 10.9621 37.5427 10.8756 37.457 10.8756L29.1433 6.62022ZM48.0005 6.62022L39.6869 10.7891C39.6012 10.7891 39.5148 10.8756 39.4291 10.8756V14.1744L39.7723 14.3491C40.6294 14.7833 41.1433 15.651 41.1433 16.6931V20.3413L47.4865 17.1273C47.7437 16.9536 48.0005 16.6927 48.0005 16.3454V6.62022ZM24.044 8.05338C23.9154 8.05338 23.7859 8.09714 23.6573 8.18398L9.59982 15.6517L23.6573 23.1194C23.9144 23.2931 24.1719 23.2931 24.4291 23.1194L38.4865 15.6517L24.4291 8.18398C24.3005 8.09714 24.1726 8.05338 24.044 8.05338ZM8.57192 17.0408V27.2883C9.25763 27.0278 9.94402 27.1143 10.544 27.3748L11.1433 27.6343V26.8541C11.1433 25.8989 11.6573 25.0295 12.5144 24.5085L15.8576 22.6852L16.6294 24.249L13.2862 26.0723C13.0291 26.2459 12.8576 26.5068 12.8576 26.8541V28.5027L19.1154 31.7167C19.9726 32.1509 20.5719 33.0186 20.5719 34.0607V40.5735L23.1433 41.9626V24.7697C23.0576 24.7697 22.8859 24.6818 22.8002 24.595L8.57192 17.0408ZM39.4291 17.0408L25.2008 24.595C25.1151 24.6818 24.9433 24.6828 24.8576 24.7697V41.9626L27.4291 40.5735V34.0607C27.4291 33.1054 27.9427 32.1509 28.8855 31.7167L35.1433 28.5027V26.8541C35.1433 26.5068 34.9719 26.2459 34.7148 26.0723L31.3716 24.249L32.1433 22.6852L35.4865 24.5085C36.3437 24.9427 36.8576 25.8121 36.8576 26.8541V27.6343L37.457 27.3748C38.057 27.0275 38.8291 27.0278 39.4291 27.2883V17.0408ZM9.42906 28.8504C9.25763 28.8504 9.17158 28.85 9.08587 28.9369L1.11544 33.0193L9.51444 37.2747L17.9151 33.0193L12.8576 30.5006V33.0193H11.1433V29.6323L9.77225 28.9369C9.68654 28.85 9.51477 28.8504 9.42906 28.8504ZM38.5719 28.8504C38.4005 28.8504 38.3144 28.85 38.2287 28.9369L36.8576 29.6323V33.0193H35.1433V30.5006L30.1712 33.0193L38.5719 37.2747L46.9726 33.0193L38.9151 28.9369C38.8294 28.85 38.6576 28.8504 38.5719 28.8504ZM0.000488281 34.4084V44.047C0.000488281 44.3944 0.171582 44.6552 0.514439 44.8289L8.57192 48.9096V38.7503L0.000488281 34.4084ZM18.8576 34.4084L10.2862 38.7503V48.9978L18.3437 44.9154C18.6008 44.7417 18.8576 44.4809 18.8576 44.1335V34.4084ZM29.1433 34.4084V44.047C29.1433 44.3944 29.3144 44.6552 29.6573 44.8289L37.7148 48.9096V38.7503L29.1433 34.4084ZM48.0005 34.4084L39.4291 38.7503V48.9978L47.4865 44.9154C47.7437 44.7417 48.0005 44.4809 48.0005 44.1335V34.4084Z" fill="#AB56FF"/>
</svg>
