<svg width="48" height="49" viewBox="0 0 48 49" fill="none" xmlns="http://www.w3.org/2000/svg">
<path d="M35.9701 0.000194978C35.5671 0.00533099 35.1719 0.111816 34.821 0.309835C34.47 0.507853 34.1745 0.791035 33.9618 1.13328C33.749 1.47552 33.6258 1.86581 33.6035 2.26818C33.5813 2.67055 33.6607 3.07205 33.8344 3.43568L31.434 5.83602C31.2841 5.98606 31.1998 6.18951 31.1999 6.40164V8.00161H32.7998V6.73308L34.9658 4.5671C35.2921 4.72299 35.6494 4.80314 36.0111 4.80157C36.3727 4.8 36.7294 4.71675 37.0543 4.55804C37.3793 4.39932 37.6642 4.16924 37.8877 3.88498C38.1113 3.60072 38.2678 3.26963 38.3454 2.91642C38.4231 2.56321 38.42 2.19702 38.3363 1.84519C38.2526 1.49337 38.0905 1.16499 37.8621 0.884592C37.6337 0.604193 37.3449 0.379015 37.0173 0.225874C36.6897 0.0727329 36.3317 -0.00441369 35.9701 0.000194978ZM24.0043 0.00136683C23.4378 0.000381132 22.8892 0.199813 22.4556 0.564372C22.022 0.928932 21.7314 1.43512 21.6351 1.99336C21.5388 2.5516 21.6431 3.12591 21.9295 3.61467C22.2159 4.10343 22.6659 4.47512 23.2 4.66397V7.20162H24.8V4.66397C25.3334 4.47536 25.783 4.10438 26.0694 3.61652C26.3559 3.12866 26.4608 2.55528 26.3656 1.99759C26.2705 1.43991 25.9813 0.933772 25.5493 0.568526C25.1172 0.20328 24.57 0.00240798 24.0043 0.00136683ZM12.0389 0.00253868C11.7218 -0.00308923 11.4068 0.0541733 11.112 0.171017C10.8173 0.287861 10.5485 0.461969 10.3215 0.683279C10.0944 0.904589 9.91337 1.16871 9.78896 1.46038C9.66455 1.75206 9.59918 2.06549 9.59662 2.38258C9.59407 2.69967 9.65438 3.01412 9.77407 3.30775C9.89377 3.60139 10.0705 3.8684 10.294 4.09334C10.5175 4.31828 10.7833 4.49669 11.0762 4.61827C11.3691 4.73985 11.6831 4.80218 12.0002 4.80167C12.3581 4.80203 12.7115 4.72186 13.0342 4.5671L15.2002 6.73308V8.00161H16.8001V6.40164C16.8001 6.18951 16.7159 5.98606 16.566 5.83602L14.1656 3.43568C14.3388 3.07286 14.418 2.67234 14.3961 2.27091C14.3741 1.86948 14.2517 1.48 14.0399 1.13824C13.8282 0.796468 13.534 0.513366 13.1844 0.314927C12.8348 0.116488 12.4409 0.00907049 12.0389 0.00253868ZM12.0002 1.60173C12.1584 1.60173 12.3131 1.64865 12.4447 1.73655C12.5762 1.82445 12.6788 1.94939 12.7393 2.09557C12.7999 2.24175 12.8157 2.4026 12.7848 2.55778C12.754 2.71296 12.6778 2.85551 12.5659 2.96739C12.454 3.07927 12.3115 3.15546 12.1563 3.18633C12.0011 3.21719 11.8403 3.20135 11.6941 3.1408C11.5479 3.08025 11.423 2.97772 11.3351 2.84616C11.2472 2.7146 11.2002 2.55993 11.2002 2.40171C11.2005 2.18962 11.2848 1.98628 11.4348 1.83631C11.5848 1.68633 11.7881 1.60197 12.0002 1.60173ZM24 1.60173C24.1582 1.60173 24.3129 1.64865 24.4444 1.73655C24.576 1.82445 24.6785 1.94939 24.7391 2.09557C24.7996 2.24175 24.8155 2.4026 24.7846 2.55778C24.7537 2.71296 24.6775 2.85551 24.5657 2.96739C24.4538 3.07927 24.3112 3.15546 24.1561 3.18633C24.0009 3.21719 23.84 3.20135 23.6939 3.1408C23.5477 3.08025 23.4227 2.97772 23.3348 2.84616C23.2469 2.7146 23.2 2.55993 23.2 2.40171C23.2003 2.18962 23.2846 1.98628 23.4346 1.83631C23.5846 1.68633 23.7879 1.60197 24 1.60173ZM35.9998 1.60173C36.158 1.60173 36.3127 1.64865 36.4442 1.73655C36.5758 1.82445 36.6783 1.94939 36.7389 2.09557C36.7994 2.24175 36.8152 2.4026 36.7844 2.55778C36.7535 2.71296 36.6773 2.85551 36.5654 2.96739C36.4536 3.07927 36.311 3.15546 36.1558 3.18633C36.0007 3.21719 35.8398 3.20135 35.6936 3.1408C35.5474 3.08025 35.4225 2.97772 35.3346 2.84616C35.2467 2.7146 35.1998 2.55993 35.1998 2.40171C35.2 2.18962 35.2844 1.98628 35.4344 1.83631C35.5843 1.68633 35.7877 1.60197 35.9998 1.60173ZM45.5342 8.00258C45.0493 8.01589 44.5798 8.1758 44.1877 8.46125C43.7955 8.74669 43.499 9.14427 43.3373 9.60158H39.9997C39.8946 9.60157 39.7906 9.62227 39.6935 9.66248C39.5964 9.70269 39.5082 9.76164 39.4339 9.83595L37.8339 11.4359L38.9655 12.5671L40.3311 11.2015H43.3373C43.4849 11.619 43.7451 11.9875 44.0891 12.2663C44.4332 12.545 44.8476 12.7232 45.2866 12.781C45.7256 12.8389 46.172 12.7741 46.5765 12.594C46.981 12.4138 47.3278 12.1253 47.5784 11.7602C47.8291 11.3952 47.9739 10.968 47.9968 10.5258C48.0197 10.0836 47.9198 9.64369 47.7082 9.25473C47.4966 8.86578 47.1815 8.54294 46.7978 8.32195C46.4141 8.10096 45.9768 7.99043 45.5342 8.00258ZM2.47423 8.00297C2.15631 7.9935 1.83969 8.04732 1.54276 8.1613C1.24583 8.27528 0.974521 8.44715 0.744602 8.66691C0.514683 8.88667 0.330742 9.14995 0.203473 9.44143C0.0762032 9.73291 0.00814373 10.0468 0.00325098 10.3648C-0.00164178 10.6828 0.0567299 10.9986 0.174972 11.2939C0.293215 11.5891 0.468969 11.858 0.692019 12.0847C0.915068 12.3114 1.18096 12.4915 1.47424 12.6146C1.76753 12.7377 2.08234 12.8012 2.4004 12.8015C2.89649 12.8009 3.38023 12.6468 3.78526 12.3603C4.19029 12.0738 4.49677 11.6691 4.66266 11.2015H7.66885L9.03445 12.5671L10.1661 11.4359L8.5661 9.83595C8.4918 9.76164 8.40359 9.70269 8.30651 9.66248C8.20943 9.62227 8.10537 9.60157 8.00029 9.60158H4.66266C4.50143 9.14564 4.20622 8.74905 3.8157 8.46378C3.42519 8.17852 2.9576 8.0179 2.47423 8.00297ZM21.6 8.80159C13.2188 8.80159 6.40032 15.6202 6.40032 24.0013C6.40032 32.3824 13.2188 39.201 21.6 39.201H26.3999C34.7811 39.201 41.5997 32.3824 41.5997 24.0013C41.5997 15.6202 34.7811 8.80159 26.3999 8.80159H21.6ZM2.4004 9.60158C2.55862 9.60158 2.71329 9.64849 2.84485 9.7364C2.9764 9.8243 3.07894 9.94924 3.13949 10.0954C3.20004 10.2416 3.21588 10.4024 3.18501 10.5576C3.15414 10.7128 3.07795 10.8554 2.96607 10.9672C2.85419 11.0791 2.71165 11.1553 2.55647 11.1862C2.40129 11.217 2.24044 11.2012 2.09426 11.1407C1.94808 11.0801 1.82314 10.9776 1.73524 10.846C1.64733 10.7145 1.60041 10.5598 1.60041 10.4016C1.60066 10.1895 1.68502 9.98613 1.83499 9.83615C1.98497 9.68618 2.1883 9.60182 2.4004 9.60158ZM45.5996 9.60158C45.7578 9.60158 45.9125 9.64849 46.044 9.7364C46.1756 9.8243 46.2781 9.94924 46.3387 10.0954C46.3992 10.2416 46.4151 10.4024 46.3842 10.5576C46.3533 10.7128 46.2771 10.8554 46.1653 10.9672C46.0534 11.0791 45.9108 11.1553 45.7557 11.1862C45.6005 11.217 45.4396 11.2012 45.2934 11.1407C45.1473 11.0801 45.0223 10.9776 44.9344 10.846C44.8465 10.7145 44.7996 10.5598 44.7996 10.4016C44.7998 10.1895 44.8842 9.98613 45.0342 9.83615C45.1842 9.68618 45.3875 9.60182 45.5996 9.60158ZM28.7878 10.6117C31.1358 11.0309 33.3316 12.0622 35.1535 13.6015H32.6727C31.5469 12.4025 30.2351 11.393 28.7878 10.6117ZM21.6 12.8015C24.0992 12.7927 26.528 13.6283 28.4927 15.173L27.5072 16.4337C25.8234 15.11 23.7418 14.3939 21.6 14.4015C19.7767 14.4016 17.9912 14.9208 16.4522 15.8986C14.9132 16.8764 13.6846 18.2722 12.9099 19.9227C12.1352 21.5732 11.8465 23.4102 12.0777 25.2188C12.3089 27.0274 13.0503 28.7328 14.2152 30.1354L12.9852 31.1584C11.6258 29.5221 10.7606 27.5325 10.4907 25.4224C10.2209 23.3124 10.5575 21.1691 11.4613 19.2433C12.365 17.3176 13.7985 15.689 15.594 14.5482C17.3895 13.4074 19.4728 12.8016 21.6 12.8015ZM33.9854 15.2015H36.7607C37.5836 16.1683 38.2674 17.2454 38.7923 18.4014H35.7304C35.2793 17.2686 34.6934 16.1942 33.9854 15.2015ZM21.4389 16.8061C22.5507 16.7816 23.653 17.0149 24.6595 17.4877C25.666 17.9604 26.5494 18.6598 27.2404 19.5311C27.9315 20.4023 28.4114 21.4218 28.6426 22.5095C28.8737 23.5972 28.8499 24.7237 28.573 25.8007L27.0236 25.4019C27.2362 24.5743 27.2569 23.709 27.0839 22.8722C26.911 22.0355 26.549 21.2493 26.0257 20.5738C25.5024 19.8984 24.8316 19.3515 24.0645 18.9749C23.2975 18.5984 22.4545 18.4023 21.6 18.4014C20.236 18.4007 18.9188 18.8985 17.8962 19.8012L16.8374 18.6016C18.1117 17.4794 19.7414 16.8435 21.4389 16.8061ZM2.4004 18.4014C2.18823 18.4014 1.98475 18.4857 1.83473 18.6357C1.6847 18.7857 1.60042 18.9892 1.60041 19.2014V25.739C1.06671 25.9277 0.6169 26.299 0.330483 26.7873C0.0440651 27.2755 -0.0605183 27.8493 0.0352162 28.4073C0.130951 28.9652 0.42084 29.4713 0.853647 29.8362C1.28645 30.2011 1.83431 30.4012 2.4004 30.4012C2.96648 30.4012 3.51434 30.2011 3.94715 29.8362C4.37996 29.4713 4.66985 28.9652 4.76558 28.4073C4.86131 27.8493 4.75673 27.2755 4.47031 26.7873C4.1839 26.299 3.73409 25.9277 3.20038 25.739V20.0014H5.60034V18.4014H2.4004ZM45.5996 18.4014C45.0335 18.4014 44.4856 18.6015 44.0528 18.9664C43.62 19.3313 43.3302 19.8374 43.2344 20.3953C43.1387 20.9532 43.2433 21.5271 43.5297 22.0153C43.8161 22.5036 44.2659 22.8749 44.7996 23.0636V28.8012H42.3996V30.4012H45.5996C45.8118 30.4012 46.0152 30.3169 46.1653 30.1669C46.3153 30.0168 46.3996 29.8134 46.3996 29.6012V23.0636C46.9333 22.8749 47.3831 22.5036 47.6695 22.0153C47.9559 21.5271 48.0605 20.9532 47.9648 20.3953C47.869 19.8374 47.5791 19.3313 47.1463 18.9664C46.7135 18.6015 46.1657 18.4014 45.5996 18.4014ZM31.9412 19.6936C32.649 21.3959 32.9258 23.2464 32.7471 25.0813C32.5685 26.9162 31.9399 28.6786 30.9171 30.2124C29.8943 31.7462 28.5089 33.0039 26.8836 33.8741C25.2584 34.7444 23.4436 35.2001 21.6 35.2011C20.1214 35.2038 18.657 34.9119 17.2923 34.3425L17.9079 32.8658C19.6641 33.5957 21.5973 33.7878 23.4628 33.4179C25.3282 33.048 27.0419 32.1327 28.3867 30.7879C29.7314 29.4432 30.6467 27.7295 31.0166 25.864C31.3865 23.9986 31.1944 22.0653 30.4645 20.3092L31.9412 19.6936ZM36.2636 20.0014H39.3987C39.7191 21.0409 39.9128 22.1153 39.9757 23.2013H36.7765C36.7206 22.1194 36.5487 21.0466 36.2636 20.0014ZM45.5664 20.0022C45.6741 19.9977 45.7817 20.015 45.8825 20.0532C45.9834 20.0913 46.0755 20.1495 46.1534 20.2241C46.2312 20.2988 46.2931 20.3884 46.3354 20.4876C46.3777 20.5868 46.3996 20.6935 46.3996 20.8014C46.3993 21.0135 46.315 21.2168 46.165 21.3668C46.015 21.5167 45.8117 21.6011 45.5996 21.6013C45.3907 21.6008 45.1902 21.5185 45.0411 21.3722C44.8921 21.2258 44.8062 21.0269 44.8018 20.818C44.7975 20.6091 44.8751 20.4068 45.0179 20.2543C45.1608 20.1019 45.3577 20.0114 45.5664 20.0022ZM21.6 20.8014C22.4484 20.8023 23.2618 21.1398 23.8617 21.7397C24.4616 22.3396 24.799 23.1529 24.8 24.0013C24.8 24.6342 24.6123 25.2529 24.2607 25.7791C23.9091 26.3053 23.4093 26.7155 22.8246 26.9577C22.2399 27.1999 21.5965 27.2632 20.9758 27.1398C20.355 27.0163 19.7849 26.7115 19.3373 26.264C18.8898 25.8165 18.5851 25.2463 18.4616 24.6256C18.3381 24.0049 18.4015 23.3615 18.6437 22.7767C18.8859 22.192 19.296 21.6923 19.8222 21.3407C20.3485 20.989 20.9671 20.8014 21.6 20.8014ZM14.9238 21.3012L16.407 21.9015C15.9343 23.0711 15.8702 24.366 16.2253 25.5765C16.5803 26.787 17.3336 27.8422 18.3631 28.5713C19.3926 29.3003 20.6381 29.6604 21.8978 29.5932C23.1575 29.5261 24.3576 29.0357 25.3039 28.2014L26.3626 29.401C25.3235 30.3176 24.0419 30.9148 22.6717 31.121C21.3015 31.3272 19.9009 31.1337 18.638 30.5636C17.375 29.9935 16.3034 29.0711 15.5517 27.9071C14.8 26.7431 14.4002 25.3869 14.4002 24.0013C14.3987 23.0759 14.5765 22.1589 14.9238 21.3012ZM21.6 22.4013C21.1757 22.4013 20.7687 22.5699 20.4687 22.87C20.1686 23.17 20.0001 23.577 20.0001 24.0013C20.0001 24.4256 20.1686 24.8326 20.4687 25.1327C20.7687 25.4327 21.1757 25.6013 21.6 25.6013C22.0244 25.6013 22.4313 25.4327 22.7314 25.1327C23.0314 24.8326 23.2 24.4256 23.2 24.0013C23.2 23.577 23.0314 23.17 22.7314 22.87C22.4313 22.5699 22.0244 22.4013 21.6 22.4013ZM36.7767 24.8013H39.9757C39.9128 25.8873 39.7191 26.9617 39.3987 28.0012H36.2636C36.5488 26.956 36.7208 25.8832 36.7767 24.8013ZM2.4004 27.2012C2.55862 27.2012 2.71329 27.2482 2.84485 27.3361C2.9764 27.424 3.07894 27.5489 3.13949 27.6951C3.20004 27.8413 3.21588 28.0021 3.18501 28.1573C3.15414 28.3125 3.07795 28.455 2.96607 28.5669C2.85419 28.6788 2.71165 28.755 2.55647 28.7858C2.40129 28.8167 2.24044 28.8009 2.09426 28.7403C1.94808 28.6798 1.82314 28.5772 1.73524 28.4457C1.64733 28.3141 1.60041 28.1595 1.60041 28.0012C1.60066 27.7891 1.68502 27.5858 1.83499 27.4358C1.98497 27.2858 2.1883 27.2015 2.4004 27.2012ZM35.7304 29.6012H38.7923C38.2674 30.7572 37.5836 31.8343 36.7607 32.8011H33.9854C34.6934 31.8084 35.2793 30.734 35.7304 29.6012ZM32.6727 34.4011H35.1535C33.3316 35.9404 31.1358 36.9717 28.7878 37.3909C30.2351 36.6097 31.5469 35.6001 32.6727 34.4011ZM45.5996 35.2011C45.1035 35.2017 44.6198 35.3559 44.2147 35.6423C43.8097 35.9288 43.5032 36.3335 43.3373 36.8011H40.3311L38.9655 35.4355L37.8339 36.5667L39.4339 38.1667C39.5082 38.241 39.5964 38.2999 39.6935 38.3401C39.7906 38.3803 39.8946 38.401 39.9997 38.401H43.3373C43.484 38.8158 43.7419 39.1823 44.0828 39.4604C44.4237 39.7385 44.8345 39.9176 45.2703 39.978C45.7061 40.0384 46.1501 39.9778 46.5538 39.8029C46.9575 39.628 47.3054 39.3455 47.5594 38.9862C47.8133 38.627 47.9637 38.2048 47.9939 37.7659C48.0242 37.327 47.9332 36.8882 47.7309 36.4975C47.5286 36.1068 47.2228 35.7792 46.8469 35.5506C46.4711 35.322 46.0395 35.201 45.5996 35.2011ZM2.47442 35.2023C2.03148 35.1885 1.59339 35.2977 1.20868 35.5176C0.823977 35.7376 0.507689 36.0598 0.294869 36.4485C0.0820488 36.8372 -0.0189927 37.2772 0.00294237 37.7199C0.0248774 38.1625 0.168932 38.5904 0.419143 38.9561C0.669353 39.3219 1.01595 39.6112 1.42052 39.7921C1.82508 39.9729 2.27183 40.0382 2.71124 39.9807C3.15064 39.9233 3.56556 39.7452 3.91 39.4664C4.25443 39.1876 4.51495 38.8188 4.66266 38.401H8.00029C8.10537 38.401 8.20943 38.3803 8.30651 38.3401C8.40359 38.2999 8.4918 38.241 8.5661 38.1667L10.1661 36.5667L9.03445 35.4355L7.66885 36.8011H4.66266C4.50146 36.3451 4.20628 35.9485 3.81581 35.6632C3.42533 35.3779 2.95778 35.2173 2.47442 35.2023ZM2.3672 36.8018C2.47495 36.7974 2.58249 36.8147 2.68336 36.8529C2.78423 36.891 2.87635 36.9492 2.95418 37.0238C3.032 37.0985 3.09393 37.1881 3.13624 37.2873C3.17855 37.3865 3.20037 37.4932 3.20038 37.601C3.20014 37.8131 3.11578 38.0165 2.96581 38.1665C2.81583 38.3164 2.61249 38.4008 2.4004 38.401C2.19147 38.4005 1.99103 38.3182 1.84196 38.1718C1.69289 38.0254 1.607 37.8265 1.60266 37.6177C1.59833 37.4088 1.67588 37.2065 1.81875 37.054C1.96162 36.9016 2.15847 36.8111 2.3672 36.8018ZM45.5664 36.8018C45.6741 36.7974 45.7817 36.8147 45.8825 36.8529C45.9834 36.891 46.0755 36.9492 46.1534 37.0238C46.2312 37.0985 46.2931 37.1881 46.3354 37.2873C46.3777 37.3865 46.3996 37.4932 46.3996 37.601C46.3993 37.8131 46.315 38.0165 46.165 38.1665C46.015 38.3164 45.8117 38.4008 45.5996 38.401C45.3907 38.4005 45.1902 38.3182 45.0411 38.1718C44.8921 38.0254 44.8062 37.8265 44.8018 37.6177C44.7975 37.4088 44.8751 37.2065 45.0179 37.054C45.1608 36.9016 45.3577 36.8111 45.5664 36.8018ZM30.912 40.1863L29.8878 41.4156L33.7891 44.6667C33.5884 45.1417 33.546 45.6686 33.6681 46.1695C33.7903 46.6705 34.0705 47.1187 34.4674 47.4479C34.8642 47.7771 35.3565 47.9698 35.8713 47.9974C36.3862 48.025 36.8963 47.886 37.326 47.6011C37.7557 47.3162 38.0822 46.9004 38.2572 46.4154C38.4322 45.9304 38.4464 45.402 38.2976 44.9083C38.1488 44.4146 37.845 43.982 37.4311 43.6745C37.0173 43.367 36.5154 43.2009 35.9998 43.2009C35.6054 43.2006 35.217 43.298 34.8695 43.4845L30.912 40.1863ZM16.2343 40.2354L13.0342 43.4355C12.5231 43.1914 11.9422 43.1358 11.3942 43.2785C10.8461 43.4213 10.3661 43.7532 10.0391 44.2156C9.7121 44.678 9.55909 45.2412 9.60714 45.8055C9.65518 46.3698 9.90119 46.899 10.3017 47.2994C10.7021 47.6999 11.2313 47.9459 11.7956 47.994C12.36 48.042 12.9231 47.889 13.3855 47.562C13.8479 47.235 14.1798 46.755 14.3226 46.2069C14.4653 45.6589 14.4097 45.078 14.1656 44.5669L17.3659 41.3666L16.2343 40.2354ZM23.2 40.801V43.3386C22.6662 43.5273 22.2164 43.8987 21.9299 44.387C21.6435 44.8753 21.5389 45.4492 21.6346 46.0072C21.7303 46.5652 22.0202 47.0713 22.4531 47.4362C22.8859 47.8011 23.4339 48.0013 24 48.0013C24.5661 48.0013 25.114 47.8011 25.5469 47.4362C25.9797 47.0713 26.2696 46.5652 26.3654 46.0072C26.4611 45.4492 26.3565 44.8753 26.0701 44.387C25.7836 43.8987 25.3337 43.5273 24.8 43.3386V40.801H23.2ZM11.967 44.8017C12.0748 44.7972 12.1823 44.8146 12.2832 44.8527C12.3841 44.8909 12.4762 44.949 12.554 45.0237C12.6318 45.0983 12.6938 45.1879 12.7361 45.2871C12.7784 45.3863 12.8002 45.4931 12.8002 45.6009C12.8 45.813 12.7156 46.0163 12.5656 46.1663C12.4157 46.3163 12.2123 46.4006 12.0002 46.4009C11.7913 46.4003 11.5909 46.3181 11.4418 46.1717C11.2927 46.0253 11.2068 45.8264 11.2025 45.6175C11.1981 45.4086 11.2757 45.2063 11.4186 45.0539C11.5614 44.9014 11.7583 44.8109 11.967 44.8017ZM23.9668 44.8017C24.0745 44.7972 24.1821 44.8146 24.283 44.8527C24.3838 44.8909 24.4759 44.949 24.5538 45.0237C24.6316 45.0983 24.6935 45.1879 24.7358 45.2871C24.7781 45.3863 24.8 45.4931 24.8 45.6009C24.7997 45.813 24.7154 46.0163 24.5654 46.1663C24.4154 46.3163 24.2121 46.4006 24 46.4009C23.7911 46.4003 23.5906 46.3181 23.4416 46.1717C23.2925 46.0253 23.2066 45.8264 23.2023 45.6175C23.1979 45.4086 23.2755 45.2063 23.4183 45.0539C23.5612 44.9014 23.7581 44.8109 23.9668 44.8017ZM35.9666 44.8017C36.0743 44.7972 36.1819 44.8146 36.2827 44.8527C36.3836 44.8909 36.4757 44.949 36.5535 45.0237C36.6314 45.0983 36.6933 45.1879 36.7356 45.2871C36.7779 45.3863 36.7997 45.4931 36.7998 45.6009C36.7995 45.813 36.7151 46.0163 36.5652 46.1663C36.4152 46.3163 36.2119 46.4006 35.9998 46.4009C35.7908 46.4003 35.5904 46.3181 35.4413 46.1717C35.2923 46.0253 35.2064 45.8264 35.202 45.6175C35.1977 45.4086 35.2753 45.2063 35.4181 45.0539C35.561 44.9014 35.7578 44.8109 35.9666 44.8017Z" fill="#AB56FF"/>
</svg>
