<svg width="48" height="48" viewBox="0 0 48 48" fill="none" xmlns="http://www.w3.org/2000/svg">
<path fill-rule="evenodd" clip-rule="evenodd" d="M23.4148 1.50415C13.0082 1.50415 4.46596 9.91057 4.50018 20.3171C4.5092 23.4799 5.31869 26.5888 6.85323 29.3544C8.38776 32.1199 10.5974 34.452 13.2762 36.1332C13.7145 36.4086 14.21 36.5798 14.7248 36.6337C14.8245 36.6439 14.9252 36.6342 15.0211 36.6051C15.117 36.576 15.2061 36.5281 15.2833 36.4641L17.9751 34.2209C18.9191 33.4354 20.1081 33.0049 21.3362 33.0042H22.3109C22.3428 33.0042 22.3741 32.9961 22.4019 32.9809C22.6825 32.9936 22.9653 32.9999 23.25 32.9999C23.5347 32.9999 23.8175 32.9936 24.0981 32.9809C24.1259 32.9961 24.1572 33.0042 24.1891 33.0042H28.4923C28.7899 33.0049 29.0844 33.0643 29.359 33.179C29.6336 33.2936 29.8829 33.4613 30.0926 33.6725C30.3023 33.8836 30.4683 34.134 30.5811 34.4094C30.6939 34.6847 30.7513 34.9796 30.75 35.2772C30.7484 35.7142 30.6921 36.1493 30.5825 36.5723L35.514 34.1064C36.0674 33.8327 36.5671 33.4617 36.9893 33.0113L36.9961 33.0042H40.4559L40.9852 33.5353C42.7237 31.8127 44.1056 29.7642 45.0518 27.5071C45.998 25.25 46.49 22.8285 46.4996 20.381C46.568 9.99891 37.9657 1.50415 27.5834 1.50415H23.4148ZM37.5 20.2542V20.252C37.4989 12.3955 31.1068 6.00415 23.25 6.00415C15.3925 6.00415 9 12.3967 9 20.2542C9.00006 23.0274 9.80898 25.7405 11.3277 28.061C12.8463 30.3815 15.0089 32.2087 17.5503 33.3187L16.9497 34.6931C14.1409 33.4663 11.7509 31.4469 10.0725 28.8823C8.39408 26.3176 7.50007 23.3192 7.5 20.2542C7.5 11.5695 14.5654 4.50415 23.25 4.50415C31.9346 4.50415 39 11.5695 39 20.2542C39.0011 23.0194 38.2739 25.7361 36.8916 28.131C35.5093 30.5259 33.5205 32.5144 31.1255 33.8966L30.3745 32.5982C32.5417 31.3478 34.3413 29.5485 35.5922 27.3815C36.8431 25.2145 37.5011 22.7563 37.5 20.2542ZM31.5093 3.41779C34.4352 4.07381 37.1391 5.48239 39.3536 7.50415H36.9952C35.4317 5.81821 33.5723 4.43319 31.5093 3.41779ZM38.2489 9.00415H40.8138C41.796 10.1417 42.6258 11.4023 43.2823 12.7542H40.4392C39.857 11.4235 39.1219 10.165 38.2489 9.00415ZM41.0189 14.2542H43.9228C44.5494 15.9377 44.9074 17.7094 44.9837 19.5042H41.9848C41.9157 17.7169 41.5905 15.9489 41.0189 14.2542ZM41.9837 21.0042H44.9832C44.9087 22.7983 44.5539 24.5697 43.9316 26.2542H41.0193C41.5902 24.5593 41.915 22.7913 41.9837 21.0042ZM40.4383 27.7542H43.2933C42.6389 29.1065 41.81 30.3673 40.8278 31.5042H38.2509C39.1229 30.3432 39.857 29.0847 40.4383 27.7542ZM21.3362 34.4999C20.459 34.5005 19.6097 34.808 18.9355 35.3691L16.2437 37.6122C16.0121 37.8042 15.7447 37.9481 15.4569 38.0355C15.1692 38.1229 14.8669 38.1521 14.5677 38.1214L1.57855 36.7542L1.42145 38.2459L14.4108 39.6132C14.9094 39.6645 15.4132 39.6159 15.8928 39.4702C16.3725 39.3245 16.8182 39.0846 17.204 38.7646L19.8957 36.5214C20.3003 36.1848 20.8099 36.0003 21.3362 35.9999H27.6215C27.4659 36.4383 27.1784 36.8178 26.7986 37.0864C26.4188 37.3549 25.9652 37.4994 25.5 37.4999H22.5C22.3272 37.4999 22.1598 37.5595 22.0259 37.6686C21.892 37.7778 21.7998 37.9299 21.7651 38.0991C21.7304 38.2683 21.7551 38.4444 21.8352 38.5975C21.9152 38.7505 22.0457 38.8713 22.2045 38.9393L27.4545 41.1893C27.5547 41.2323 27.663 41.2528 27.772 41.2496C27.881 41.2464 27.9879 41.2194 28.0854 41.1707L37.7166 36.3552C38.0958 36.1662 38.5206 36.088 38.9422 36.1293C39.3639 36.1706 39.7653 36.3299 40.1006 36.5888L27.5328 44.5262C27.0809 44.8115 26.5423 44.9267 26.0132 44.8513L16.9666 43.5589C16.6673 43.5161 16.3639 43.5097 16.0631 43.5399L1.42529 45.0036L1.57471 46.4963L16.2122 45.0325C16.3927 45.0144 16.5747 45.0182 16.7543 45.0439L25.801 46.3362C26.6829 46.4621 27.5807 46.2701 28.3339 45.7946L41.6505 37.384C41.735 37.3306 41.808 37.2608 41.8652 37.1788C41.9224 37.0968 41.9626 37.0041 41.9834 36.9063C42.0043 36.8085 42.0054 36.7075 41.9866 36.6093C41.9679 36.511 41.9296 36.4175 41.8742 36.3343L41.8431 36.2874C41.3352 35.5279 40.5679 34.9796 39.6848 34.7451C38.8017 34.5106 37.8635 34.6061 37.0457 35.0135L27.7256 39.6736L26.0576 38.9586C26.9451 38.8239 27.755 38.3758 28.3406 37.6955C28.9262 37.0152 29.2488 36.1476 29.25 35.2499C29.25 35.051 29.171 34.8603 29.0303 34.7196C28.8897 34.579 28.6989 34.4999 28.5 34.4999H21.3362ZM24.5437 12.2296C25.2113 12.3279 25.8157 12.5074 26.357 12.7679C27.2398 13.1729 27.9257 13.7669 28.4147 14.5499C28.9037 15.3194 29.1821 16.2577 29.25 17.3647H26.031C25.8544 16.6627 25.5284 16.1294 25.0531 15.7649C24.5913 15.4004 23.9936 15.2182 23.2602 15.2182C22.486 15.2182 21.8748 15.3937 21.4266 15.7447C20.9919 16.0822 20.7746 16.5547 20.7746 17.1622C20.7746 17.5942 20.9172 17.9587 21.2025 18.2557C21.5013 18.5392 21.9155 18.7214 22.4452 18.8024L24.4622 19.1062C25.9155 19.3357 27.0225 19.8757 27.7831 20.7262C28.5573 21.5632 28.9444 22.6567 28.9444 24.0067C28.9444 25.0462 28.7135 25.9507 28.2517 26.7202C27.7899 27.4897 27.1244 28.0837 26.2551 28.5022C25.743 28.7446 25.1726 28.9144 24.5437 29.0117V30.7499H22.0174V29.0404C21.3197 28.9545 20.6881 28.7886 20.1227 28.5427C19.267 28.1647 18.5879 27.6179 18.0853 26.9024C17.5963 26.1734 17.3179 25.3027 17.25 24.2902H20.5913C20.7678 24.8572 21.0734 25.2892 21.5081 25.5862C21.9563 25.8832 22.5267 26.0317 23.2194 26.0317C23.9529 26.0317 24.5301 25.8629 24.9512 25.5254C25.3722 25.1744 25.5828 24.7019 25.5828 24.1079C25.5828 23.6759 25.4334 23.3182 25.1346 23.0347C24.8493 22.7512 24.4486 22.5689 23.9325 22.4879L21.8952 22.1842C20.4554 21.9547 19.3485 21.4214 18.5743 20.5844C17.8001 19.7339 17.413 18.6269 17.413 17.2634C17.413 16.2104 17.6507 15.3059 18.1261 14.5499C18.6014 13.7804 19.2738 13.1864 20.143 12.7679C20.7046 12.5017 21.3294 12.3202 22.0174 12.2233V10.4999H24.5437V12.2296Z" fill="#AB56FF"/>
</svg>
