<svg width="43" height="42" viewBox="0 0 43 42" fill="none" xmlns="http://www.w3.org/2000/svg">
<path d="M20.6926 0.00135249C16.5657 0.0627752 12.5484 1.33862 9.14233 3.66956C5.73624 6.00051 3.09232 9.28324 1.54075 13.1078C-0.0108191 16.9324 -0.401276 21.1293 0.418141 25.1745C1.23756 29.2197 3.23053 32.9338 6.14818 35.853C6.7743 36.4792 7.43886 37.0656 8.13799 37.609L8.16399 37.4012C8.20811 37.0549 8.33185 36.7235 8.52551 36.433C8.71917 36.1425 8.97748 35.9008 9.2802 35.7269L11.2817 34.5832C11.0371 34.3718 10.8408 34.1102 10.7062 33.8163C10.5715 33.5224 10.5016 33.2029 10.5011 32.8796V31.6771C10.4997 31.259 10.6155 30.8488 10.8353 30.4931C11.0552 30.1373 11.3703 29.8503 11.745 29.6646C12.0576 29.5093 12.402 29.4284 12.7511 29.4284C13.1003 29.4284 13.4447 29.5093 13.7573 29.6646C14.132 29.8504 14.4471 30.1374 14.6669 30.4931C14.8868 30.8488 15.0026 31.259 15.0011 31.6771V32.8796C15.0007 33.2029 14.9308 33.5223 14.7961 33.8162C14.6614 34.1101 14.4651 34.3716 14.2206 34.583L15.5715 35.355C15.6905 34.9083 15.9079 34.4938 16.2079 34.142C16.5078 33.7903 16.8827 33.5101 17.305 33.322L19.2362 32.4638C18.8538 32.1852 18.5427 31.8203 18.3281 31.3987C18.1134 30.9771 18.0014 30.5108 18.0011 30.0378V28.6218C18.0011 27.8262 18.3172 27.0631 18.8798 26.5005C19.4424 25.9379 20.2055 25.6218 21.0011 25.6218C21.7968 25.6218 22.5599 25.9379 23.1225 26.5005C23.6851 27.0631 24.0011 27.8262 24.0011 28.6218V30.0378C24.0009 30.5108 23.8889 30.9771 23.6742 31.3987C23.4596 31.8203 23.1485 32.1852 22.7661 32.4638L24.6973 33.322C25.1196 33.5101 25.4945 33.7903 25.7944 34.142C26.0944 34.4938 26.3118 34.9083 26.4308 35.355L27.7817 34.583C27.5371 34.3716 27.3409 34.1101 27.2062 33.8162C27.0715 33.5223 27.0016 33.2029 27.0011 32.8796V31.6771C26.9997 31.259 27.1155 30.8488 27.3353 30.4931C27.5552 30.1373 27.8703 29.8503 28.245 29.6646C28.5576 29.5093 28.902 29.4284 29.2511 29.4284C29.6003 29.4284 29.9447 29.5093 30.2573 29.6646C30.632 29.8504 30.9471 30.1374 31.1669 30.4931C31.3868 30.8488 31.5026 31.259 31.5011 31.6771V32.8796C31.5007 33.2029 31.4308 33.5223 31.2961 33.8162C31.1614 34.1101 30.9651 34.3716 30.7206 34.583L32.7221 35.7269C33.0248 35.9008 33.2831 36.1425 33.4768 36.433C33.6704 36.7235 33.7942 37.0549 33.8383 37.4012L33.8643 37.609C34.5634 37.0656 35.228 36.4792 35.8541 35.853C39.7903 31.9122 42.0012 26.57 42.0012 21.0001C42.0012 15.4301 39.7903 10.088 35.8541 6.1471C33.8665 4.16063 31.5005 2.59317 28.8963 1.53752C26.292 0.481875 23.5024 -0.0404914 20.6926 0.00135249ZM20.2511 1.50007H21.7511V20.5987L37.1672 30.876L36.3351 32.1241L21.0011 21.9015L5.66716 32.1241L4.83513 30.876L20.2511 20.5987V1.50007ZM31.5449 5.71424C31.7629 5.72066 31.9768 5.77452 32.1719 5.87208L33.2573 6.41462C33.632 6.60034 33.9471 6.88733 34.167 7.24305C34.3868 7.59876 34.5026 8.00897 34.5011 8.42713V10.6288C34.502 10.9244 34.4441 11.2172 34.331 11.4903C34.2179 11.7634 34.0517 12.0113 33.8421 12.2198L31.7209 14.3411C31.651 14.4105 31.5956 14.4932 31.5579 14.5842C31.5202 14.6752 31.5009 14.7728 31.5011 14.8713V21.0001C31.5011 21.5968 31.2641 22.1691 30.8421 22.5911C30.4202 23.013 29.8479 23.2501 29.2511 23.2501C28.6544 23.2501 28.0821 23.013 27.6602 22.5911C27.2382 22.1691 27.0011 21.5968 27.0011 21.0001V14.8713C27.0014 14.7728 26.9821 14.6752 26.9444 14.5842C26.9067 14.4932 26.8513 14.4105 26.7814 14.3411L24.6601 12.2198C24.4506 12.0113 24.2844 11.7634 24.1713 11.4903C24.0582 11.2172 24.0003 10.9244 24.0011 10.6288V8.42713C23.9997 8.00897 24.1155 7.59876 24.3353 7.24305C24.5552 6.88733 24.8703 6.60034 25.245 6.41462L26.3304 5.87208C26.5591 5.75775 26.8132 5.70377 27.0686 5.71526C27.324 5.72675 27.5722 5.80332 27.7897 5.93772C28.0072 6.07212 28.1867 6.25987 28.3112 6.48316C28.4357 6.70645 28.5011 6.95785 28.5011 7.21351V9.00007C28.5024 9.19988 28.5828 9.39105 28.7247 9.53165C28.8667 9.67226 29.0587 9.7508 29.2585 9.75007H29.2962C29.4831 9.74984 29.6623 9.6755 29.7944 9.54334C29.9266 9.41119 30.0009 9.23201 30.0011 9.04511V7.21369C30.0011 7.01302 30.0414 6.81438 30.1195 6.62954C30.1976 6.4447 30.3121 6.27742 30.456 6.1376C30.6 5.99778 30.7705 5.88827 30.9576 5.81555C31.1446 5.74283 31.3443 5.70838 31.5449 5.71424ZM8.25114 6.00007H18.0011V20.2501H15.0011V22.5001H5.25114V9.00007H8.25114V6.00007ZM27.0011 7.21351L25.9157 7.75624C25.7908 7.81817 25.6858 7.91385 25.6125 8.03243C25.5393 8.15101 25.5007 8.28774 25.5011 8.42713V10.6288C25.5009 10.7273 25.5202 10.8249 25.5579 10.9159C25.5956 11.007 25.651 11.0896 25.7209 11.1591L27.8421 13.2803C28.0517 13.4888 28.2179 13.7367 28.331 14.0098C28.4441 14.2829 28.502 14.5758 28.5011 14.8713V21.0001C28.5011 21.199 28.5802 21.3897 28.7208 21.5304C28.8615 21.6711 29.0522 21.7501 29.2511 21.7501C29.4501 21.7501 29.6408 21.6711 29.7815 21.5304C29.9221 21.3897 30.0011 21.199 30.0011 21.0001V14.8713C30.0003 14.5758 30.0582 14.2829 30.1713 14.0098C30.2844 13.7367 30.4506 13.4888 30.6601 13.2803L32.7814 11.1591C32.8513 11.0896 32.9067 11.007 32.9444 10.9159C32.9821 10.8249 33.0014 10.7273 33.0011 10.6288V8.42713C33.0016 8.28774 32.963 8.15101 32.8898 8.03243C32.8165 7.91385 32.7115 7.81817 32.5866 7.75624L31.5011 7.21369V9.04511C31.5005 9.6297 31.2679 10.1901 30.8546 10.6035C30.4412 11.0169 29.8808 11.2494 29.2962 11.2501H29.2585C28.661 11.2504 28.0877 11.0136 27.6646 10.5918C27.2414 10.17 27.0028 9.59757 27.0011 9.00007V7.21351ZM9.75114 7.50007V9.00007H15.0011V18.7501H16.5011V7.50007H9.75114ZM6.75114 10.5001V21.0001H13.5011V10.5001H6.75114ZM36.0011 11.2501H37.5011V19.0364L39.0011 19.7864V25.323C39.0026 25.7412 38.8868 26.1514 38.667 26.5071C38.4471 26.8628 38.132 27.1498 37.7573 27.3355C37.4143 27.507 37.0331 27.588 36.6499 27.5708C36.2668 27.5535 35.8944 27.4386 35.5682 27.237C35.2419 27.0354 34.9727 26.7537 34.7859 26.4187C34.5992 26.0837 34.5011 25.7065 34.5011 25.323V19.7864L36.0011 19.0364V11.2501ZM8.25114 12.0001H12.0011V13.5001H8.25114V12.0001ZM8.25114 15.0001H12.0011V16.5001H8.25114V15.0001ZM8.25114 18.0001H12.0011V19.5001H8.25114V18.0001ZM36.7511 20.3385L36.0011 20.7137V25.323C36.0007 25.4624 36.0393 25.5991 36.1125 25.7177C36.1858 25.8363 36.2908 25.932 36.4157 25.9939C36.5199 26.0457 36.6348 26.0726 36.7511 26.0726C36.8675 26.0726 36.9823 26.0457 37.0866 25.9939C37.2115 25.932 37.3165 25.8363 37.3898 25.7177C37.4631 25.5991 37.5016 25.4624 37.5011 25.323V20.7135L36.7511 20.3385ZM20.9574 27.1224C20.5673 27.1338 20.197 27.2967 19.9251 27.5767C19.6532 27.8567 19.5011 28.2316 19.5011 28.6218V30.0378C19.5013 30.3279 19.5855 30.6118 19.7436 30.855C19.9017 31.0983 20.1269 31.2905 20.392 31.4085L21.0011 31.6793L21.6103 31.4085C21.8754 31.2905 22.1006 31.0983 22.2587 30.855C22.4168 30.6118 22.501 30.3279 22.5011 30.0378V28.6218C22.5012 28.4212 22.4609 28.2225 22.3828 28.0377C22.3046 27.8529 22.1902 27.6856 22.0462 27.5458C21.9023 27.4059 21.7318 27.2964 21.5447 27.2237C21.3577 27.151 21.158 27.1165 20.9574 27.1224ZM12.7292 30.9275C12.5342 30.9332 12.349 31.0147 12.2131 31.1547C12.0772 31.2946 12.0012 31.482 12.0011 31.6771V32.8796C12.0013 33.0118 12.0364 33.1416 12.1027 33.2559C12.1691 33.3702 12.2644 33.465 12.3791 33.5307L12.7511 33.7433L13.1232 33.5307C13.2379 33.465 13.3332 33.3702 13.3996 33.2559C13.4659 33.1416 13.5009 33.0118 13.5011 32.8796V31.6771C13.5011 31.5768 13.481 31.4775 13.4419 31.3851C13.4028 31.2927 13.3456 31.209 13.2736 31.1391C13.2016 31.0692 13.1164 31.0145 13.0229 30.9781C12.9293 30.9418 12.8295 30.9246 12.7292 30.9275ZM29.2292 30.9275C29.0342 30.9332 28.849 31.0147 28.7131 31.1547C28.5772 31.2946 28.5012 31.482 28.5011 31.6771V32.8796C28.5013 33.0118 28.5364 33.1416 28.6027 33.2559C28.6691 33.3702 28.7644 33.465 28.8791 33.5307L29.2511 33.7433L29.6232 33.5307C29.7379 33.465 29.8332 33.3702 29.8996 33.2559C29.9659 33.1416 30.0009 33.0118 30.0011 32.8796V31.6771C30.0011 31.5768 29.981 31.4775 29.9419 31.3851C29.9028 31.2927 29.8456 31.209 29.7736 31.1391C29.7017 31.0692 29.6164 31.0145 29.5229 30.9781C29.4293 30.9418 29.3295 30.9246 29.2292 30.9275ZM21.0011 33.3209L17.9142 34.6927C17.6813 34.7964 17.4767 34.9543 17.3174 35.1534C17.1581 35.3524 17.0488 35.5866 16.9986 35.8366L15.8903 41.3782C19.2471 42.2073 22.7552 42.2073 26.112 41.3782L25.0036 35.8366C24.9535 35.5866 24.8442 35.3524 24.6849 35.1534C24.5256 34.9543 24.321 34.7964 24.0881 34.6927L21.0011 33.3209ZM12.7511 35.4711L10.0243 37.0291C9.92343 37.0871 9.83733 37.1677 9.77277 37.2645C9.70822 37.3613 9.66697 37.4718 9.65227 37.5872L9.52592 38.5991C11.054 39.5999 12.7076 40.3946 14.4438 40.9624L15.2558 36.9022L12.7511 35.4711ZM29.2511 35.4711L26.7464 36.9022L27.5585 40.9624C29.2947 40.3946 30.9483 39.5999 32.4764 38.5991L32.35 37.5872C32.3353 37.4718 32.294 37.3613 32.2295 37.2645C32.1649 37.1677 32.0788 37.0871 31.978 37.0291L29.2511 35.4711Z" fill="#AB56FF"/>
</svg>
