<svg width="45" height="44" viewBox="0 0 45 44" fill="none" xmlns="http://www.w3.org/2000/svg">
<path d="M11.5013 0.25C10.6763 0.25 10.0013 0.925 10.0013 1.75H34.0013C34.0013 0.925 33.3263 0.25 32.5013 0.25H11.5013ZM10.0013 3.25V7.75H34.0013V3.25H10.0013ZM10.0013 9.25V20.5H19.7513V23.1997L18.4769 24.4756L19.5258 25.5244L20.8016 24.25H23.5013V25.75C23.5013 26.575 24.1763 27.25 25.0013 27.25H31.0013V25C31.0013 24.175 31.6763 23.5 32.5013 23.5H34.0013C34.8263 23.5 35.5013 24.175 35.5013 25V27.25H43.0013C43.8263 27.25 44.5013 26.575 44.5013 25.75V21.25C44.5013 20.425 43.8263 19.75 43.0013 19.75H25.0013C24.1763 19.75 23.5013 20.425 23.5013 21.25V22.75H21.2513V20.5H22.0013V19.75C22.0013 18.925 22.6763 18.25 23.5013 18.25H34.0013V9.25H10.0013ZM36.2513 10.75V12.25H38.5013C38.9513 12.25 39.2513 12.55 39.2513 13V18.25H40.7513V13C40.7513 11.725 39.7763 10.75 38.5013 10.75H36.2513ZM13.0013 12.25H24.2513V13.75H13.0013V12.25ZM25.7513 12.25H31.0013V13.75H25.7513V12.25ZM5.50134 14.5C4.22634 14.5 3.25134 15.475 3.25134 16.75V20.5H4.75134V16.75C4.75134 16.3 5.05134 16 5.50134 16H7.75134V14.5H5.50134ZM13.0013 15.25H17.5013V16.75H13.0013V15.25ZM19.0013 15.25H31.0013V16.75H19.0013V15.25ZM11.6844 22.0586C8.65782 21.9915 5.62849 23.2284 3.47693 25.6753C-0.348074 30.0253 0.176926 36.6994 4.60193 40.5244C9.02693 44.3494 15.626 43.8256 19.451 39.4756C22.826 35.5006 22.826 29.5756 19.451 25.6006L17.8016 27.25C20.7266 30.775 20.2763 35.95 16.7513 38.875C13.2263 41.8 8.05134 41.3497 5.12634 37.8247C2.20134 34.2997 2.65163 29.1247 6.17663 26.1997C9.25163 23.6497 13.6763 23.6497 16.7513 26.1997L18.326 24.625C16.3901 22.9516 14.0385 22.1108 11.6844 22.0586ZM33.2513 25C32.8013 25 32.5013 25.3 32.5013 25.75V34C32.5013 34.45 32.2013 34.75 31.7513 34.75C31.3013 34.75 31.0013 34.45 31.0013 34V32.5C31.0013 32.05 30.7013 31.75 30.2513 31.75C29.8013 31.75 29.5013 32.05 29.5013 32.5V35.3506L31.5258 40H38.7269L39.326 37.6753V31C39.251 30.55 38.9513 30.25 38.5013 30.25H34.0013V25.75C34.0013 25.3 33.7013 25 33.2513 25ZM11.5013 25.75C7.75134 25.75 4.75134 28.75 4.75134 32.5C4.75134 36.25 7.75134 39.25 11.5013 39.25C15.2513 39.25 18.2513 36.25 18.2513 32.5C18.2513 30.925 17.7263 29.4256 16.7513 28.2256L15.1766 29.8003C16.6016 31.8253 16.1513 34.6756 14.1263 36.1006C12.1013 37.5256 9.25105 37.0753 7.82605 35.0503C6.40105 33.0253 6.85134 30.175 8.87634 28.75C10.4513 27.625 12.5513 27.625 14.1263 28.75L15.701 27.1753C14.501 26.2753 13.0013 25.75 11.5013 25.75ZM11.5013 29.5C9.85134 29.5 8.50134 30.85 8.50134 32.5C8.50134 34.15 9.85134 35.5 11.5013 35.5C13.1513 35.5 14.5013 34.15 14.5013 32.5C14.5013 31.975 14.3516 31.45 14.0516 31L12.0258 33.0244L10.9769 31.9756L13.0013 29.9497C12.5513 29.6497 12.0263 29.5 11.5013 29.5ZM21.2513 41.5V43H28.0013V41.5H21.2513ZM31.7513 41.5V43H38.5013V41.5H31.7513Z" fill="#AB56FF"/>
</svg>
