<svg width="43" height="39" viewBox="0 0 43 39" fill="none" xmlns="http://www.w3.org/2000/svg">
<path d="M18.0012 0.5C16.7262 0.5 15.7512 1.475 15.7512 2.75V8H17.2512V2.75C17.2512 2.3 17.5512 2 18.0012 2H24.0012C24.4512 2 24.7512 2.3 24.7512 2.75V8H26.2512V2.75C26.2512 1.475 25.2762 0.5 24.0012 0.5H18.0012ZM26.2512 8V10.25H24.7512V8H17.2512V10.25H15.7512V8H0.751221C0.376221 8 0.0762207 8.22559 0.0012207 8.60059V14H42.0012V8.60059C41.9262 8.22559 41.6262 8 41.2512 8H26.2512ZM0.0012207 15.5V18.8003L8.62622 22.7744C8.92622 22.4744 9.30122 22.25 9.75122 22.25H11.2512C12.0762 22.25 12.7512 22.925 12.7512 23.75H17.4006C18.0006 23.75 18.6018 23.9753 18.9768 24.4253L21.0012 26.4497L23.0256 24.4253C23.4756 23.9753 24.0018 23.75 24.6018 23.75H29.2512C29.2512 22.925 29.9262 22.25 30.7512 22.25H32.2512C32.7012 22.25 33.0762 22.3994 33.3762 22.7744L42.0012 18.8003V15.5H24.0012V18.5C24.0012 19.325 23.3262 20 22.5012 20H19.5012C18.6762 20 18.0012 19.325 18.0012 18.5V15.5H0.0012207ZM19.5012 15.5V18.5H22.5012V15.5H19.5012ZM0.0012207 20.4497V26.3003L8.25122 30.7256V24.1997L0.0012207 20.4497ZM42.0012 20.4497L33.7512 24.1997V30.7256L42.0012 26.3003V20.4497ZM9.75122 23.75V32H11.2512V23.75H9.75122ZM30.7512 23.75V32H32.2512V23.75H30.7512ZM12.7512 25.25V31.6997L16.5759 35.5244C16.7259 35.6744 16.8768 35.75 17.1018 35.75H19.2009L17.4768 34.0244L18.5256 32.9756L21.3015 35.75H23.7009L21.9768 34.0244L23.0256 32.9756L25.5012 35.4497L26.7009 34.25L23.2512 30.8003L22.8015 31.25C22.2015 31.85 21.3009 31.85 20.7009 31.25L19.5012 30.0503C18.9012 29.4503 18.9012 28.5497 19.5012 27.9497L19.9509 27.5L17.9265 25.4756C17.7765 25.3256 17.6256 25.25 17.4006 25.25H12.7512ZM24.6018 25.25C24.3768 25.25 24.2259 25.3256 24.0759 25.4756L20.5515 29L21.7512 30.1997L24.9768 26.9756L26.0256 28.0244L24.3015 29.75L27.7512 33.1997L29.2512 31.6997V25.25H24.6018ZM0.0012207 28.0244V38.1494C0.0762207 38.5244 0.376221 38.75 0.751221 38.75H41.2512C41.6262 38.75 41.9262 38.5244 42.0012 38.1494V28.0244L33.6765 32.5244C33.4515 33.1244 32.8512 33.5 32.2512 33.5H30.7512C30.4512 33.5 30.1518 33.4247 29.8518 33.1997L26.4768 36.5747C26.0268 37.0247 25.5006 37.25 24.9006 37.25H17.1018C16.5018 37.25 15.9006 37.0247 15.5256 36.5747L12.1506 33.1997C11.8506 33.4247 11.5512 33.5 11.2512 33.5H9.75122C9.15122 33.5 8.55093 33.1244 8.32593 32.5244L0.0012207 28.0244Z" fill="#AB56FF"/>
</svg>
